STARTFONT 2.1
COMMENT $Xorg: $
COMMENT ISO10646-1 extension by Markus Kuhn <mkuhn@acm.org>, 2001-03-20
COMMENT  (c) Copyright Bigelow & Holmes 1986, 1985. Lucida is a registered
COMMENT  trademark of Bigelow & Holmes. See LEGAL NOTICE file for terms 
COMMENT  of the license. 
FONT -B&H-LucidaBright-Medium-R-Normal--34-240-100-100-P-193-ISO10646-1
SIZE 24 100 100
FONTBOUNDINGBOX 55 50 -21 -12
STARTPROPERTIES 22
COMMENT Begin LogicalFontDescription
FONTNAME_REGISTRY ""
FOUNDRY "B&H"
FAMILY_NAME "LucidaBright"
WEIGHT_NAME "Medium"
SLANT "R"
SETWIDTH_NAME "Normal"
ADD_STYLE_NAME ""
PIXEL_SIZE 34
POINT_SIZE 240
RESOLUTION_X 100
RESOLUTION_Y 100
SPACING "P"
AVERAGE_WIDTH 193
CHARSET_REGISTRY "ISO10646"
CHARSET_ENCODING "1"
COMMENT END LogicalFontDescription
FONT_ASCENT 31
FONT_DESCENT 8
DEFAULT_CHAR 0
COPYRIGHT "Copyright Bigelow & Holmes 1986, 1985."
FACE_NAME "Lucida Bright"
X_HEIGHT 18
CAP_HEIGHT 25
ENDPROPERTIES
CHARS 756
STARTCHAR char0
ENCODING 0
SWIDTH 771 0
DWIDTH 26 0
BBX 25 25 1 0
BITMAP
AAAAAA80
00000000
80000080
00000000
80000080
00000000
80000080
00000000
80000080
00000000
80000080
00000000
80000080
00000000
80000080
00000000
80000080
00000000
80000080
00000000
80000080
00000000
80000080
00000000
AAAAAA80
ENDCHAR
STARTCHAR space
ENCODING 32
SWIDTH 333 0
DWIDTH 10 0
BBX 1 1 0 0
BITMAP
00
ENDCHAR
STARTCHAR exclam
ENCODING 33
SWIDTH 265 0
DWIDTH 9 0
BBX 3 25 3 0
BITMAP
E0
E0
E0
E0
E0
E0
E0
E0
E0
E0
E0
E0
40
40
40
40
40
40
00
00
00
00
E0
E0
E0
ENDCHAR
STARTCHAR quotedbl
ENCODING 34
SWIDTH 386 0
DWIDTH 13 0
BBX 9 9 2 17
BITMAP
E380
E380
E380
E380
E380
4100
4100
4100
4100
ENDCHAR
STARTCHAR numbersign
ENCODING 35
SWIDTH 608 0
DWIDTH 21 0
BBX 21 25 0 0
BITMAP
0060C0
006180
006180
00C180
00C180
00C300
00C300
3FFFF8
3FFFF8
018600
018600
030600
030600
030C00
030C00
FFFFE0
FFFFE0
061C00
061800
0E1800
0C1800
0C1800
0C3000
1C3000
183000
ENDCHAR
STARTCHAR dollar
ENCODING 36
SWIDTH 608 0
DWIDTH 21 0
BBX 14 30 3 -3
BITMAP
0100
0100
0FF0
1D1C
390C
710C
710C
7100
7100
7100
7900
3D00
1F00
0F80
07C0
01F0
01F8
017C
013C
011C
011C
011C
C11C
C118
C138
F170
3FC0
0100
0100
0100
ENDCHAR
STARTCHAR percent
ENCODING 37
SWIDTH 675 0
DWIDTH 23 0
BBX 24 25 0 0
BITMAP
1F0007
30800E
60C01C
404038
C06030
C06060
C060C0
C061C0
C06380
404700
60CE00
208C00
1F1800
0030F8
007184
00E306
01C603
038603
030603
060603
0C0603
1C0603
380306
700104
E000F8
ENDCHAR
STARTCHAR ampersand
ENCODING 38
SWIDTH 690 0
DWIDTH 23 0
BBX 22 25 1 0
BITMAP
01F800
030E00
070600
0E0700
0E0700
0E0700
0E0700
0F0E00
078C00
079800
07E000
1DE000
38F1FC
70F030
607830
E03830
E03C20
E01E20
E00F60
F00740
700380
7801C0
3E07E0
1FF9F8
07E0FC
ENDCHAR
STARTCHAR quotesingle
ENCODING 39
SWIDTH 241 0
DWIDTH 8 0
BBX 5 9 2 17
BITMAP
F8
F8
70
70
70
70
70
20
20
ENDCHAR
STARTCHAR parenleft
ENCODING 40
SWIDTH 316 0
DWIDTH 11 0
BBX 7 32 2 -6
BITMAP
02
06
0C
08
18
10
30
30
70
60
60
E0
E0
E0
E0
E0
E0
E0
E0
E0
E0
60
60
70
30
30
30
18
08
0C
06
02
ENDCHAR
STARTCHAR parenright
ENCODING 41
SWIDTH 316 0
DWIDTH 11 0
BBX 7 32 2 -6
BITMAP
80
C0
60
20
30
18
18
18
1C
0C
0C
0E
0E
0E
0E
0E
0E
0E
0E
0E
0E
0C
0C
1C
18
18
18
30
20
60
C0
80
ENDCHAR
STARTCHAR asterisk
ENCODING 42
SWIDTH 470 0
DWIDTH 16 0
BBX 13 12 2 13
BITMAP
0700
0700
0200
4208
F278
78F0
0000
0500
0D80
18C0
38E0
1040
ENDCHAR
STARTCHAR plus
ENCODING 43
SWIDTH 608 0
DWIDTH 21 0
BBX 20 21 0 0
BITMAP
006000
006000
006000
006000
006000
006000
006000
006000
006000
FFFFF0
FFFFF0
006000
006000
006000
006000
006000
006000
006000
006000
006000
006000
ENDCHAR
STARTCHAR comma
ENCODING 44
SWIDTH 265 0
DWIDTH 9 0
BBX 4 11 3 -6
BITMAP
F0
F0
F0
F0
F0
30
30
30
20
60
C0
ENDCHAR
STARTCHAR hyphen
ENCODING 45
SWIDTH 325 0
DWIDTH 11 0
BBX 8 2 2 10
BITMAP
FF
FF
ENDCHAR
STARTCHAR period
ENCODING 46
SWIDTH 265 0
DWIDTH 9 0
BBX 4 3 3 0
BITMAP
F0
F0
F0
ENDCHAR
STARTCHAR slash
ENCODING 47
SWIDTH 512 0
DWIDTH 17 0
BBX 17 32 0 -6
BITMAP
000180
000300
000300
000600
000600
000C00
000C00
001C00
001800
003800
003000
003000
006000
006000
00C000
00C000
018000
018000
030000
030000
060000
060000
0E0000
0C0000
1C0000
180000
180000
300000
300000
600000
600000
C00000
ENDCHAR
STARTCHAR zero
ENCODING 48
SWIDTH 608 0
DWIDTH 21 0
BBX 17 25 2 0
BITMAP
03E000
0C1800
180C00
300600
300600
700700
600300
600300
E00380
E00380
E00380
E00380
E00380
E00380
E00380
E00380
E00380
600300
600300
700700
300600
300600
180C00
0C1800
03E000
ENDCHAR
STARTCHAR one
ENCODING 49
SWIDTH 608 0
DWIDTH 21 0
BBX 12 25 4 0
BITMAP
FF00
0F00
0700
0700
0700
0700
0700
0700
0700
0700
0700
0700
0700
0700
0700
0700
0700
0700
0700
0700
0700
0700
0700
0F80
FFF0
ENDCHAR
STARTCHAR two
ENCODING 50
SWIDTH 608 0
DWIDTH 21 0
BBX 15 25 3 0
BITMAP
0FE0
7838
701C
601C
600E
600E
000E
000E
000E
000C
001C
0038
0070
00C0
0180
0300
0400
0800
1800
3000
7000
7000
FFFE
FFFE
FFFE
ENDCHAR
STARTCHAR three
ENCODING 51
SWIDTH 608 0
DWIDTH 21 0
BBX 14 25 3 0
BITMAP
3F80
F0E0
C070
C038
C038
0038
0038
0038
0030
0070
01E0
1F80
00E0
0078
0038
001C
001C
001C
001C
001C
C01C
C038
C070
F0E0
7F80
ENDCHAR
STARTCHAR four
ENCODING 52
SWIDTH 608 0
DWIDTH 21 0
BBX 17 25 1 0
BITMAP
000C00
001C00
003C00
003C00
005C00
009C00
019C00
011C00
021C00
041C00
0C1C00
081C00
101C00
301C00
601C00
401C00
FFFF80
FFFF80
001C00
001C00
001C00
001C00
001C00
003E00
00FF80
ENDCHAR
STARTCHAR five
ENCODING 53
SWIDTH 608 0
DWIDTH 21 0
BBX 13 25 4 0
BITMAP
FFF8
FFF8
FFF8
8000
8000
8000
8000
8000
8000
8000
FE00
0780
00E0
0070
0030
0038
0038
0038
0038
0038
C030
C070
C0E0
E1C0
FF00
ENDCHAR
STARTCHAR six
ENCODING 54
SWIDTH 608 0
DWIDTH 21 0
BBX 17 25 2 0
BITMAP
01FC00
060F00
180300
180300
300300
700000
700000
600000
E00000
E3F000
EC1C00
F80600
F00700
E00300
E00380
E00380
E00380
600380
600380
700380
300700
380700
180E00
0E1C00
03F000
ENDCHAR
STARTCHAR seven
ENCODING 55
SWIDTH 608 0
DWIDTH 21 0
BBX 16 25 3 0
BITMAP
FFFF
FFFF
FFFF
0002
0004
000C
0008
0010
0030
0060
0040
00C0
0180
0300
0300
0600
0E00
0C00
1C00
1C00
3800
3800
3800
7000
7000
ENDCHAR
STARTCHAR eight
ENCODING 56
SWIDTH 608 0
DWIDTH 21 0
BBX 16 25 2 0
BITMAP
07E0
1C38
381C
300E
700E
700E
700E
780E
3C1C
3E18
1FB0
07E0
1BF0
30FC
703E
601E
E00F
E007
E007
E007
E007
700E
700C
1C38
07E0
ENDCHAR
STARTCHAR nine
ENCODING 57
SWIDTH 608 0
DWIDTH 21 0
BBX 17 25 2 0
BITMAP
07E000
1C3800
380C00
700E00
700700
E00700
E00300
E00380
E00380
E00380
E00380
600380
700780
300F80
1C1380
07E380
000380
000300
000700
000700
600600
600C00
600800
783000
1FC000
ENDCHAR
STARTCHAR colon
ENCODING 58
SWIDTH 265 0
DWIDTH 9 0
BBX 3 18 3 0
BITMAP
E0
E0
E0
00
00
00
00
00
00
00
00
00
00
00
00
E0
E0
E0
ENDCHAR
STARTCHAR semicolon
ENCODING 59
SWIDTH 265 0
DWIDTH 9 0
BBX 3 24 3 -6
BITMAP
E0
E0
E0
00
00
00
00
00
00
00
00
00
00
00
00
E0
E0
E0
60
60
60
60
40
C0
ENDCHAR
STARTCHAR less
ENCODING 60
SWIDTH 608 0
DWIDTH 21 0
BBX 20 21 0 0
BITMAP
000010
000070
0001E0
0007C0
001F00
007C00
01F000
03C000
0F0000
3C0000
F00000
3C0000
0F0000
03C000
01F000
007C00
001F00
0007C0
0001E0
000070
000010
ENDCHAR
STARTCHAR equal
ENCODING 61
SWIDTH 608 0
DWIDTH 21 0
BBX 20 9 0 5
BITMAP
FFFFF0
FFFFF0
000000
000000
000000
000000
000000
FFFFF0
FFFFF0
ENDCHAR
STARTCHAR greater
ENCODING 62
SWIDTH 608 0
DWIDTH 21 0
BBX 20 21 0 0
BITMAP
800000
E00000
780000
3E0000
0F8000
03E000
00F800
003C00
000F00
0003C0
0000F0
0003C0
000F00
003C00
00F800
03E000
0F8000
3E0000
780000
E00000
800000
ENDCHAR
STARTCHAR question
ENCODING 63
SWIDTH 480 0
DWIDTH 16 0
BBX 13 25 2 0
BITMAP
3F80
E0E0
C070
C038
C038
C038
0038
0038
0070
0060
00C0
0180
0300
0200
0600
0E00
0E00
0E00
0E00
0000
0000
0000
0E00
0E00
0E00
ENDCHAR
STARTCHAR at
ENCODING 64
SWIDTH 873 0
DWIDTH 30 0
BBX 26 25 2 0
BITMAP
000FE000
00703800
01800600
03000300
04000100
080F0080
101FE080
2021E040
2040E040
4080E040
4181C040
8181C040
8101C040
8303C0C0
8303C080
83058180
830D8100
83998200
41F18400
41E0F800
20000000
30000000
18000000
06030000
01FC0000
ENDCHAR
STARTCHAR A
ENCODING 65
SWIDTH 744 0
DWIDTH 25 0
BBX 25 25 0 0
BITMAP
00080000
00080000
001C0000
001C0000
003E0000
002E0000
006F0000
00470000
00470000
00838000
00838000
0103C000
0101C000
0101C000
0200E000
0200E000
07FFF000
04007000
04007000
08003800
08003800
10003C00
10001C00
30001E00
FC00FF80
ENDCHAR
STARTCHAR B
ENCODING 66
SWIDTH 609 0
DWIDTH 21 0
BBX 18 25 1 0
BITMAP
FFF800
3C1E00
1C0700
1C0380
1C0380
1C0380
1C0380
1C0380
1C0300
1C0700
1C0E00
1C3800
1FFC00
1C3F00
1C0F80
1C0380
1C03C0
1C01C0
1C01C0
1C01C0
1C01C0
1C03C0
1C0780
3E0F00
FFFC00
ENDCHAR
STARTCHAR C
ENCODING 67
SWIDTH 695 0
DWIDTH 24 0
BBX 20 25 2 0
BITMAP
00FF80
0381F0
0E0070
1C0030
380030
300030
700000
700000
E00000
E00000
E00000
E00000
E00000
E00000
E00000
E00000
700000
700000
700000
380000
3C0000
1E0010
0F8070
03FFE0
00FF00
ENDCHAR
STARTCHAR D
ENCODING 68
SWIDTH 768 0
DWIDTH 26 0
BBX 24 25 1 0
BITMAP
FFFF00
3C03E0
1C00F0
1C0038
1C001C
1C000E
1C000E
1C000E
1C0007
1C0007
1C0007
1C0007
1C0007
1C0007
1C0007
1C0007
1C0006
1C000E
1C000E
1C000C
1C001C
1C0038
1C0070
3E03C0
FFFF00
ENDCHAR
STARTCHAR E
ENCODING 69
SWIDTH 566 0
DWIDTH 19 0
BBX 17 25 1 0
BITMAP
FFFF00
1C0700
1C0300
1C0300
1C0000
1C0000
1C0000
1C0000
1C0000
1C0000
1C0400
1C0400
1FFC00
1C0400
1C0400
1C0000
1C0000
1C0000
1C0000
1C0000
1C0000
1C0180
1C0180
3E0380
FFFF80
ENDCHAR
STARTCHAR F
ENCODING 70
SWIDTH 548 0
DWIDTH 19 0
BBX 16 25 1 0
BITMAP
FFFF
1C07
1C03
1C03
1C00
1C00
1C00
1C00
1C00
1C00
1C04
1C04
1FFC
1C04
1C04
1C00
1C00
1C00
1C00
1C00
1C00
1C00
1C00
3E00
FFC0
ENDCHAR
STARTCHAR G
ENCODING 71
SWIDTH 732 0
DWIDTH 25 0
BBX 23 25 2 0
BITMAP
00FF80
0781F0
0E0070
1C0030
380030
700030
700000
700000
E00000
E00000
E00000
E00000
E00000
E00000
E003FE
E000F8
600070
700070
700070
380070
380070
1C0070
0E0070
03C070
00FF80
ENDCHAR
STARTCHAR H
ENCODING 72
SWIDTH 771 0
DWIDTH 26 0
BBX 25 25 1 0
BITMAP
FF80FF80
3E003E00
1C001C00
1C001C00
1C001C00
1C001C00
1C001C00
1C001C00
1C001C00
1C001C00
1C001C00
1FFFFC00
1C001C00
1C001C00
1C001C00
1C001C00
1C001C00
1C001C00
1C001C00
1C001C00
1C001C00
1C001C00
1C001C00
3E003E00
FF80FF80
ENDCHAR
STARTCHAR I
ENCODING 73
SWIDTH 325 0
DWIDTH 11 0
BBX 9 25 1 0
BITMAP
FF80
3E00
1C00
1C00
1C00
1C00
1C00
1C00
1C00
1C00
1C00
1C00
1C00
1C00
1C00
1C00
1C00
1C00
1C00
1C00
1C00
1C00
1C00
3E00
FF80
ENDCHAR
STARTCHAR J
ENCODING 74
SWIDTH 422 0
DWIDTH 14 0
BBX 13 31 0 -6
BITMAP
0FF8
03E0
01C0
01C0
01C0
01C0
01C0
01C0
01C0
01C0
01C0
01C0
01C0
01C0
01C0
01C0
01C0
01C0
01C0
01C0
01C0
01C0
01C0
01C0
01C0
01C0
C180
C180
C380
E700
FC00
ENDCHAR
STARTCHAR K
ENCODING 75
SWIDTH 708 0
DWIDTH 24 0
BBX 23 25 1 0
BITMAP
FF87F8
3E00E0
1C0180
1C0300
1C0200
1C0400
1C0800
1C1000
1C2000
1C4000
1C8000
1D8000
1FC000
1DE000
1CF000
1C7800
1C3C00
1C1E00
1C1E00
1C0F00
1C0780
1C03C0
1C01E0
3E01F8
FF87FE
ENDCHAR
STARTCHAR L
ENCODING 76
SWIDTH 557 0
DWIDTH 19 0
BBX 18 25 1 0
BITMAP
FF8000
3E0000
1C0000
1C0000
1C0000
1C0000
1C0000
1C0000
1C0000
1C0000
1C0000
1C0000
1C0000
1C0000
1C0000
1C0000
1C0000
1C0000
1C0000
1C0000
1C0000
1C00C0
1C00C0
3E01C0
FFFFC0
ENDCHAR
STARTCHAR M
ENCODING 77
SWIDTH 860 0
DWIDTH 29 0
BBX 28 25 1 0
BITMAP
FE0003F0
3E0007C0
1F000780
1F000780
1B800B80
1B800B80
1BC01B80
19C01380
19C01380
18E02380
18E02380
18F06380
18704380
18704380
18388380
18388380
183D0380
181D0380
181F0380
180E0380
180E0380
180C0380
18040380
3C0007C0
FF001FF0
ENDCHAR
STARTCHAR N
ENCODING 78
SWIDTH 751 0
DWIDTH 26 0
BBX 24 25 1 0
BITMAP
FC007F
3E001C
1E0008
1F0008
1F8008
1BC008
19C008
19E008
18F008
187008
183808
183C08
181E08
180E08
180F08
180788
1803C8
1801C8
1801E8
1800F8
180078
180078
180038
3C0018
FF0008
ENDCHAR
STARTCHAR O
ENCODING 79
SWIDTH 777 0
DWIDTH 26 0
BBX 23 25 2 0
BITMAP
00FE00
0783C0
0E00E0
1C0070
380038
300018
70001C
70001C
E0000E
E0000E
E0000E
E0000E
E0000E
E0000E
E0000E
E0000E
E0000E
70001C
70001C
300018
380038
1C0070
0E00E0
0783C0
00FE00
ENDCHAR
STARTCHAR P
ENCODING 80
SWIDTH 573 0
DWIDTH 19 0
BBX 18 25 1 0
BITMAP
FFFC00
3C0F00
1C0380
1C0180
1C01C0
1C01C0
1C01C0
1C01C0
1C01C0
1C0380
1C0380
1C0700
1C1E00
1FF000
1C0000
1C0000
1C0000
1C0000
1C0000
1C0000
1C0000
1C0000
1C0000
3E0000
FF8000
ENDCHAR
STARTCHAR Q
ENCODING 81
SWIDTH 778 0
DWIDTH 26 0
BBX 28 30 2 -5
BITMAP
00FE0000
0783C000
0E00E000
1C007000
38003800
30001800
70001C00
70001C00
E0000C00
E0000E00
E0000E00
E0000E00
E0000E00
E0000E00
E0000E00
E0000E00
E0000E00
70001C00
70001C00
30001C00
38003800
1C007800
0E00F000
0383E000
00FF8000
00010000
0000E000
00003C00
00001FC0
000007F0
ENDCHAR
STARTCHAR R
ENCODING 82
SWIDTH 679 0
DWIDTH 23 0
BBX 23 25 0 0
BITMAP
FFFC00
3C0F00
1C0380
1C0180
1C01C0
1C01C0
1C01C0
1C01C0
1C01C0
1C0180
1C0380
1C0700
1C1E00
1FF800
1C3C00
1C1C00
1C1E00
1C0F00
1C0700
1C0780
1C0380
1C01C0
1C01E0
3E00F0
FF807E
ENDCHAR
STARTCHAR S
ENCODING 83
SWIDTH 542 0
DWIDTH 18 0
BBX 15 25 2 0
BITMAP
0FF0
181C
700C
600C
E00C
E000
E000
E000
F000
7C00
3F00
1F80
07E0
01F8
007C
003C
001E
000E
000E
C00E
C00C
C00C
E018
F870
3FC0
ENDCHAR
STARTCHAR T
ENCODING 84
SWIDTH 663 0
DWIDTH 23 0
BBX 21 25 1 0
BITMAP
FFFFF8
E07038
C07018
C07018
007000
007000
007000
007000
007000
007000
007000
007000
007000
007000
007000
007000
007000
007000
007000
007000
007000
007000
007000
00F800
03FE00
ENDCHAR
STARTCHAR U
ENCODING 85
SWIDTH 719 0
DWIDTH 24 0
BBX 24 25 0 0
BITMAP
FF80FF
3E003C
1C0018
1C0018
1C0018
1C0018
1C0018
1C0018
1C0018
1C0018
1C0018
1C0018
1C0018
1C0018
1C0018
1C0018
1C0018
1C0018
1C0018
1C0010
0E0030
0E0030
070060
0381C0
00FF00
ENDCHAR
STARTCHAR V
ENCODING 86
SWIDTH 699 0
DWIDTH 24 0
BBX 24 25 0 0
BITMAP
FF803F
3C000C
1C000C
1C0008
0E0008
0E0010
0F0010
070030
070020
038020
038040
03C040
01C040
01E080
00E080
00E100
007100
007100
007A00
003A00
003E00
001C00
001C00
001800
000800
ENDCHAR
STARTCHAR W
ENCODING 87
SWIDTH 925 0
DWIDTH 31 0
BBX 31 25 0 0
BITMAP
FF8180FE
3C018018
3C018010
1C01C010
1C03C010
1E03C020
0E03C020
0E04E020
0E04E040
0F04E040
070CF040
07087040
07087080
03887080
03903880
03903900
03903900
01E01D00
01E01D00
01E01E00
01E00E00
00C00E00
00C00C00
00C00C00
00800400
ENDCHAR
STARTCHAR X
ENCODING 88
SWIDTH 657 0
DWIDTH 22 0
BBX 22 25 0 0
BITMAP
FFC0FC
3E0030
0E0060
0F0040
070080
078180
038100
01C200
01E600
00E400
00F800
007800
007800
007C00
00DC00
008E00
010F00
030700
020780
040380
0C03C0
0801C0
1001E0
3000F0
FE07FC
ENDCHAR
STARTCHAR Y
ENCODING 89
SWIDTH 678 0
DWIDTH 23 0
BBX 23 25 0 0
BITMAP
FFC0FE
3E0018
1E0010
0F0020
070020
078040
0380C0
03C080
01C100
00E100
00F200
007400
007C00
003800
003800
003800
003800
003800
003800
003800
003800
003800
003800
007C00
01FF00
ENDCHAR
STARTCHAR Z
ENCODING 90
SWIDTH 633 0
DWIDTH 21 0
BBX 18 25 1 0
BITMAP
7FFFC0
700380
600780
600700
600E00
000E00
001C00
003C00
003800
007800
00F000
00E000
01E000
01C000
03C000
078000
070000
0F0000
0E0000
1E0000
3C0000
3C00C0
7800C0
7001C0
FFFFC0
ENDCHAR
STARTCHAR bracketleft
ENCODING 91
SWIDTH 316 0
DWIDTH 11 0
BBX 7 32 3 -6
BITMAP
FE
E0
E0
E0
E0
E0
E0
E0
E0
E0
E0
E0
E0
E0
E0
E0
E0
E0
E0
E0
E0
E0
E0
E0
E0
E0
E0
E0
E0
E0
E0
FE
ENDCHAR
STARTCHAR backslash
ENCODING 92
SWIDTH 512 0
DWIDTH 17 0
BBX 17 32 0 -6
BITMAP
C00000
600000
600000
300000
300000
180000
180000
1C0000
0C0000
0E0000
060000
060000
030000
030000
018000
018000
00C000
00C000
006000
006000
003000
003000
003800
001800
001C00
000C00
000C00
000600
000600
000300
000300
000180
ENDCHAR
STARTCHAR bracketright
ENCODING 93
SWIDTH 316 0
DWIDTH 11 0
BBX 7 32 1 -6
BITMAP
FE
0E
0E
0E
0E
0E
0E
0E
0E
0E
0E
0E
0E
0E
0E
0E
0E
0E
0E
0E
0E
0E
0E
0E
0E
0E
0E
0E
0E
0E
0E
FE
ENDCHAR
STARTCHAR asciicircum
ENCODING 94
SWIDTH 608 0
DWIDTH 21 0
BBX 20 21 0 4
BITMAP
002000
006000
006000
00F000
00F000
01F800
019800
039C00
030C00
070E00
060600
060600
0C0300
0C0300
180180
180180
3000C0
3000C0
600060
600060
C00030
ENDCHAR
STARTCHAR underscore
ENCODING 95
SWIDTH 500 0
DWIDTH 17 0
BBX 14 2 2 -3
BITMAP
FFFC
FFFC
ENDCHAR
STARTCHAR grave
ENCODING 96
SWIDTH 602 0
DWIDTH 20 0
BBX 7 5 6 21
BITMAP
F0
38
18
0C
06
ENDCHAR
STARTCHAR a
ENCODING 97
SWIDTH 543 0
DWIDTH 18 0
BBX 17 18 1 0
BITMAP
0FE000
707800
603800
601C00
001C00
001C00
001C00
03FC00
1C1C00
701C00
701C00
E01C00
E01C00
E01C00
F01C00
786C00
7FCE80
1F0780
ENDCHAR
STARTCHAR b
ENCODING 98
SWIDTH 611 0
DWIDTH 21 0
BBX 19 26 0 0
BITMAP
FC0000
3C0000
1C0000
1C0000
1C0000
1C0000
1C0000
1C0000
1C3E00
1CFF80
1D8780
1E01C0
1C01C0
1C00E0
1C00E0
1C00E0
1C00E0
1C00E0
1C00E0
1C00E0
1C00C0
1C01C0
1C01C0
1F0380
19FF00
187C00
ENDCHAR
STARTCHAR c
ENCODING 99
SWIDTH 509 0
DWIDTH 17 0
BBX 14 18 2 0
BITMAP
03F8
0C1C
380C
300C
700C
6000
E000
E000
E000
E000
E000
E000
7000
7000
3800
3E04
0FFC
03F0
ENDCHAR
STARTCHAR d
ENCODING 100
SWIDTH 642 0
DWIDTH 22 0
BBX 19 26 2 0
BITMAP
003F00
000F00
000700
000700
000700
000700
000700
000700
07C700
1FF700
381F00
700700
700700
600700
E00700
E00700
E00700
E00700
E00700
E00700
E00700
700700
700F00
3C3700
3FE780
0F87E0
ENDCHAR
STARTCHAR e
ENCODING 101
SWIDTH 530 0
DWIDTH 18 0
BBX 15 18 1 0
BITMAP
07E0
1C38
301C
700C
600E
600E
E00E
FFFE
E000
E000
E000
E000
7000
7000
3800
1E06
0FFE
03F8
ENDCHAR
STARTCHAR f
ENCODING 102
SWIDTH 404 0
DWIDTH 14 0
BBX 13 27 1 0
BITMAP
03E0
0E38
0C18
0C18
1C18
1C00
1C00
1C00
1C00
FFE0
1C00
1C00
1C00
1C00
1C00
1C00
1C00
1C00
1C00
1C00
1C00
1C00
1C00
1C00
1C00
3E00
FFC0
ENDCHAR
STARTCHAR g
ENCODING 103
SWIDTH 571 0
DWIDTH 19 0
BBX 18 25 1 -7
BITMAP
07FFC0
1C3C00
381C00
381E00
700E00
700E00
700E00
700E00
700E00
381C00
181800
0C3000
1FE000
380000
700000
700000
3FFE00
1FFF00
700780
E00380
E00380
E00380
F00700
381E00
0FF000
ENDCHAR
STARTCHAR h
ENCODING 104
SWIDTH 633 0
DWIDTH 21 0
BBX 21 26 1 0
BITMAP
FC0000
3C0000
1C0000
1C0000
1C0000
1C0000
1C0000
1C0000
1C3E00
1CFF80
1DC380
1F01C0
1C01C0
1C01C0
1C01C0
1C01C0
1C01C0
1C01C0
1C01C0
1C01C0
1C01C0
1C01C0
1C01C0
1C01C0
3E03E0
FF8FF8
ENDCHAR
STARTCHAR i
ENCODING 105
SWIDTH 307 0
DWIDTH 10 0
BBX 9 25 1 0
BITMAP
1C00
1C00
1C00
0000
0000
0000
0000
FC00
3C00
1C00
1C00
1C00
1C00
1C00
1C00
1C00
1C00
1C00
1C00
1C00
1C00
1C00
1C00
3E00
FF80
ENDCHAR
STARTCHAR j
ENCODING 106
SWIDTH 346 0
DWIDTH 12 0
BBX 10 32 0 -7
BITMAP
01C0
01C0
01C0
0000
0000
0000
0000
0FC0
03C0
01C0
01C0
01C0
01C0
01C0
01C0
01C0
01C0
01C0
01C0
01C0
01C0
01C0
01C0
01C0
01C0
01C0
01C0
C1C0
C1C0
C180
E300
FE00
ENDCHAR
STARTCHAR k
ENCODING 107
SWIDTH 599 0
DWIDTH 20 0
BBX 20 26 0 0
BITMAP
FC0000
3C0000
1C0000
1C0000
1C0000
1C0000
1C0000
1C0000
1C1FE0
1C0300
1C0600
1C0C00
1C1000
1C2000
1C4000
1D8000
1FC000
1DE000
1CF000
1C7800
1C3C00
1C1E00
1C0F00
1C0F80
3E07C0
FF83F0
ENDCHAR
STARTCHAR l
ENCODING 108
SWIDTH 313 0
DWIDTH 11 0
BBX 9 26 1 0
BITMAP
FC00
3C00
1C00
1C00
1C00
1C00
1C00
1C00
1C00
1C00
1C00
1C00
1C00
1C00
1C00
1C00
1C00
1C00
1C00
1C00
1C00
1C00
1C00
1C00
3E00
FF80
ENDCHAR
STARTCHAR m
ENCODING 109
SWIDTH 946 0
DWIDTH 32 0
BBX 31 18 1 0
BITMAP
FC3E0780
3CFF1FE0
1D8730E0
1E03C070
1C038070
1C038070
1C038070
1C038070
1C038070
1C038070
1C038070
1C038070
1C038070
1C038070
1C038070
1C038070
3E07C0F8
FF9FF3FE
ENDCHAR
STARTCHAR n
ENCODING 110
SWIDTH 633 0
DWIDTH 21 0
BBX 21 18 1 0
BITMAP
FC3E00
3CFF80
1DC380
1F01C0
1C01C0
1C01C0
1C01C0
1C01C0
1C01C0
1C01C0
1C01C0
1C01C0
1C01C0
1C01C0
1C01C0
1C01C0
3E03E0
FF8FF8
ENDCHAR
STARTCHAR o
ENCODING 111
SWIDTH 602 0
DWIDTH 20 0
BBX 17 18 2 0
BITMAP
07F000
1C1C00
380E00
700700
700700
E00380
E00380
E00380
E00380
E00380
E00380
E00380
E00380
700700
700700
380E00
1C1C00
07F000
ENDCHAR
STARTCHAR p
ENCODING 112
SWIDTH 642 0
DWIDTH 22 0
BBX 19 25 1 -7
BITMAP
FC3E00
3CFF80
1D8780
1E01C0
1C01C0
1C00E0
1C00E0
1C00E0
1C00E0
1C00E0
1C00E0
1C00E0
1C00C0
1C01C0
1C01C0
1F0380
1DFF00
1C7C00
1C0000
1C0000
1C0000
1C0000
1C0000
3E0000
FF8000
ENDCHAR
STARTCHAR q
ENCODING 113
SWIDTH 617 0
DWIDTH 21 0
BBX 19 25 2 -7
BITMAP
07C700
1FF700
381F00
700700
700700
600700
E00700
E00700
E00700
E00700
E00700
E00700
E00700
700700
700F00
3C3700
3FE700
0F8700
000700
000700
000700
000700
000700
000F80
003FE0
ENDCHAR
STARTCHAR r
ENCODING 114
SWIDTH 440 0
DWIDTH 15 0
BBX 13 18 1 0
BITMAP
FC78
3CF8
1D18
1E18
1C18
1C00
1C00
1C00
1C00
1C00
1C00
1C00
1C00
1C00
1C00
1C00
3E00
FF80
ENDCHAR
STARTCHAR s
ENCODING 115
SWIDTH 504 0
DWIDTH 17 0
BBX 13 18 2 0
BITMAP
1FC0
3070
6030
E030
E030
E000
F800
7E00
3F80
0FE0
03F0
0078
C038
C038
C038
E070
F0E0
3F80
ENDCHAR
STARTCHAR t
ENCODING 116
SWIDTH 392 0
DWIDTH 13 0
BBX 11 23 1 0
BITMAP
0C00
1C00
1C00
1C00
1C00
FFE0
1C00
1C00
1C00
1C00
1C00
1C00
1C00
1C00
1C00
1C00
1C00
1C00
1C00
1C00
1C00
0E00
07E0
ENDCHAR
STARTCHAR u
ENCODING 117
SWIDTH 633 0
DWIDTH 21 0
BBX 21 18 0 0
BITMAP
FC0FC0
3C03C0
1C01C0
1C01C0
1C01C0
1C01C0
1C01C0
1C01C0
1C01C0
1C01C0
1C01C0
1C01C0
1C01C0
1C01C0
1C07C0
0E0DC0
0FF9E0
03E1F8
ENDCHAR
STARTCHAR v
ENCODING 118
SWIDTH 545 0
DWIDTH 19 0
BBX 19 18 0 0
BITMAP
FF03E0
7800C0
3C0080
1C0180
1C0100
0E0300
0E0200
0F0200
070400
078400
038800
038800
01D000
01D000
01E000
00E000
00C000
004000
ENDCHAR
STARTCHAR w
ENCODING 119
SWIDTH 795 0
DWIDTH 27 0
BBX 27 18 0 0
BITMAP
FF0207E0
780600C0
38070080
380F0080
3C0F8100
1C0B8100
1C138100
1E13C200
0E31C200
0E21C600
0F20E400
0740E400
0740F800
07C07800
03807800
03803000
03003000
01003000
ENDCHAR
STARTCHAR x
ENCODING 120
SWIDTH 557 0
DWIDTH 19 0
BBX 19 18 0 0
BITMAP
FF07C0
7C0180
1E0300
1E0200
0F0400
078800
039800
01D000
01E000
00F000
017800
027800
043C00
0C1E00
080F00
100F00
700780
FC1FE0
ENDCHAR
STARTCHAR y
ENCODING 121
SWIDTH 551 0
DWIDTH 19 0
BBX 19 25 0 -7
BITMAP
FF03E0
3C00C0
3C0080
1C0180
1C0100
0E0100
0E0200
0F0200
070400
078400
038C00
038800
01C800
01D000
01F000
00E000
00E000
004000
004000
00C000
018000
038000
070000
0F0000
1E0000
ENDCHAR
STARTCHAR z
ENCODING 122
SWIDTH 595 0
DWIDTH 20 0
BBX 15 18 3 0
BITMAP
FFFE
E03C
C038
C078
00F0
00E0
01E0
03C0
0380
0780
0F00
0E00
1E00
3C00
3806
7806
F00E
FFFE
ENDCHAR
STARTCHAR braceleft
ENCODING 123
SWIDTH 343 0
DWIDTH 12 0
BBX 9 32 1 -6
BITMAP
0380
0400
0800
1800
1800
1800
1800
1C00
1C00
0C00
0C00
0C00
0C00
0800
0800
1000
F000
1800
0800
0C00
0C00
0C00
0C00
1C00
1C00
1C00
1800
1800
1800
0800
0400
0380
ENDCHAR
STARTCHAR bar
ENCODING 124
SWIDTH 241 0
DWIDTH 8 0
BBX 2 32 3 -6
BITMAP
C0
C0
C0
C0
C0
C0
C0
C0
C0
C0
C0
C0
C0
C0
C0
C0
C0
C0
C0
C0
C0
C0
C0
C0
C0
C0
C0
C0
C0
C0
C0
C0
ENDCHAR
STARTCHAR braceright
ENCODING 125
SWIDTH 343 0
DWIDTH 12 0
BBX 9 32 2 -6
BITMAP
E000
1000
0800
0C00
0C00
0C00
0C00
1C00
1C00
1C00
1800
1800
1800
0800
0800
0400
0780
0C00
0800
1800
1800
1800
1800
1C00
1C00
1C00
0C00
0C00
0C00
0800
1000
E000
ENDCHAR
STARTCHAR asciitilde
ENCODING 126
SWIDTH 608 0
DWIDTH 21 0
BBX 20 7 0 6
BITMAP
1E0000
3F8010
63C010
40F030
C03860
801FE0
800780
ENDCHAR
STARTCHAR space
ENCODING 160
SWIDTH 333 0
DWIDTH 10 0
BBX 1 1 0 0
BITMAP
00
ENDCHAR
STARTCHAR exclamdown
ENCODING 161
SWIDTH 265 0
DWIDTH 9 0
BBX 3 25 3 -7
BITMAP
E0
E0
E0
00
00
00
00
40
40
40
40
40
40
E0
E0
E0
E0
E0
E0
E0
E0
E0
E0
E0
E0
ENDCHAR
STARTCHAR cent
ENCODING 162
SWIDTH 608 0
DWIDTH 21 0
BBX 13 25 3 0
BITMAP
0100
0100
0100
07F0
1D38
3918
7118
7118
6100
E100
E100
E100
E100
E100
E100
E100
6100
7100
3900
3D00
1F08
07F0
0100
0100
0100
ENDCHAR
STARTCHAR sterling
ENCODING 163
SWIDTH 608 0
DWIDTH 21 0
BBX 14 25 4 0
BITMAP
01F0
061C
0E0C
0C0C
1C0C
1C00
1C00
1C00
1C00
1C00
1C00
1C00
7FC0
1C00
1C00
1C00
1C00
1C00
1C00
1800
1800
3000
C000
FFFC
FFFC
ENDCHAR
STARTCHAR currency
ENCODING 164
SWIDTH 608 0
DWIDTH 21 0
BBX 19 21 1 2
BITMAP
800020
400040
61F0C0
33F980
160D00
0C0600
180300
180300
300180
300180
300180
300180
300180
180300
180300
0C0600
0F1E00
17FD00
21F080
400040
800020
ENDCHAR
STARTCHAR yen
ENCODING 165
SWIDTH 608 0
DWIDTH 21 0
BBX 23 25 0 0
BITMAP
FFC0FE
3E0038
1E0070
0F0060
0780E0
0381C0
03C180
01E300
00E700
00F600
007C00
003C00
07FFC0
003800
003800
003800
003800
07FFC0
003800
003800
003800
003800
003800
007C00
01FF00
ENDCHAR
STARTCHAR brokenbar
ENCODING 166
SWIDTH 241 0
DWIDTH 8 0
BBX 2 32 3 -6
BITMAP
C0
C0
C0
C0
C0
C0
C0
C0
C0
C0
C0
C0
C0
C0
C0
00
00
C0
C0
C0
C0
C0
C0
C0
C0
C0
C0
C0
C0
C0
C0
C0
ENDCHAR
STARTCHAR section
ENCODING 167
SWIDTH 608 0
DWIDTH 21 0
BBX 14 31 3 -6
BITMAP
0FE0
3878
7018
6018
E018
E000
E000
F000
7800
7E00
1F80
37E0
61F0
E0F8
E038
E018
F018
F818
7E10
3FB0
0FE0
03F0
00F8
003C
001C
001C
C01C
C01C
E038
F070
3FC0
ENDCHAR
STARTCHAR dieresis
ENCODING 168
SWIDTH 602 0
DWIDTH 20 0
BBX 9 3 6 22
BITMAP
E380
E380
E380
ENDCHAR
STARTCHAR copyright
ENCODING 169
SWIDTH 855 0
DWIDTH 29 0
BBX 26 25 2 0
BITMAP
007F8000
01C0E000
06001800
0C000C00
18000600
301F8300
6070C180
40E04080
40C04080
81800040
81800040
81800040
81800040
81800040
81800040
81800040
40C00080
40600080
60304180
301F8300
18000600
0C000C00
06001800
01C0E000
007F8000
ENDCHAR
STARTCHAR ordfeminine
ENCODING 170
SWIDTH 428 0
DWIDTH 15 0
BBX 13 14 1 11
BITMAP
3F80
61C0
40E0
40E0
00E0
00E0
1FE0
78E0
E0E0
E0E0
E0E0
F1E0
7FF8
3C70
ENDCHAR
STARTCHAR guillemotleft
ENCODING 171
SWIDTH 530 0
DWIDTH 18 0
BBX 14 16 2 1
BITMAP
0304
060C
0618
0C30
1870
38E0
70E0
F3C0
71C0
70E0
38E0
1870
0C30
0618
060C
0304
ENDCHAR
STARTCHAR logicalnot
ENCODING 172
SWIDTH 608 0
DWIDTH 21 0
BBX 20 9 0 5
BITMAP
FFFFF0
FFFFF0
000030
000030
000030
000030
000030
000030
000030
ENDCHAR
STARTCHAR hyphen
ENCODING 173
SWIDTH 325 0
DWIDTH 11 0
BBX 8 2 2 10
BITMAP
FF
FF
ENDCHAR
STARTCHAR registered
ENCODING 174
SWIDTH 608 0
DWIDTH 21 0
BBX 14 16 3 9
BITMAP
0F80
1860
2010
4018
4F88
8444
8444
8444
8444
8784
8484
4488
6C78
2010
1860
0780
ENDCHAR
STARTCHAR macron
ENCODING 175
SWIDTH 602 0
DWIDTH 20 0
BBX 9 2 6 22
BITMAP
FF80
FF80
ENDCHAR
STARTCHAR degree
ENCODING 176
SWIDTH 259 0
DWIDTH 9 0
BBX 6 6 1 19
BITMAP
78
CC
84
84
CC
78
ENDCHAR
STARTCHAR plusminus
ENCODING 177
SWIDTH 608 0
DWIDTH 21 0
BBX 20 21 0 0
BITMAP
006000
006000
006000
006000
006000
006000
006000
FFFFF0
FFFFF0
006000
006000
006000
006000
006000
006000
006000
000000
000000
000000
FFFFF0
FFFFF0
ENDCHAR
STARTCHAR twosuperior
ENCODING 178
SWIDTH 365 0
DWIDTH 12 0
BBX 9 15 -20 10
BITMAP
7E00
C300
8180
8180
0180
0180
0300
0600
0C00
1000
2000
4000
4000
FF80
FF80
ENDCHAR
STARTCHAR threesuperior
ENCODING 179
SWIDTH 365 0
DWIDTH 12 0
BBX 9 15 -20 10
BITMAP
FE00
C300
8180
0180
0180
0100
0200
7E00
0700
0180
0180
0180
8180
C300
FC00
ENDCHAR
STARTCHAR acute
ENCODING 180
SWIDTH 602 0
DWIDTH 20 0
BBX 7 5 7 21
BITMAP
1E
38
30
60
C0
ENDCHAR
STARTCHAR mu
ENCODING 181
SWIDTH 626 0
DWIDTH 21 0
BBX 21 24 0 -6
BITMAP
FC0FC0
3C03C0
1C01C0
1C01C0
1C01C0
1C01C0
1C01C0
1C01C0
1C01C0
1C01C0
1C01C0
1C01C0
1C01C0
1C01C0
1C03C0
1E0DC0
1FF9E0
1FE1F8
1C0000
1C0000
1C0000
1C0000
1C0000
1C0000
ENDCHAR
STARTCHAR paragraph
ENCODING 182
SWIDTH 608 0
DWIDTH 21 0
BBX 15 31 1 -6
BITMAP
1FFE
7FFE
7F82
FF82
FF82
FF82
FF82
FF82
FF82
7F82
3F82
1F82
0782
0082
0082
0082
0082
0082
0082
0082
0082
0082
0082
0082
0082
0082
0082
0082
0082
0082
0082
ENDCHAR
STARTCHAR periodcentered
ENCODING 183
SWIDTH 608 0
DWIDTH 21 0
BBX 3 3 9 9
BITMAP
E0
E0
E0
ENDCHAR
STARTCHAR cedilla
ENCODING 184
SWIDTH 602 0
DWIDTH 20 0
BBX 5 8 8 -7
BITMAP
20
60
60
30
18
18
38
F0
ENDCHAR
STARTCHAR onesuperior
ENCODING 185
SWIDTH 365 0
DWIDTH 12 0
BBX 8 15 -21 10
BITMAP
F8
18
18
18
18
18
18
18
18
18
18
18
18
18
FF
ENDCHAR
STARTCHAR ordmasculine
ENCODING 186
SWIDTH 428 0
DWIDTH 15 0
BBX 12 14 1 11
BITMAP
1F80
39C0
70E0
6060
E070
E070
E070
E070
E070
E070
6060
70E0
39C0
1F80
ENDCHAR
STARTCHAR guillemotright
ENCODING 187
SWIDTH 530 0
DWIDTH 18 0
BBX 14 16 2 1
BITMAP
8300
C180
6180
30C0
3860
1C70
1C38
0E38
0F3C
1C38
1C70
3860
30C0
6180
C180
8300
ENDCHAR
STARTCHAR onequarter
ENCODING 188
SWIDTH 766 0
DWIDTH 26 0
BBX 23 25 6 0
BITMAP
F80038
180070
180060
1800C0
1801C0
180380
180300
180600
180E00
181C00
181818
183038
187078
18E058
FFC098
018118
038218
070618
060C18
0C0FFE
1C0018
380018
300018
600018
E0007E
ENDCHAR
STARTCHAR onehalf
ENCODING 189
SWIDTH 766 0
DWIDTH 26 0
BBX 22 25 6 0
BITMAP
F80038
180070
180060
1800C0
1801C0
180380
180300
180600
180E00
181C00
181BF0
183618
18740C
18E40C
FFC00C
01800C
038018
070030
060060
0C0080
1C0100
380200
300200
6007FC
E007FC
ENDCHAR
STARTCHAR threequarters
ENCODING 190
SWIDTH 766 0
DWIDTH 26 0
BBX 24 25 7 0
BITMAP
FE001C
C30038
818030
018060
0180E0
0101C0
020180
7E0300
070700
018E00
018C0C
01981C
81B83C
C3702C
FC604C
00C08C
01C10C
03830C
03060C
0607FF
0E000C
1C000C
18000C
30000C
70003F
ENDCHAR
STARTCHAR questiondown
ENCODING 191
SWIDTH 480 0
DWIDTH 16 0
BBX 13 25 2 -7
BITMAP
0380
0380
0380
0000
0000
0000
0000
0380
0380
0380
0300
0300
0600
0C00
1800
3000
7000
E000
E000
E018
E018
E018
7018
3878
0FE0
ENDCHAR
STARTCHAR Agrave
ENCODING 192
SWIDTH 744 0
DWIDTH 25 0
BBX 25 32 0 0
BITMAP
00780000
001C0000
000C0000
00060000
00030000
00000000
00000000
00080000
00080000
001C0000
001C0000
003E0000
002E0000
006F0000
00470000
00470000
00838000
00838000
0103C000
0101C000
0101C000
0200E000
0200E000
07FFF000
04007000
04007000
08003800
08003800
10003C00
10001C00
30001E00
FC00FF80
ENDCHAR
STARTCHAR Aacute
ENCODING 193
SWIDTH 744 0
DWIDTH 25 0
BBX 25 32 0 0
BITMAP
000F0000
001C0000
00180000
00300000
00600000
00000000
00000000
00080000
00080000
001C0000
001C0000
003E0000
002E0000
006F0000
00470000
00470000
00838000
00838000
0103C000
0101C000
0101C000
0200E000
0200E000
07FFF000
04007000
04007000
08003800
08003800
10003C00
10001C00
30001E00
FC00FF80
ENDCHAR
STARTCHAR Acircumflex
ENCODING 194
SWIDTH 744 0
DWIDTH 25 0
BBX 25 32 0 0
BITMAP
003E0000
003E0000
00770000
00C18000
0180C000
00000000
00000000
00080000
00080000
001C0000
001C0000
003E0000
002E0000
006F0000
00470000
00470000
00838000
00838000
0103C000
0101C000
0101C000
0200E000
0200E000
07FFF000
04007000
04007000
08003800
08003800
10003C00
10001C00
30001E00
FC00FF80
ENDCHAR
STARTCHAR Atilde
ENCODING 195
SWIDTH 744 0
DWIDTH 25 0
BBX 25 30 0 0
BITMAP
00784000
00FF8000
010F0000
00000000
00000000
00080000
00080000
001C0000
001C0000
003E0000
002E0000
006F0000
00470000
00470000
00838000
00838000
0103C000
0101C000
0101C000
0200E000
0200E000
07FFF000
04007000
04007000
08003800
08003800
10003C00
10001C00
30001E00
FC00FF80
ENDCHAR
STARTCHAR Adieresis
ENCODING 196
SWIDTH 744 0
DWIDTH 25 0
BBX 25 30 0 0
BITMAP
00E38000
00E38000
00E38000
00000000
00000000
00080000
00080000
001C0000
001C0000
003E0000
002E0000
006F0000
00470000
00470000
00838000
00838000
0103C000
0101C000
0101C000
0200E000
0200E000
07FFF000
04007000
04007000
08003800
08003800
10003C00
10001C00
30001E00
FC00FF80
ENDCHAR
STARTCHAR Aring
ENCODING 197
SWIDTH 744 0
DWIDTH 25 0
BBX 25 32 0 0
BITMAP
001C0000
00220000
00220000
00220000
001C0000
00000000
00000000
00080000
00080000
001C0000
001C0000
003E0000
002E0000
006F0000
00470000
00470000
00838000
00838000
0103C000
0101C000
0101C000
0200E000
0200E000
07FFF000
04007000
04007000
08003800
08003800
10003C00
10001C00
30001E00
FC00FF80
ENDCHAR
STARTCHAR AE
ENCODING 198
SWIDTH 919 0
DWIDTH 31 0
BBX 30 25 0 0
BITMAP
0001FFF8
0001C038
0003C018
0005C018
0005C000
0009C000
0009C000
0011C000
0011C000
0021C000
0061C000
0041C020
00C1C020
0081FFE0
0181C020
0301C020
0301C000
07FFC000
0401C000
0801C000
0801C000
1001C00C
3001C00C
2003E01C
FC0FFFFC
ENDCHAR
STARTCHAR Ccedilla
ENCODING 199
SWIDTH 695 0
DWIDTH 24 0
BBX 20 32 2 -7
BITMAP
00FF80
0381F0
0E0070
1C0030
380030
300030
700000
700000
E00000
E00000
E00000
E00000
E00000
E00000
E00000
E00000
700000
700000
700000
380000
3C0000
1E0010
0F8070
03FFE0
00FF00
006000
006000
003000
001800
001800
003800
00F000
ENDCHAR
STARTCHAR Egrave
ENCODING 200
SWIDTH 566 0
DWIDTH 19 0
BBX 17 32 1 0
BITMAP
078000
01C000
00C000
006000
003000
000000
000000
FFFF00
1C0700
1C0300
1C0300
1C0000
1C0000
1C0000
1C0000
1C0000
1C0000
1C0400
1C0400
1FFC00
1C0400
1C0400
1C0000
1C0000
1C0000
1C0000
1C0000
1C0000
1C0180
1C0180
3E0380
FFFF80
ENDCHAR
STARTCHAR Eacute
ENCODING 201
SWIDTH 566 0
DWIDTH 19 0
BBX 17 32 1 0
BITMAP
007800
00E000
00C000
018000
030000
000000
000000
FFFF00
1C0700
1C0300
1C0300
1C0000
1C0000
1C0000
1C0000
1C0000
1C0000
1C0400
1C0400
1FFC00
1C0400
1C0400
1C0000
1C0000
1C0000
1C0000
1C0000
1C0000
1C0180
1C0180
3E0380
FFFF80
ENDCHAR
STARTCHAR Ecircumflex
ENCODING 202
SWIDTH 566 0
DWIDTH 19 0
BBX 17 32 1 0
BITMAP
03E000
03E000
077000
0C1800
180C00
000000
000000
FFFF00
1C0700
1C0300
1C0300
1C0000
1C0000
1C0000
1C0000
1C0000
1C0000
1C0400
1C0400
1FFC00
1C0400
1C0400
1C0000
1C0000
1C0000
1C0000
1C0000
1C0000
1C0180
1C0180
3E0380
FFFF80
ENDCHAR
STARTCHAR Edieresis
ENCODING 203
SWIDTH 566 0
DWIDTH 19 0
BBX 17 30 1 0
BITMAP
0E3800
0E3800
0E3800
000000
000000
FFFF00
1C0700
1C0300
1C0300
1C0000
1C0000
1C0000
1C0000
1C0000
1C0000
1C0400
1C0400
1FFC00
1C0400
1C0400
1C0000
1C0000
1C0000
1C0000
1C0000
1C0000
1C0180
1C0180
3E0380
FFFF80
ENDCHAR
STARTCHAR Igrave
ENCODING 204
SWIDTH 325 0
DWIDTH 11 0
BBX 9 32 1 0
BITMAP
7800
1C00
0C00
0600
0300
0000
0000
FF80
3E00
1C00
1C00
1C00
1C00
1C00
1C00
1C00
1C00
1C00
1C00
1C00
1C00
1C00
1C00
1C00
1C00
1C00
1C00
1C00
1C00
1C00
3E00
FF80
ENDCHAR
STARTCHAR Iacute
ENCODING 205
SWIDTH 325 0
DWIDTH 11 0
BBX 9 32 1 0
BITMAP
0F00
1C00
1800
3000
6000
0000
0000
FF80
3E00
1C00
1C00
1C00
1C00
1C00
1C00
1C00
1C00
1C00
1C00
1C00
1C00
1C00
1C00
1C00
1C00
1C00
1C00
1C00
1C00
1C00
3E00
FF80
ENDCHAR
STARTCHAR Icircumflex
ENCODING 206
SWIDTH 325 0
DWIDTH 11 0
BBX 11 32 2 0
BITMAP
1F00
1F00
3B80
60C0
C060
0000
0000
7FC0
1F00
0E00
0E00
0E00
0E00
0E00
0E00
0E00
0E00
0E00
0E00
0E00
0E00
0E00
0E00
0E00
0E00
0E00
0E00
0E00
0E00
0E00
1F00
7FC0
ENDCHAR
STARTCHAR Idieresis
ENCODING 207
SWIDTH 325 0
DWIDTH 11 0
BBX 9 30 1 0
BITMAP
E380
E380
E380
0000
0000
FF80
3E00
1C00
1C00
1C00
1C00
1C00
1C00
1C00
1C00
1C00
1C00
1C00
1C00
1C00
1C00
1C00
1C00
1C00
1C00
1C00
1C00
1C00
3E00
FF80
ENDCHAR
STARTCHAR Eth
ENCODING 208
SWIDTH 768 0
DWIDTH 26 0
BBX 23 25 1 0
BITMAP
FFFF00
3C07C0
1C00E0
1C0070
1C0038
1C001C
1C001C
1C001C
1C000E
1C000E
1C000E
1C000E
FFF00E
1C000E
1C000E
1C000E
1C000C
1C001C
1C001C
1C0018
1C0038
1C0070
1C00E0
3E03C0
FFFE00
ENDCHAR
STARTCHAR Ntilde
ENCODING 209
SWIDTH 751 0
DWIDTH 26 0
BBX 24 30 1 0
BITMAP
007840
00FF80
010F00
000000
000000
FC007F
3E001C
1E0008
1F0008
1F8008
1BC008
19C008
19E008
18F008
187008
183808
183C08
181E08
180E08
180F08
180788
1803C8
1801C8
1801E8
1800F8
180078
180078
180038
3C0018
FF0008
ENDCHAR
STARTCHAR Ograve
ENCODING 210
SWIDTH 777 0
DWIDTH 26 0
BBX 23 32 2 0
BITMAP
00F000
003800
001800
000C00
000600
000000
000000
00FE00
0783C0
0E00E0
1C0070
380038
300018
70001C
70001C
E0000E
E0000E
E0000E
E0000E
E0000E
E0000E
E0000E
E0000E
E0000E
70001C
70001C
300018
380038
1C0070
0E00E0
0783C0
00FE00
ENDCHAR
STARTCHAR Oacute
ENCODING 211
SWIDTH 777 0
DWIDTH 26 0
BBX 23 32 2 0
BITMAP
001E00
003800
003000
006000
00C000
000000
000000
00FE00
0783C0
0E00E0
1C0070
380038
300018
70001C
70001C
E0000E
E0000E
E0000E
E0000E
E0000E
E0000E
E0000E
E0000E
E0000E
70001C
70001C
300018
380038
1C0070
0E00E0
0783C0
00FE00
ENDCHAR
STARTCHAR Ocircumflex
ENCODING 212
SWIDTH 777 0
DWIDTH 26 0
BBX 23 32 2 0
BITMAP
007C00
007C00
00EE00
018300
030180
000000
000000
00FE00
0783C0
0E00E0
1C0070
380038
300018
70001C
70001C
E0000E
E0000E
E0000E
E0000E
E0000E
E0000E
E0000E
E0000E
E0000E
70001C
70001C
300018
380038
1C0070
0E00E0
0783C0
00FE00
ENDCHAR
STARTCHAR Otilde
ENCODING 213
SWIDTH 777 0
DWIDTH 26 0
BBX 23 30 2 0
BITMAP
00F080
01FF00
021E00
000000
000000
00FE00
0783C0
0E00E0
1C0070
380038
300018
70001C
70001C
E0000E
E0000E
E0000E
E0000E
E0000E
E0000E
E0000E
E0000E
E0000E
70001C
70001C
300018
380038
1C0070
0E00E0
0783C0
00FE00
ENDCHAR
STARTCHAR Odieresis
ENCODING 214
SWIDTH 777 0
DWIDTH 26 0
BBX 23 30 2 0
BITMAP
01C700
01C700
01C700
000000
000000
00FE00
0783C0
0E00E0
1C0070
380038
300018
70001C
70001C
E0000E
E0000E
E0000E
E0000E
E0000E
E0000E
E0000E
E0000E
E0000E
70001C
70001C
300018
380038
1C0070
0E00E0
0783C0
00FE00
ENDCHAR
STARTCHAR multiply
ENCODING 215
SWIDTH 608 0
DWIDTH 21 0
BBX 20 21 0 0
BITMAP
400020
E00070
7000E0
3801C0
1C0380
0E0700
060E00
030C00
019800
00F000
006000
00F000
01F800
039C00
070E00
0E0700
1C0380
3801C0
7000E0
E00070
400020
ENDCHAR
STARTCHAR Oslash
ENCODING 216
SWIDTH 777 0
DWIDTH 26 0
BBX 23 25 2 0
BITMAP
00FE06
0783C4
0E00E8
1C0078
380038
30003C
70005C
70009C
E0010E
E0020E
E0040E
E0080E
E0100E
E0200E
E0400E
E0C00E
E1800E
73001C
76001C
7C0018
380038
3C0070
3E00E0
6783C0
C0FE00
ENDCHAR
STARTCHAR Ugrave
ENCODING 217
SWIDTH 719 0
DWIDTH 24 0
BBX 24 32 0 0
BITMAP
00F000
003800
001800
000C00
000600
000000
000000
FF80FF
3E003C
1C0018
1C0018
1C0018
1C0018
1C0018
1C0018
1C0018
1C0018
1C0018
1C0018
1C0018
1C0018
1C0018
1C0018
1C0018
1C0018
1C0018
1C0010
0E0030
0E0030
070060
0381C0
00FF00
ENDCHAR
STARTCHAR Uacute
ENCODING 218
SWIDTH 719 0
DWIDTH 24 0
BBX 24 32 0 0
BITMAP
000F00
001C00
001800
003000
006000
000000
000000
FF80FF
3E003C
1C0018
1C0018
1C0018
1C0018
1C0018
1C0018
1C0018
1C0018
1C0018
1C0018
1C0018
1C0018
1C0018
1C0018
1C0018
1C0018
1C0018
1C0010
0E0030
0E0030
070060
0381C0
00FF00
ENDCHAR
STARTCHAR Ucircumflex
ENCODING 219
SWIDTH 719 0
DWIDTH 24 0
BBX 24 32 0 0
BITMAP
003E00
003E00
007700
00C180
0180C0
000000
000000
FF80FF
3E003C
1C0018
1C0018
1C0018
1C0018
1C0018
1C0018
1C0018
1C0018
1C0018
1C0018
1C0018
1C0018
1C0018
1C0018
1C0018
1C0018
1C0018
1C0010
0E0030
0E0030
070060
0381C0
00FF00
ENDCHAR
STARTCHAR Udieresis
ENCODING 220
SWIDTH 719 0
DWIDTH 24 0
BBX 24 30 0 0
BITMAP
00E380
00E380
00E380
000000
000000
FF80FF
3E003C
1C0018
1C0018
1C0018
1C0018
1C0018
1C0018
1C0018
1C0018
1C0018
1C0018
1C0018
1C0018
1C0018
1C0018
1C0018
1C0018
1C0018
1C0010
0E0030
0E0030
070060
0381C0
00FF00
ENDCHAR
STARTCHAR Yacute
ENCODING 221
SWIDTH 678 0
DWIDTH 23 0
BBX 23 32 0 0
BITMAP
001E00
003800
003000
006000
00C000
000000
000000
FFC0FE
3E0018
1E0010
0F0020
070020
078040
0380C0
03C080
01C100
00E100
00F200
007400
007C00
003800
003800
003800
003800
003800
003800
003800
003800
003800
003800
007C00
01FF00
ENDCHAR
STARTCHAR Thorn
ENCODING 222
SWIDTH 573 0
DWIDTH 19 0
BBX 18 25 1 0
BITMAP
FF8000
3E0000
1C0000
1C0000
1C0000
1FF800
1C0F00
1C0380
1C0380
1C01C0
1C01C0
1C01C0
1C01C0
1C01C0
1C01C0
1C0380
1C0380
1C0700
1C1C00
1FF000
1C0000
1C0000
1C0000
3E0000
FF8000
ENDCHAR
STARTCHAR germandbls
ENCODING 223
SWIDTH 614 0
DWIDTH 21 0
BBX 19 27 1 0
BITMAP
03F800
071E00
0E0E00
0C0700
1C0700
1C0700
1C0600
1C0400
1C0C00
1C1800
1C1000
1C3000
1C3800
1C3800
1C3C00
1C1E00
1C0F00
1C0780
1C03C0
1C01E0
1C00E0
1C0060
1C0060
1C3060
1C3040
3E38C0
FFBF00
ENDCHAR
STARTCHAR agrave
ENCODING 224
SWIDTH 543 0
DWIDTH 18 0
BBX 17 25 1 0
BITMAP
0F0000
038000
018000
00C000
006000
000000
000000
0FE000
707800
603800
601C00
001C00
001C00
001C00
03FC00
1C1C00
701C00
701C00
E01C00
E01C00
E01C00
F01C00
786C00
7FCE80
1F0780
ENDCHAR
STARTCHAR aacute
ENCODING 225
SWIDTH 543 0
DWIDTH 18 0
BBX 17 25 1 0
BITMAP
00F000
01C000
018000
030000
060000
000000
000000
0FE000
707800
603800
601C00
001C00
001C00
001C00
03FC00
1C1C00
701C00
701C00
E01C00
E01C00
E01C00
F01C00
786C00
7FCE80
1F0780
ENDCHAR
STARTCHAR acircumflex
ENCODING 226
SWIDTH 543 0
DWIDTH 18 0
BBX 17 25 1 0
BITMAP
03E000
03E000
077000
0C1800
180C00
000000
000000
0FE000
707800
603800
601C00
001C00
001C00
001C00
03FC00
1C1C00
701C00
701C00
E01C00
E01C00
E01C00
F01C00
786C00
7FCE80
1F0780
ENDCHAR
STARTCHAR atilde
ENCODING 227
SWIDTH 543 0
DWIDTH 18 0
BBX 17 23 1 0
BITMAP
078400
0FF800
10F000
000000
000000
0FE000
707800
603800
601C00
001C00
001C00
001C00
03FC00
1C1C00
701C00
701C00
E01C00
E01C00
E01C00
F01C00
786C00
7FCE80
1F0780
ENDCHAR
STARTCHAR adieresis
ENCODING 228
SWIDTH 543 0
DWIDTH 18 0
BBX 17 23 1 0
BITMAP
0E3800
0E3800
0E3800
000000
000000
0FE000
707800
603800
601C00
001C00
001C00
001C00
03FC00
1C1C00
701C00
701C00
E01C00
E01C00
E01C00
F01C00
786C00
7FCE80
1F0780
ENDCHAR
STARTCHAR aring
ENCODING 229
SWIDTH 543 0
DWIDTH 18 0
BBX 17 25 1 0
BITMAP
01C000
022000
022000
022000
01C000
000000
000000
0FE000
707800
603800
601C00
001C00
001C00
001C00
03FC00
1C1C00
701C00
701C00
E01C00
E01C00
E01C00
F01C00
786C00
7FCE80
1F0780
ENDCHAR
STARTCHAR ae
ENCODING 230
SWIDTH 819 0
DWIDTH 28 0
BBX 25 18 1 0
BITMAP
0FE1F800
38730C00
703E0600
601E0300
601C0300
001C0380
001C0380
001C0380
07FFFF80
1C1C0000
701C0000
E01C0000
E01C0000
E01E0000
F01E0000
786F0000
7FC38080
1F01FF00
ENDCHAR
STARTCHAR ccedilla
ENCODING 231
SWIDTH 509 0
DWIDTH 17 0
BBX 14 25 2 -7
BITMAP
03F8
0C1C
380C
300C
700C
6000
E000
E000
E000
E000
E000
E000
7000
7000
3800
3E04
0FFC
03F0
0300
0300
0180
00C0
00C0
01C0
0780
ENDCHAR
STARTCHAR egrave
ENCODING 232
SWIDTH 530 0
DWIDTH 18 0
BBX 15 25 1 0
BITMAP
0F00
0380
0180
00C0
0060
0000
0000
07E0
1C38
301C
700C
600E
600E
E00E
FFFE
E000
E000
E000
E000
7000
7000
3800
1E06
0FFE
03F8
ENDCHAR
STARTCHAR eacute
ENCODING 233
SWIDTH 530 0
DWIDTH 18 0
BBX 15 25 1 0
BITMAP
01E0
0380
0300
0600
0C00
0000
0000
07E0
1C38
301C
700C
600E
600E
E00E
FFFE
E000
E000
E000
E000
7000
7000
3800
1E06
0FFE
03F8
ENDCHAR
STARTCHAR ecircumflex
ENCODING 234
SWIDTH 530 0
DWIDTH 18 0
BBX 15 25 1 0
BITMAP
07C0
07C0
0EE0
1830
3018
0000
0000
07E0
1C38
301C
700C
600E
600E
E00E
FFFE
E000
E000
E000
E000
7000
7000
3800
1E06
0FFE
03F8
ENDCHAR
STARTCHAR edieresis
ENCODING 235
SWIDTH 530 0
DWIDTH 18 0
BBX 15 23 1 0
BITMAP
1C70
1C70
1C70
0000
0000
07E0
1C38
301C
700C
600E
600E
E00E
FFFE
E000
E000
E000
E000
7000
7000
3800
1E06
0FFE
03F8
ENDCHAR
STARTCHAR igrave
ENCODING 236
SWIDTH 307 0
DWIDTH 10 0
BBX 9 25 1 0
BITMAP
F000
3800
1800
0C00
0600
0000
0000
FC00
3C00
1C00
1C00
1C00
1C00
1C00
1C00
1C00
1C00
1C00
1C00
1C00
1C00
1C00
1C00
3E00
FF80
ENDCHAR
STARTCHAR iacute
ENCODING 237
SWIDTH 307 0
DWIDTH 10 0
BBX 9 25 1 0
BITMAP
0F00
1C00
1800
3000
6000
0000
0000
FC00
3C00
1C00
1C00
1C00
1C00
1C00
1C00
1C00
1C00
1C00
1C00
1C00
1C00
1C00
1C00
3E00
FF80
ENDCHAR
STARTCHAR icircumflex
ENCODING 238
SWIDTH 307 0
DWIDTH 10 0
BBX 11 25 2 0
BITMAP
1F00
1F00
3B80
60C0
C060
0000
0000
7E00
1E00
0E00
0E00
0E00
0E00
0E00
0E00
0E00
0E00
0E00
0E00
0E00
0E00
0E00
0E00
1F00
7FC0
ENDCHAR
STARTCHAR idieresis
ENCODING 239
SWIDTH 307 0
DWIDTH 10 0
BBX 9 23 1 0
BITMAP
E380
E380
E380
0000
0000
FC00
3C00
1C00
1C00
1C00
1C00
1C00
1C00
1C00
1C00
1C00
1C00
1C00
1C00
1C00
1C00
3E00
FF80
ENDCHAR
STARTCHAR eth
ENCODING 240
SWIDTH 596 0
DWIDTH 20 0
BBX 17 26 2 0
BITMAP
F81800
1FE000
07C000
03C000
06F000
187000
303800
001C00
07FE00
1C1E00
380F00
300700
700700
600380
E00380
E00380
E00380
E00380
E00380
E00380
600300
700700
700600
380C00
1C1800
07E000
ENDCHAR
STARTCHAR ntilde
ENCODING 241
SWIDTH 633 0
DWIDTH 21 0
BBX 21 23 1 0
BITMAP
01E100
03FE00
043C00
000000
000000
FC3E00
3CFF80
1DC380
1F01C0
1C01C0
1C01C0
1C01C0
1C01C0
1C01C0
1C01C0
1C01C0
1C01C0
1C01C0
1C01C0
1C01C0
1C01C0
3E03E0
FF8FF8
ENDCHAR
STARTCHAR ograve
ENCODING 242
SWIDTH 602 0
DWIDTH 20 0
BBX 17 25 2 0
BITMAP
078000
01C000
00C000
006000
003000
000000
000000
07F000
1C1C00
380E00
700700
700700
E00380
E00380
E00380
E00380
E00380
E00380
E00380
E00380
700700
700700
380E00
1C1C00
07F000
ENDCHAR
STARTCHAR oacute
ENCODING 243
SWIDTH 602 0
DWIDTH 20 0
BBX 17 25 2 0
BITMAP
00F000
01C000
018000
030000
060000
000000
000000
07F000
1C1C00
380E00
700700
700700
E00380
E00380
E00380
E00380
E00380
E00380
E00380
E00380
700700
700700
380E00
1C1C00
07F000
ENDCHAR
STARTCHAR ocircumflex
ENCODING 244
SWIDTH 602 0
DWIDTH 20 0
BBX 17 25 2 0
BITMAP
03E000
03E000
077000
0C1800
180C00
000000
000000
07F000
1C1C00
380E00
700700
700700
E00380
E00380
E00380
E00380
E00380
E00380
E00380
E00380
700700
700700
380E00
1C1C00
07F000
ENDCHAR
STARTCHAR otilde
ENCODING 245
SWIDTH 602 0
DWIDTH 20 0
BBX 17 23 2 0
BITMAP
078400
0FF800
10F000
000000
000000
07F000
1C1C00
380E00
700700
700700
E00380
E00380
E00380
E00380
E00380
E00380
E00380
E00380
700700
700700
380E00
1C1C00
07F000
ENDCHAR
STARTCHAR odieresis
ENCODING 246
SWIDTH 602 0
DWIDTH 20 0
BBX 17 23 2 0
BITMAP
0E3800
0E3800
0E3800
000000
000000
07F000
1C1C00
380E00
700700
700700
E00380
E00380
E00380
E00380
E00380
E00380
E00380
E00380
700700
700700
380E00
1C1C00
07F000
ENDCHAR
STARTCHAR divide
ENCODING 247
SWIDTH 608 0
DWIDTH 21 0
BBX 19 17 1 1
BITMAP
00E000
00E000
00E000
000000
000000
000000
000000
FFFFE0
FFFFE0
000000
000000
000000
000000
000000
00E000
00E000
00E000
ENDCHAR
STARTCHAR oslash
ENCODING 248
SWIDTH 602 0
DWIDTH 20 0
BBX 17 18 2 0
BITMAP
07E180
1E1B00
380E00
780700
700F00
701780
E03380
E06380
E0C380
E18380
E30380
E20380
F40780
780700
700700
380E00
7E3C00
C7F000
ENDCHAR
STARTCHAR ugrave
ENCODING 249
SWIDTH 633 0
DWIDTH 21 0
BBX 21 25 0 0
BITMAP
01E000
007000
003000
001800
000C00
000000
000000
FC0FC0
3C03C0
1C01C0
1C01C0
1C01C0
1C01C0
1C01C0
1C01C0
1C01C0
1C01C0
1C01C0
1C01C0
1C01C0
1C01C0
1C07C0
0E0DC0
0FF9E0
03E1F8
ENDCHAR
STARTCHAR uacute
ENCODING 250
SWIDTH 633 0
DWIDTH 21 0
BBX 21 25 0 0
BITMAP
001E00
003800
003000
006000
00C000
000000
000000
FC0FC0
3C03C0
1C01C0
1C01C0
1C01C0
1C01C0
1C01C0
1C01C0
1C01C0
1C01C0
1C01C0
1C01C0
1C01C0
1C01C0
1C07C0
0E0DC0
0FF9E0
03E1F8
ENDCHAR
STARTCHAR ucircumflex
ENCODING 251
SWIDTH 633 0
DWIDTH 21 0
BBX 21 25 0 0
BITMAP
00F800
00F800
01DC00
030600
060300
000000
000000
FC0FC0
3C03C0
1C01C0
1C01C0
1C01C0
1C01C0
1C01C0
1C01C0
1C01C0
1C01C0
1C01C0
1C01C0
1C01C0
1C01C0
1C07C0
0E0DC0
0FF9E0
03E1F8
ENDCHAR
STARTCHAR udieresis
ENCODING 252
SWIDTH 633 0
DWIDTH 21 0
BBX 21 23 0 0
BITMAP
038E00
038E00
038E00
000000
000000
FC0FC0
3C03C0
1C01C0
1C01C0
1C01C0
1C01C0
1C01C0
1C01C0
1C01C0
1C01C0
1C01C0
1C01C0
1C01C0
1C01C0
1C07C0
0E0DC0
0FF9E0
03E1F8
ENDCHAR
STARTCHAR yacute
ENCODING 253
SWIDTH 551 0
DWIDTH 19 0
BBX 19 32 0 -7
BITMAP
007800
00E000
00C000
018000
030000
000000
000000
FF03E0
3C00C0
3C0080
1C0180
1C0100
0E0100
0E0200
0F0200
070400
078400
038C00
038800
01C800
01D000
01F000
00E000
00E000
004000
004000
00C000
018000
038000
070000
0F0000
1E0000
ENDCHAR
STARTCHAR thorn
ENCODING 254
SWIDTH 642 0
DWIDTH 22 0
BBX 19 31 1 -7
BITMAP
FC0000
3C0000
1C0000
1C0000
1C0000
1C0000
1C3E00
1CFF80
1D8780
1E01C0
1C01C0
1C00E0
1C00E0
1C00E0
1C00E0
1C00E0
1C00E0
1C00E0
1C00C0
1C01C0
1C01C0
1F0380
1DFF00
1C7C00
1C0000
1C0000
1C0000
1C0000
1C0000
3E0000
FF8000
ENDCHAR
STARTCHAR ydieresis
ENCODING 255
SWIDTH 551 0
DWIDTH 19 0
BBX 19 30 0 -7
BITMAP
071C00
071C00
071C00
000000
000000
FF03E0
3C00C0
3C0080
1C0180
1C0100
0E0100
0E0200
0F0200
070400
078400
038C00
038800
01C800
01D000
01F000
00E000
00E000
004000
004000
00C000
018000
038000
070000
0F0000
1E0000
ENDCHAR
STARTCHAR Amacron
ENCODING 256
SWIDTH 744 0
DWIDTH 25 0
BBX 25 28 0 0
BITMAP
00FF8000
00FF8000
00000000
00080000
00080000
001C0000
001C0000
003E0000
002E0000
006F0000
00470000
00470000
00838000
00838000
0103C000
0101C000
0101C000
0200E000
0200E000
07FFF000
04007000
04007000
08003800
08003800
10003C00
10001C00
30001E00
FC00FF80
ENDCHAR
STARTCHAR amacron
ENCODING 257
SWIDTH 543 0
DWIDTH 18 0
BBX 17 21 1 0
BITMAP
0FF800
0FF800
000000
0FE000
707800
603800
601C00
001C00
001C00
001C00
03FC00
1C1C00
701C00
701C00
E01C00
E01C00
E01C00
F01C00
786C00
7FCE80
1F0780
ENDCHAR
STARTCHAR Abreve
ENCODING 258
SWIDTH 744 0
DWIDTH 25 0
BBX 25 31 0 0
BITMAP
01004000
0180C000
00FF8000
007F0000
003E0000
00000000
00080000
00080000
001C0000
001C0000
003E0000
002E0000
006F0000
00470000
00470000
00838000
00838000
0103C000
0101C000
0101C000
0200E000
0200E000
07FFF000
04007000
04007000
08003800
08003800
10003C00
10001C00
30001E00
FC00FF80
ENDCHAR
STARTCHAR abreve
ENCODING 259
SWIDTH 543 0
DWIDTH 18 0
BBX 17 24 1 0
BITMAP
100400
180C00
0FF800
07F000
03E000
000000
0FE000
707800
603800
601C00
001C00
001C00
001C00
03FC00
1C1C00
701C00
701C00
E01C00
E01C00
E01C00
F01C00
786C00
7FCE80
1F0780
ENDCHAR
STARTCHAR Aogonek
ENCODING 260
SWIDTH 744 0
DWIDTH 25 0
BBX 25 31 0 -6
BITMAP
00080000
00080000
001C0000
001C0000
003E0000
002E0000
006F0000
00470000
00470000
00838000
00838000
0103C000
0101C000
0101C000
0200E000
0200E000
07FFF000
04007000
04007000
08003800
08003800
10003C00
10001C00
30001E00
FC00FF80
00000000
00070000
000C0000
001C0000
001C0000
000F8000
ENDCHAR
STARTCHAR aogonek
ENCODING 261
SWIDTH 543 0
DWIDTH 18 0
BBX 17 24 1 -6
BITMAP
0FE000
707800
603800
601C00
001C00
001C00
001C00
03FC00
1C1C00
701C00
701C00
E01C00
E01C00
E01C00
F01C00
786C00
7FCE80
1F0780
000000
01C000
030000
070000
070000
03E000
ENDCHAR
STARTCHAR Cacute
ENCODING 262
SWIDTH 695 0
DWIDTH 24 0
BBX 20 31 2 0
BITMAP
000F00
001C00
001800
003000
006000
000000
00FF80
0381F0
0E0070
1C0030
380030
300030
700000
700000
E00000
E00000
E00000
E00000
E00000
E00000
E00000
E00000
700000
700000
700000
380000
3C0000
1E0010
0F8070
03FFE0
00FF00
ENDCHAR
STARTCHAR cacute
ENCODING 263
SWIDTH 509 0
DWIDTH 17 0
BBX 14 24 2 0
BITMAP
0078
00E0
00C0
0180
0300
0000
03F8
0C1C
380C
300C
700C
6000
E000
E000
E000
E000
E000
E000
7000
7000
3800
3E04
0FFC
03F0
ENDCHAR
STARTCHAR Ccircumflex
ENCODING 264
SWIDTH 695 0
DWIDTH 24 0
BBX 20 31 2 0
BITMAP
00F800
00F800
01DC00
030600
060300
000000
00FF80
0381F0
0E0070
1C0030
380030
300030
700000
700000
E00000
E00000
E00000
E00000
E00000
E00000
E00000
E00000
700000
700000
700000
380000
3C0000
1E0010
0F8070
03FFE0
00FF00
ENDCHAR
STARTCHAR ccircumflex
ENCODING 265
SWIDTH 509 0
DWIDTH 17 0
BBX 14 24 2 0
BITMAP
07C0
07C0
0EE0
1830
3018
0000
03F8
0C1C
380C
300C
700C
6000
E000
E000
E000
E000
E000
E000
7000
7000
3800
3E04
0FFC
03F0
ENDCHAR
STARTCHAR Cdotaccent
ENCODING 266
SWIDTH 695 0
DWIDTH 24 0
BBX 20 29 2 0
BITMAP
007000
007000
007000
000000
00FF80
0381F0
0E0070
1C0030
380030
300030
700000
700000
E00000
E00000
E00000
E00000
E00000
E00000
E00000
E00000
700000
700000
700000
380000
3C0000
1E0010
0F8070
03FFE0
00FF00
ENDCHAR
STARTCHAR cdotaccent
ENCODING 267
SWIDTH 509 0
DWIDTH 17 0
BBX 14 22 2 0
BITMAP
0380
0380
0380
0000
03F8
0C1C
380C
300C
700C
6000
E000
E000
E000
E000
E000
E000
7000
7000
3800
3E04
0FFC
03F0
ENDCHAR
STARTCHAR Ccaron
ENCODING 268
SWIDTH 695 0
DWIDTH 24 0
BBX 20 31 2 0
BITMAP
060300
030600
018C00
00F800
00F800
000000
00FF80
0381F0
0E0070
1C0030
380030
300030
700000
700000
E00000
E00000
E00000
E00000
E00000
E00000
E00000
E00000
700000
700000
700000
380000
3C0000
1E0010
0F8070
03FFE0
00FF00
ENDCHAR
STARTCHAR ccaron
ENCODING 269
SWIDTH 509 0
DWIDTH 17 0
BBX 14 24 2 0
BITMAP
3018
1830
0C60
07C0
07C0
0000
03F8
0C1C
380C
300C
700C
6000
E000
E000
E000
E000
E000
E000
7000
7000
3800
3E04
0FFC
03F0
ENDCHAR
STARTCHAR Dcaron
ENCODING 270
SWIDTH 768 0
DWIDTH 26 0
BBX 24 31 1 0
BITMAP
030180
018300
00C600
007C00
007C00
000000
FFFF00
3C03E0
1C00F0
1C0038
1C001C
1C000E
1C000E
1C000E
1C0007
1C0007
1C0007
1C0007
1C0007
1C0007
1C0007
1C0007
1C0006
1C000E
1C000E
1C000C
1C001C
1C0038
1C0070
3E03C0
FFFF00
ENDCHAR
STARTCHAR dcaron
ENCODING 271
SWIDTH 875 0
DWIDTH 30 0
BBX 26 26 2 0
BITMAP
003F03C0
000F03C0
000703C0
000703C0
000700C0
000700C0
000700C0
00070180
07C70380
1FF70200
381F0000
70070000
70070000
60070000
E0070000
E0070000
E0070000
E0070000
E0070000
E0070000
E0070000
70070000
700F0000
3C370000
3FE78000
0F87E000
ENDCHAR
STARTCHAR Dcroat
ENCODING 272
SWIDTH 768 0
DWIDTH 26 0
BBX 23 25 1 0
BITMAP
FFFF00
3C07C0
1C00E0
1C0070
1C0038
1C001C
1C001C
1C001C
1C000E
1C000E
1C000E
1C000E
FFF00E
1C000E
1C000E
1C000E
1C000C
1C001C
1C001C
1C0018
1C0038
1C0070
1C00E0
3E03C0
FFFE00
ENDCHAR
STARTCHAR dcroat
ENCODING 273
SWIDTH 642 0
DWIDTH 22 0
BBX 19 26 2 0
BITMAP
003F00
000F00
000700
000700
000700
000700
003FE0
003FE0
07C700
1FF700
381F00
700700
700700
600700
E00700
E00700
E00700
E00700
E00700
E00700
E00700
700700
700F00
3C3700
3FE780
0F87E0
ENDCHAR
STARTCHAR Emacron
ENCODING 274
SWIDTH 566 0
DWIDTH 19 0
BBX 17 28 1 0
BITMAP
1FF000
1FF000
000000
FFFF00
1C0700
1C0300
1C0300
1C0000
1C0000
1C0000
1C0000
1C0000
1C0000
1C0400
1C0400
1FFC00
1C0400
1C0400
1C0000
1C0000
1C0000
1C0000
1C0000
1C0000
1C0180
1C0180
3E0380
FFFF80
ENDCHAR
STARTCHAR emacron
ENCODING 275
SWIDTH 530 0
DWIDTH 18 0
BBX 15 21 1 0
BITMAP
1FF0
1FF0
0000
07E0
1C38
301C
700C
600E
600E
E00E
FFFE
E000
E000
E000
E000
7000
7000
3800
1E06
0FFE
03F8
ENDCHAR
STARTCHAR Ebreve
ENCODING 276
SWIDTH 566 0
DWIDTH 19 0
BBX 17 31 1 0
BITMAP
200800
301800
1FF000
0FE000
07C000
000000
FFFF00
1C0700
1C0300
1C0300
1C0000
1C0000
1C0000
1C0000
1C0000
1C0000
1C0400
1C0400
1FFC00
1C0400
1C0400
1C0000
1C0000
1C0000
1C0000
1C0000
1C0000
1C0180
1C0180
3E0380
FFFF80
ENDCHAR
STARTCHAR ebreve
ENCODING 277
SWIDTH 530 0
DWIDTH 18 0
BBX 15 24 1 0
BITMAP
2008
3018
1FF0
0FE0
07C0
0000
07E0
1C38
301C
700C
600E
600E
E00E
FFFE
E000
E000
E000
E000
7000
7000
3800
1E06
0FFE
03F8
ENDCHAR
STARTCHAR Edotaccent
ENCODING 278
SWIDTH 566 0
DWIDTH 19 0
BBX 17 29 1 0
BITMAP
038000
038000
038000
000000
FFFF00
1C0700
1C0300
1C0300
1C0000
1C0000
1C0000
1C0000
1C0000
1C0000
1C0400
1C0400
1FFC00
1C0400
1C0400
1C0000
1C0000
1C0000
1C0000
1C0000
1C0000
1C0180
1C0180
3E0380
FFFF80
ENDCHAR
STARTCHAR edotaccent
ENCODING 279
SWIDTH 530 0
DWIDTH 18 0
BBX 15 22 1 0
BITMAP
0380
0380
0380
0000
07E0
1C38
301C
700C
600E
600E
E00E
FFFE
E000
E000
E000
E000
7000
7000
3800
1E06
0FFE
03F8
ENDCHAR
STARTCHAR Eogonek
ENCODING 280
SWIDTH 566 0
DWIDTH 19 0
BBX 17 31 1 -6
BITMAP
FFFF00
1C0700
1C0300
1C0300
1C0000
1C0000
1C0000
1C0000
1C0000
1C0000
1C0400
1C0400
1FFC00
1C0400
1C0400
1C0000
1C0000
1C0000
1C0000
1C0000
1C0000
1C0180
1C0180
3E0380
FFFF80
000000
01C000
030000
070000
070000
03E000
ENDCHAR
STARTCHAR eogonek
ENCODING 281
SWIDTH 530 0
DWIDTH 18 0
BBX 15 24 1 -6
BITMAP
07E0
1C38
301C
700C
600E
600E
E00E
FFFE
E000
E000
E000
E000
7000
7000
3800
1E06
0FFE
03F8
0000
01C0
0300
0700
0700
03E0
ENDCHAR
STARTCHAR Ecaron
ENCODING 282
SWIDTH 566 0
DWIDTH 19 0
BBX 17 31 1 0
BITMAP
301800
183000
0C6000
07C000
07C000
000000
FFFF00
1C0700
1C0300
1C0300
1C0000
1C0000
1C0000
1C0000
1C0000
1C0000
1C0400
1C0400
1FFC00
1C0400
1C0400
1C0000
1C0000
1C0000
1C0000
1C0000
1C0000
1C0180
1C0180
3E0380
FFFF80
ENDCHAR
STARTCHAR ecaron
ENCODING 283
SWIDTH 530 0
DWIDTH 18 0
BBX 15 24 1 0
BITMAP
3018
1830
0C60
07C0
07C0
0000
07E0
1C38
301C
700C
600E
600E
E00E
FFFE
E000
E000
E000
E000
7000
7000
3800
1E06
0FFE
03F8
ENDCHAR
STARTCHAR Gcircumflex
ENCODING 284
SWIDTH 732 0
DWIDTH 25 0
BBX 23 31 2 0
BITMAP
007C00
007C00
00EE00
018300
030180
000000
00FF80
0781F0
0E0070
1C0030
380030
700030
700000
700000
E00000
E00000
E00000
E00000
E00000
E00000
E003FE
E000F8
600070
700070
700070
380070
380070
1C0070
0E0070
03C070
00FF80
ENDCHAR
STARTCHAR gcircumflex
ENCODING 285
SWIDTH 571 0
DWIDTH 19 0
BBX 18 31 1 -7
BITMAP
01F000
01F000
03B800
060C00
0C0600
000000
07FFC0
1C3C00
381C00
381E00
700E00
700E00
700E00
700E00
700E00
381C00
181800
0C3000
1FE000
380000
700000
700000
3FFE00
1FFF00
700780
E00380
E00380
E00380
F00700
381E00
0FF000
ENDCHAR
STARTCHAR Gbreve
ENCODING 286
SWIDTH 732 0
DWIDTH 25 0
BBX 23 31 2 0
BITMAP
020080
030180
01FF00
00FE00
007C00
000000
00FF80
0781F0
0E0070
1C0030
380030
700030
700000
700000
E00000
E00000
E00000
E00000
E00000
E00000
E003FE
E000F8
600070
700070
700070
380070
380070
1C0070
0E0070
03C070
00FF80
ENDCHAR
STARTCHAR gbreve
ENCODING 287
SWIDTH 571 0
DWIDTH 19 0
BBX 18 31 1 -7
BITMAP
080200
0C0600
07FC00
03F800
01F000
000000
07FFC0
1C3C00
381C00
381E00
700E00
700E00
700E00
700E00
700E00
381C00
181800
0C3000
1FE000
380000
700000
700000
3FFE00
1FFF00
700780
E00380
E00380
E00380
F00700
381E00
0FF000
ENDCHAR
STARTCHAR Gdotaccent
ENCODING 288
SWIDTH 732 0
DWIDTH 25 0
BBX 23 29 2 0
BITMAP
003800
003800
003800
000000
00FF80
0781F0
0E0070
1C0030
380030
700030
700000
700000
E00000
E00000
E00000
E00000
E00000
E00000
E003FE
E000F8
600070
700070
700070
380070
380070
1C0070
0E0070
03C070
00FF80
ENDCHAR
STARTCHAR gdotaccent
ENCODING 289
SWIDTH 571 0
DWIDTH 19 0
BBX 18 29 1 -7
BITMAP
00E000
00E000
00E000
000000
07FFC0
1C3C00
381C00
381E00
700E00
700E00
700E00
700E00
700E00
381C00
181800
0C3000
1FE000
380000
700000
700000
3FFE00
1FFF00
700780
E00380
E00380
E00380
F00700
381E00
0FF000
ENDCHAR
STARTCHAR Gcommaaccent
ENCODING 290
SWIDTH 732 0
DWIDTH 25 0
BBX 23 37 2 -12
BITMAP
00FF80
0781F0
0E0070
1C0030
380030
700030
700000
700000
E00000
E00000
E00000
E00000
E00000
E00000
E003FE
E000F8
600070
700070
700070
380070
380070
1C0070
0E0070
03C070
00FF80
000000
003C00
003C00
003C00
003C00
003C00
000C00
000C00
000C00
000800
001800
003000
ENDCHAR
STARTCHAR gcommaaccent
ENCODING 291
SWIDTH 571 0
DWIDTH 19 0
BBX 18 36 1 -7
BITMAP
006000
00C000
018000
018000
018000
018000
01E000
01E000
01E000
01E000
000000
07FFC0
1C3C00
381C00
381E00
700E00
700E00
700E00
700E00
700E00
381C00
181800
0C3000
1FE000
380000
700000
700000
3FFE00
1FFF00
700780
E00380
E00380
E00380
F00700
381E00
0FF000
ENDCHAR
STARTCHAR Hcircumflex
ENCODING 292
SWIDTH 771 0
DWIDTH 26 0
BBX 25 31 1 0
BITMAP
003E0000
003E0000
00770000
00C18000
0180C000
00000000
FF80FF80
3E003E00
1C001C00
1C001C00
1C001C00
1C001C00
1C001C00
1C001C00
1C001C00
1C001C00
1C001C00
1FFFFC00
1C001C00
1C001C00
1C001C00
1C001C00
1C001C00
1C001C00
1C001C00
1C001C00
1C001C00
1C001C00
1C001C00
3E003E00
FF80FF80
ENDCHAR
STARTCHAR hcircumflex
ENCODING 293
SWIDTH 633 0
DWIDTH 21 0
BBX 21 32 1 0
BITMAP
0F8000
0F8000
1DC000
306000
603000
000000
FC0000
3C0000
1C0000
1C0000
1C0000
1C0000
1C0000
1C0000
1C3E00
1CFF80
1DC380
1F01C0
1C01C0
1C01C0
1C01C0
1C01C0
1C01C0
1C01C0
1C01C0
1C01C0
1C01C0
1C01C0
1C01C0
1C01C0
3E03E0
FF8FF8
ENDCHAR
STARTCHAR Hbar
ENCODING 294
SWIDTH 771 0
DWIDTH 26 0
BBX 25 25 1 0
BITMAP
FF80FF80
3E003E00
1C001C00
1C001C00
1C001C00
1C001C00
FFFFFF80
FFFFFF80
1C001C00
1C001C00
1C001C00
1FFFFC00
1C001C00
1C001C00
1C001C00
1C001C00
1C001C00
1C001C00
1C001C00
1C001C00
1C001C00
1C001C00
1C001C00
3E003E00
FF80FF80
ENDCHAR
STARTCHAR hbar
ENCODING 295
SWIDTH 633 0
DWIDTH 21 0
BBX 21 26 1 0
BITMAP
FC0000
3C0000
1C0000
1C0000
1C0000
1C0000
7FC000
7FC000
1C3E00
1CFF80
1DC380
1F01C0
1C01C0
1C01C0
1C01C0
1C01C0
1C01C0
1C01C0
1C01C0
1C01C0
1C01C0
1C01C0
1C01C0
1C01C0
3E03E0
FF8FF8
ENDCHAR
STARTCHAR Itilde
ENCODING 296
SWIDTH 325 0
DWIDTH 11 0
BBX 11 29 0 0
BITMAP
3C20
7FC0
8780
0000
7FC0
1F00
0E00
0E00
0E00
0E00
0E00
0E00
0E00
0E00
0E00
0E00
0E00
0E00
0E00
0E00
0E00
0E00
0E00
0E00
0E00
0E00
0E00
1F00
7FC0
ENDCHAR
STARTCHAR itilde
ENCODING 297
SWIDTH 307 0
DWIDTH 10 0
BBX 11 22 -1 0
BITMAP
3C20
7FC0
8780
0000
3F00
0F00
0700
0700
0700
0700
0700
0700
0700
0700
0700
0700
0700
0700
0700
0700
0F80
3FE0
ENDCHAR
STARTCHAR Imacron
ENCODING 298
SWIDTH 325 0
DWIDTH 11 0
BBX 9 28 1 0
BITMAP
FF80
FF80
0000
FF80
3E00
1C00
1C00
1C00
1C00
1C00
1C00
1C00
1C00
1C00
1C00
1C00
1C00
1C00
1C00
1C00
1C00
1C00
1C00
1C00
1C00
1C00
3E00
FF80
ENDCHAR
STARTCHAR imacron
ENCODING 299
SWIDTH 307 0
DWIDTH 10 0
BBX 9 21 1 0
BITMAP
FF80
FF80
0000
FC00
3C00
1C00
1C00
1C00
1C00
1C00
1C00
1C00
1C00
1C00
1C00
1C00
1C00
1C00
1C00
3E00
FF80
ENDCHAR
STARTCHAR Ibreve
ENCODING 300
SWIDTH 325 0
DWIDTH 11 0
BBX 11 31 0 0
BITMAP
8020
C060
7FC0
3F80
1F00
0000
7FC0
1F00
0E00
0E00
0E00
0E00
0E00
0E00
0E00
0E00
0E00
0E00
0E00
0E00
0E00
0E00
0E00
0E00
0E00
0E00
0E00
0E00
0E00
1F00
7FC0
ENDCHAR
STARTCHAR ibreve
ENCODING 301
SWIDTH 307 0
DWIDTH 10 0
BBX 11 24 0 0
BITMAP
8020
C060
7FC0
3F80
1F00
0000
7E00
1E00
0E00
0E00
0E00
0E00
0E00
0E00
0E00
0E00
0E00
0E00
0E00
0E00
0E00
0E00
1F00
7FC0
ENDCHAR
STARTCHAR Iogonek
ENCODING 302
SWIDTH 325 0
DWIDTH 11 0
BBX 9 31 1 -6
BITMAP
FF80
3E00
1C00
1C00
1C00
1C00
1C00
1C00
1C00
1C00
1C00
1C00
1C00
1C00
1C00
1C00
1C00
1C00
1C00
1C00
1C00
1C00
1C00
3E00
FF80
0000
0E00
1800
3800
3800
1F00
ENDCHAR
STARTCHAR iogonek
ENCODING 303
SWIDTH 307 0
DWIDTH 10 0
BBX 9 31 1 -6
BITMAP
1C00
1C00
1C00
0000
0000
0000
0000
FC00
3C00
1C00
1C00
1C00
1C00
1C00
1C00
1C00
1C00
1C00
1C00
1C00
1C00
1C00
1C00
3E00
FF80
0000
0E00
1800
3800
3800
1F00
ENDCHAR
STARTCHAR Idotaccent
ENCODING 304
SWIDTH 325 0
DWIDTH 11 0
BBX 9 29 1 0
BITMAP
1C00
1C00
1C00
0000
FF80
3E00
1C00
1C00
1C00
1C00
1C00
1C00
1C00
1C00
1C00
1C00
1C00
1C00
1C00
1C00
1C00
1C00
1C00
1C00
1C00
1C00
1C00
3E00
FF80
ENDCHAR
STARTCHAR dotlessi
ENCODING 305
SWIDTH 307 0
DWIDTH 10 0
BBX 9 18 1 0
BITMAP
FC00
3C00
1C00
1C00
1C00
1C00
1C00
1C00
1C00
1C00
1C00
1C00
1C00
1C00
1C00
1C00
3E00
FF80
ENDCHAR
STARTCHAR IJ
ENCODING 306
SWIDTH 731 0
DWIDTH 24 0
BBX 22 31 1 -6
BITMAP
FF87FC
3E01F0
1C00E0
1C00E0
1C00E0
1C00E0
1C00E0
1C00E0
1C00E0
1C00E0
1C00E0
1C00E0
1C00E0
1C00E0
1C00E0
1C00E0
1C00E0
1C00E0
1C00E0
1C00E0
1C00E0
1C00E0
1C00E0
3E00E0
FF80E0
0000E0
0060C0
0060C0
0061C0
007380
007E00
ENDCHAR
STARTCHAR ij
ENCODING 307
SWIDTH 638 0
DWIDTH 22 0
BBX 19 32 1 -7
BITMAP
1C00E0
1C00E0
1C00E0
000000
000000
000000
000000
FC07E0
3C01E0
1C00E0
1C00E0
1C00E0
1C00E0
1C00E0
1C00E0
1C00E0
1C00E0
1C00E0
1C00E0
1C00E0
1C00E0
1C00E0
1C00E0
3E00E0
FF80E0
0000E0
0000E0
0060E0
0060E0
0060C0
007180
007F00
ENDCHAR
STARTCHAR Jcircumflex
ENCODING 308
SWIDTH 422 0
DWIDTH 14 0
BBX 13 37 0 -6
BITMAP
07C0
07C0
0EE0
1830
3018
0000
0FF8
03E0
01C0
01C0
01C0
01C0
01C0
01C0
01C0
01C0
01C0
01C0
01C0
01C0
01C0
01C0
01C0
01C0
01C0
01C0
01C0
01C0
01C0
01C0
01C0
01C0
C180
C180
C380
E700
FC00
ENDCHAR
STARTCHAR jcircumflex
ENCODING 309
SWIDTH 346 0
DWIDTH 12 0
BBX 13 31 0 -7
BITMAP
07C0
07C0
0EE0
1830
3018
0000
0FC0
03C0
01C0
01C0
01C0
01C0
01C0
01C0
01C0
01C0
01C0
01C0
01C0
01C0
01C0
01C0
01C0
01C0
01C0
01C0
C1C0
C1C0
C180
E300
FE00
ENDCHAR
STARTCHAR Kcommaaccent
ENCODING 310
SWIDTH 708 0
DWIDTH 24 0
BBX 23 37 1 -12
BITMAP
FF87F8
3E00E0
1C0180
1C0300
1C0200
1C0400
1C0800
1C1000
1C2000
1C4000
1C8000
1D8000
1FC000
1DE000
1CF000
1C7800
1C3C00
1C1E00
1C1E00
1C0F00
1C0780
1C03C0
1C01E0
3E01F8
FF87FE
000000
007800
007800
007800
007800
007800
001800
001800
001800
001000
003000
006000
ENDCHAR
STARTCHAR kcommaaccent
ENCODING 311
SWIDTH 599 0
DWIDTH 20 0
BBX 20 38 0 -12
BITMAP
FC0000
3C0000
1C0000
1C0000
1C0000
1C0000
1C0000
1C0000
1C1FE0
1C0300
1C0600
1C0C00
1C1000
1C2000
1C4000
1D8000
1FC000
1DE000
1CF000
1C7800
1C3C00
1C1E00
1C0F00
1C0F80
3E07C0
FF83F0
000000
00F000
00F000
00F000
00F000
00F000
003000
003000
003000
002000
006000
00C000
ENDCHAR
STARTCHAR kgreenlandic
ENCODING 312
SWIDTH 599 0
DWIDTH 20 0
BBX 20 18 0 0
BITMAP
1C1FE0
1C0300
1C0600
1C0C00
1C1000
1C2000
1C4000
1D8000
1FC000
1DE000
1CF000
1C7800
1C3C00
1C1E00
1C0F00
1C0F80
3E07C0
FF83F0
ENDCHAR
STARTCHAR Lacute
ENCODING 313
SWIDTH 557 0
DWIDTH 19 0
BBX 18 31 1 0
BITMAP
01E000
038000
030000
060000
0C0000
000000
FF8000
3E0000
1C0000
1C0000
1C0000
1C0000
1C0000
1C0000
1C0000
1C0000
1C0000
1C0000
1C0000
1C0000
1C0000
1C0000
1C0000
1C0000
1C0000
1C0000
1C0000
1C00C0
1C00C0
3E01C0
FFFFC0
ENDCHAR
STARTCHAR lacute
ENCODING 314
SWIDTH 313 0
DWIDTH 11 0
BBX 9 32 1 0
BITMAP
0780
0E00
0C00
1800
3000
0000
FC00
3C00
1C00
1C00
1C00
1C00
1C00
1C00
1C00
1C00
1C00
1C00
1C00
1C00
1C00
1C00
1C00
1C00
1C00
1C00
1C00
1C00
1C00
1C00
3E00
FF80
ENDCHAR
STARTCHAR Lcommaaccent
ENCODING 315
SWIDTH 557 0
DWIDTH 19 0
BBX 18 37 1 -12
BITMAP
FF8000
3E0000
1C0000
1C0000
1C0000
1C0000
1C0000
1C0000
1C0000
1C0000
1C0000
1C0000
1C0000
1C0000
1C0000
1C0000
1C0000
1C0000
1C0000
1C0000
1C0000
1C00C0
1C00C0
3E01C0
FFFFC0
000000
03C000
03C000
03C000
03C000
03C000
00C000
00C000
00C000
008000
018000
030000
ENDCHAR
STARTCHAR lcommaaccent
ENCODING 316
SWIDTH 313 0
DWIDTH 11 0
BBX 9 38 1 -12
BITMAP
FC00
3C00
1C00
1C00
1C00
1C00
1C00
1C00
1C00
1C00
1C00
1C00
1C00
1C00
1C00
1C00
1C00
1C00
1C00
1C00
1C00
1C00
1C00
1C00
3E00
FF80
0000
1E00
1E00
1E00
1E00
1E00
0600
0600
0600
0400
0C00
1800
ENDCHAR
STARTCHAR Lcaron
ENCODING 317
SWIDTH 794 0
DWIDTH 27 0
BBX 24 26 1 0
BITMAP
00000F
FF800F
3E000F
1C000F
1C0003
1C0003
1C0003
1C0006
1C000E
1C0008
1C0000
1C0000
1C0000
1C0000
1C0000
1C0000
1C0000
1C0000
1C0000
1C0000
1C0000
1C0000
1C00C0
1C00C0
3E01C0
FFFFC0
ENDCHAR
STARTCHAR lcaron
ENCODING 318
SWIDTH 562 0
DWIDTH 19 0
BBX 16 26 1 0
BITMAP
FC0F
3C0F
1C0F
1C0F
1C03
1C03
1C03
1C06
1C0E
1C08
1C00
1C00
1C00
1C00
1C00
1C00
1C00
1C00
1C00
1C00
1C00
1C00
1C00
1C00
3E00
FF80
ENDCHAR
STARTCHAR Ldot
ENCODING 319
SWIDTH 1137 0
DWIDTH 39 0
BBX 29 25 1 0
BITMAP
FF800000
3E000000
1C000000
1C000000
1C000000
1C000000
1C000000
1C000000
1C000000
1C000000
1C000000
1C000000
1C000000
1C000038
1C000038
1C000038
1C000000
1C000000
1C000000
1C000000
1C000000
1C00C000
1C00C000
3E01C000
FFFFC000
ENDCHAR
STARTCHAR ldot
ENCODING 320
SWIDTH 905 0
DWIDTH 31 0
BBX 21 26 1 0
BITMAP
FC0000
3C0000
1C0000
1C0000
1C0000
1C0000
1C0000
1C0000
1C0000
1C0000
1C0000
1C0000
1C0000
1C0000
1C0038
1C0038
1C0038
1C0000
1C0000
1C0000
1C0000
1C0000
1C0000
1C0000
3E0000
FF8000
ENDCHAR
STARTCHAR Lslash
ENCODING 321
SWIDTH 557 0
DWIDTH 19 0
BBX 18 25 0 0
BITMAP
FF8000
3E0000
1C0000
1C0000
1C0000
1C0000
1C0000
1C0000
1C0000
1C4000
1D8000
1E0000
1C0000
3C0000
DC0000
9C0000
1C0000
1C0000
1C0000
1C0000
1C0000
1C00C0
1C00C0
3E01C0
FFFFC0
ENDCHAR
STARTCHAR lslash
ENCODING 322
SWIDTH 313 0
DWIDTH 11 0
BBX 11 26 0 0
BITMAP
7E00
1E00
0E00
0E00
0E00
0E00
0E00
0E00
0E00
0E20
0E60
0F80
0E00
1E00
6E00
8E00
0E00
0E00
0E00
0E00
0E00
0E00
0E00
0E00
1F00
7FC0
ENDCHAR
STARTCHAR Nacute
ENCODING 323
SWIDTH 751 0
DWIDTH 26 0
BBX 24 31 1 0
BITMAP
001E00
003800
003000
006000
00C000
000000
FC007F
3E001C
1E0008
1F0008
1F8008
1BC008
19C008
19E008
18F008
187008
183808
183C08
181E08
180E08
180F08
180788
1803C8
1801C8
1801E8
1800F8
180078
180078
180038
3C0018
FF0008
ENDCHAR
STARTCHAR nacute
ENCODING 324
SWIDTH 633 0
DWIDTH 21 0
BBX 21 24 1 0
BITMAP
003C00
007000
006000
00C000
018000
000000
FC3E00
3CFF80
1DC380
1F01C0
1C01C0
1C01C0
1C01C0
1C01C0
1C01C0
1C01C0
1C01C0
1C01C0
1C01C0
1C01C0
1C01C0
1C01C0
3E03E0
FF8FF8
ENDCHAR
STARTCHAR Ncommaaccent
ENCODING 325
SWIDTH 751 0
DWIDTH 26 0
BBX 24 37 1 -12
BITMAP
FC007F
3E001C
1E0008
1F0008
1F8008
1BC008
19C008
19E008
18F008
187008
183808
183C08
181E08
180E08
180F08
180788
1803C8
1801C8
1801E8
1800F8
180078
180078
180038
3C0018
FF0008
000000
003C00
003C00
003C00
003C00
003C00
000C00
000C00
000C00
000800
001800
003000
ENDCHAR
STARTCHAR ncommaaccent
ENCODING 326
SWIDTH 633 0
DWIDTH 21 0
BBX 21 30 1 -12
BITMAP
FC3E00
3CFF80
1DC380
1F01C0
1C01C0
1C01C0
1C01C0
1C01C0
1C01C0
1C01C0
1C01C0
1C01C0
1C01C0
1C01C0
1C01C0
1C01C0
3E03E0
FF8FF8
000000
007800
007800
007800
007800
007800
001800
001800
001800
001000
003000
006000
ENDCHAR
STARTCHAR Ncaron
ENCODING 327
SWIDTH 751 0
DWIDTH 26 0
BBX 24 31 1 0
BITMAP
060300
030600
018C00
00F800
00F800
000000
FC007F
3E001C
1E0008
1F0008
1F8008
1BC008
19C008
19E008
18F008
187008
183808
183C08
181E08
180E08
180F08
180788
1803C8
1801C8
1801E8
1800F8
180078
180078
180038
3C0018
FF0008
ENDCHAR
STARTCHAR ncaron
ENCODING 328
SWIDTH 633 0
DWIDTH 21 0
BBX 21 24 1 0
BITMAP
0C0600
060C00
031800
01F000
01F000
000000
FC3E00
3CFF80
1DC380
1F01C0
1C01C0
1C01C0
1C01C0
1C01C0
1C01C0
1C01C0
1C01C0
1C01C0
1C01C0
1C01C0
1C01C0
1C01C0
3E03E0
FF8FF8
ENDCHAR
STARTCHAR napostrophe
ENCODING 329
SWIDTH 885 0
DWIDTH 30 0
BBX 28 26 3 0
BITMAP
F0000000
F0000000
F0000000
F0000000
30000000
30000000
30000000
60000000
E1F87C00
8079FF00
003B8700
003E0380
00380380
00380380
00380380
00380380
00380380
00380380
00380380
00380380
00380380
00380380
00380380
00380380
007C07C0
01FF1FF0
ENDCHAR
STARTCHAR Eng
ENCODING 330
SWIDTH 751 0
DWIDTH 26 0
BBX 24 32 1 -7
BITMAP
FC007F
3E001C
1E0008
1F0008
1F8008
1BC008
19C008
19E008
18F008
187008
183808
183C08
181E08
180E08
180F08
180788
1803C8
1801F8
1801F8
1800F8
180078
180078
180038
3C0038
FF0038
000038
000038
001838
001838
001830
001C60
001FC0
ENDCHAR
STARTCHAR eng
ENCODING 331
SWIDTH 633 0
DWIDTH 21 0
BBX 18 25 1 -7
BITMAP
FC3E00
3CFF80
1DC380
1F01C0
1C01C0
1C01C0
1C01C0
1C01C0
1C01C0
1C01C0
1C01C0
1C01C0
1C01C0
1C01C0
1C01C0
1C01C0
3E01C0
FF81C0
0001C0
0001C0
00C1C0
00C1C0
00C180
00E300
00FE00
ENDCHAR
STARTCHAR Omacron
ENCODING 332
SWIDTH 777 0
DWIDTH 26 0
BBX 23 28 2 0
BITMAP
01FF00
01FF00
000000
00FE00
0783C0
0E00E0
1C0070
380038
300018
70001C
70001C
E0000E
E0000E
E0000E
E0000E
E0000E
E0000E
E0000E
E0000E
E0000E
70001C
70001C
300018
380038
1C0070
0E00E0
0783C0
00FE00
ENDCHAR
STARTCHAR omacron
ENCODING 333
SWIDTH 602 0
DWIDTH 20 0
BBX 17 21 2 0
BITMAP
0FF800
0FF800
000000
07F000
1C1C00
380E00
700700
700700
E00380
E00380
E00380
E00380
E00380
E00380
E00380
E00380
700700
700700
380E00
1C1C00
07F000
ENDCHAR
STARTCHAR Obreve
ENCODING 334
SWIDTH 777 0
DWIDTH 26 0
BBX 23 31 2 0
BITMAP
020080
030180
01FF00
00FE00
007C00
000000
00FE00
0783C0
0E00E0
1C0070
380038
300018
70001C
70001C
E0000E
E0000E
E0000E
E0000E
E0000E
E0000E
E0000E
E0000E
E0000E
70001C
70001C
300018
380038
1C0070
0E00E0
0783C0
00FE00
ENDCHAR
STARTCHAR obreve
ENCODING 335
SWIDTH 602 0
DWIDTH 20 0
BBX 17 24 2 0
BITMAP
100400
180C00
0FF800
07F000
03E000
000000
07F000
1C1C00
380E00
700700
700700
E00380
E00380
E00380
E00380
E00380
E00380
E00380
E00380
700700
700700
380E00
1C1C00
07F000
ENDCHAR
STARTCHAR Ohungarumlaut
ENCODING 336
SWIDTH 777 0
DWIDTH 26 0
BBX 23 31 2 0
BITMAP
001DC0
001B00
003200
006400
00C800
000000
00FE00
0783C0
0E00E0
1C0070
380038
300018
70001C
70001C
E0000E
E0000E
E0000E
E0000E
E0000E
E0000E
E0000E
E0000E
E0000E
70001C
70001C
300018
380038
1C0070
0E00E0
0783C0
00FE00
ENDCHAR
STARTCHAR ohungarumlaut
ENCODING 337
SWIDTH 602 0
DWIDTH 20 0
BBX 17 24 2 0
BITMAP
00EE00
00D800
019000
032000
064000
000000
07F000
1C1C00
380E00
700700
700700
E00380
E00380
E00380
E00380
E00380
E00380
E00380
E00380
700700
700700
380E00
1C1C00
07F000
ENDCHAR
STARTCHAR OE
ENCODING 338
SWIDTH 1014 0
DWIDTH 34 0
BBX 33 25 1 0
BITMAP
00FF3FFF00
0383F80700
0E00F80300
1C00780300
3800780300
3000380000
7000380000
7000380000
E000380000
E000380000
E000380400
E000380400
E0003FFC00
E000380400
E000380400
E000380000
E000380000
7000380000
7000380000
3000380000
3800780180
1C00780180
0E00F80180
0383FC0380
00FF3FFF80
ENDCHAR
STARTCHAR oe
ENCODING 339
SWIDTH 908 0
DWIDTH 31 0
BBX 27 18 2 0
BITMAP
07E07E00
1C18C380
380D81C0
700F80C0
700700E0
600700E0
E00700E0
E007FFE0
E0070000
E0070000
E0070000
E0070000
E0078000
F0078000
700FC000
7809E020
1C10FFE0
07E03F80
ENDCHAR
STARTCHAR Racute
ENCODING 340
SWIDTH 679 0
DWIDTH 23 0
BBX 23 31 0 0
BITMAP
001E00
003800
003000
006000
00C000
000000
FFFC00
3C0F00
1C0380
1C0180
1C01C0
1C01C0
1C01C0
1C01C0
1C01C0
1C0180
1C0380
1C0700
1C1E00
1FF800
1C3C00
1C1C00
1C1E00
1C0F00
1C0700
1C0780
1C0380
1C01C0
1C01E0
3E00F0
FF807E
ENDCHAR
STARTCHAR racute
ENCODING 341
SWIDTH 440 0
DWIDTH 15 0
BBX 13 24 1 0
BITMAP
00F0
01C0
0180
0300
0600
0000
FC78
3CF8
1D18
1E18
1C18
1C00
1C00
1C00
1C00
1C00
1C00
1C00
1C00
1C00
1C00
1C00
3E00
FF80
ENDCHAR
STARTCHAR Rcommaaccent
ENCODING 342
SWIDTH 679 0
DWIDTH 23 0
BBX 23 37 0 -12
BITMAP
FFFC00
3C0F00
1C0380
1C0180
1C01C0
1C01C0
1C01C0
1C01C0
1C01C0
1C0180
1C0380
1C0700
1C1E00
1FF800
1C3C00
1C1C00
1C1E00
1C0F00
1C0700
1C0780
1C0380
1C01C0
1C01E0
3E00F0
FF807E
000000
007800
007800
007800
007800
007800
001800
001800
001800
001000
003000
006000
ENDCHAR
STARTCHAR rcommaaccent
ENCODING 343
SWIDTH 440 0
DWIDTH 15 0
BBX 13 30 1 -12
BITMAP
FC78
3CF8
1D18
1E18
1C18
1C00
1C00
1C00
1C00
1C00
1C00
1C00
1C00
1C00
1C00
1C00
3E00
FF80
0000
1E00
1E00
1E00
1E00
1E00
0600
0600
0600
0400
0C00
1800
ENDCHAR
STARTCHAR Rcaron
ENCODING 344
SWIDTH 679 0
DWIDTH 23 0
BBX 23 31 0 0
BITMAP
0C0600
060C00
031800
01F000
01F000
000000
FFFC00
3C0F00
1C0380
1C0180
1C01C0
1C01C0
1C01C0
1C01C0
1C01C0
1C0180
1C0380
1C0700
1C1E00
1FF800
1C3C00
1C1C00
1C1E00
1C0F00
1C0700
1C0780
1C0380
1C01C0
1C01E0
3E00F0
FF807E
ENDCHAR
STARTCHAR rcaron
ENCODING 345
SWIDTH 440 0
DWIDTH 15 0
BBX 13 24 1 0
BITMAP
6030
3060
18C0
0F80
0F80
0000
FC78
3CF8
1D18
1E18
1C18
1C00
1C00
1C00
1C00
1C00
1C00
1C00
1C00
1C00
1C00
1C00
3E00
FF80
ENDCHAR
STARTCHAR Sacute
ENCODING 346
SWIDTH 542 0
DWIDTH 18 0
BBX 15 31 2 0
BITMAP
00F0
01C0
0180
0300
0600
0000
0FF0
181C
700C
600C
E00C
E000
E000
E000
F000
7C00
3F00
1F80
07E0
01F8
007C
003C
001E
000E
000E
C00E
C00C
C00C
E018
F870
3FC0
ENDCHAR
STARTCHAR sacute
ENCODING 347
SWIDTH 504 0
DWIDTH 17 0
BBX 13 24 2 0
BITMAP
01E0
0380
0300
0600
0C00
0000
1FC0
3070
6030
E030
E030
E000
F800
7E00
3F80
0FE0
03F0
0078
C038
C038
C038
E070
F0E0
3F80
ENDCHAR
STARTCHAR Scircumflex
ENCODING 348
SWIDTH 542 0
DWIDTH 18 0
BBX 15 31 2 0
BITMAP
0F80
0F80
1DC0
3060
6030
0000
0FF0
181C
700C
600C
E00C
E000
E000
E000
F000
7C00
3F00
1F80
07E0
01F8
007C
003C
001E
000E
000E
C00E
C00C
C00C
E018
F870
3FC0
ENDCHAR
STARTCHAR scircumflex
ENCODING 349
SWIDTH 504 0
DWIDTH 17 0
BBX 13 24 2 0
BITMAP
0F80
0F80
1DC0
3060
6030
0000
1FC0
3070
6030
E030
E030
E000
F800
7E00
3F80
0FE0
03F0
0078
C038
C038
C038
E070
F0E0
3F80
ENDCHAR
STARTCHAR Scedilla
ENCODING 350
SWIDTH 542 0
DWIDTH 18 0
BBX 15 32 2 -7
BITMAP
0FF0
181C
700C
600C
E00C
E000
E000
E000
F000
7C00
3F00
1F80
07E0
01F8
007C
003C
001E
000E
000E
C00E
C00C
C00C
E018
F870
3FC0
0300
0300
0180
00C0
00C0
01C0
0780
ENDCHAR
STARTCHAR scedilla
ENCODING 351
SWIDTH 504 0
DWIDTH 17 0
BBX 13 25 2 -7
BITMAP
1FC0
3070
6030
E030
E030
E000
F800
7E00
3F80
0FE0
03F0
0078
C038
C038
C038
E070
F0E0
3F80
0600
0600
0300
0180
0180
0380
0F00
ENDCHAR
STARTCHAR Scaron
ENCODING 352
SWIDTH 542 0
DWIDTH 18 0
BBX 15 32 2 0
BITMAP
3018
1830
0C60
07C0
07C0
0000
0000
0FF0
181C
700C
600C
E00C
E000
E000
E000
F000
7C00
3F00
1F80
07E0
01F8
007C
003C
001E
000E
000E
C00E
C00C
C00C
E018
F870
3FC0
ENDCHAR
STARTCHAR scaron
ENCODING 353
SWIDTH 504 0
DWIDTH 17 0
BBX 13 25 2 0
BITMAP
6030
3060
18C0
0F80
0F80
0000
0000
1FC0
3070
6030
E030
E030
E000
F800
7E00
3F80
0FE0
03F0
0078
C038
C038
C038
E070
F0E0
3F80
ENDCHAR
STARTCHAR Tcommaaccent
ENCODING 354
SWIDTH 663 0
DWIDTH 23 0
BBX 21 32 1 -7
BITMAP
FFFFF8
E07038
C07018
C07018
007000
007000
007000
007000
007000
007000
007000
007000
007000
007000
007000
007000
007000
007000
007000
007000
007000
007000
007000
00F800
03FE00
006000
006000
003000
001800
001800
003800
00F000
ENDCHAR
STARTCHAR tcommaaccent
ENCODING 355
SWIDTH 392 0
DWIDTH 13 0
BBX 11 30 1 -7
BITMAP
0C00
1C00
1C00
1C00
1C00
FFE0
1C00
1C00
1C00
1C00
1C00
1C00
1C00
1C00
1C00
1C00
1C00
1C00
1C00
1C00
1C00
0E00
07E0
0C00
0C00
0600
0300
0300
0700
1E00
ENDCHAR
STARTCHAR Tcaron
ENCODING 356
SWIDTH 663 0
DWIDTH 23 0
BBX 21 31 1 0
BITMAP
060300
030600
018C00
00F800
00F800
000000
FFFFF8
E07038
C07018
C07018
007000
007000
007000
007000
007000
007000
007000
007000
007000
007000
007000
007000
007000
007000
007000
007000
007000
007000
007000
00F800
03FE00
ENDCHAR
STARTCHAR tcaron
ENCODING 357
SWIDTH 637 0
DWIDTH 21 0
BBX 18 26 1 0
BITMAP
0003C0
0003C0
0003C0
0C03C0
1C00C0
1C00C0
1C00C0
1C0180
FFE380
1C0200
1C0000
1C0000
1C0000
1C0000
1C0000
1C0000
1C0000
1C0000
1C0000
1C0000
1C0000
1C0000
1C0000
1C0000
0E0000
07E000
ENDCHAR
STARTCHAR Tbar
ENCODING 358
SWIDTH 663 0
DWIDTH 23 0
BBX 21 25 1 0
BITMAP
FFFFF8
E07038
C07018
C07018
007000
007000
007000
007000
007000
007000
007000
03FE00
03FE00
007000
007000
007000
007000
007000
007000
007000
007000
007000
007000
00F800
03FE00
ENDCHAR
STARTCHAR tbar
ENCODING 359
SWIDTH 392 0
DWIDTH 13 0
BBX 11 23 1 0
BITMAP
0C00
1C00
1C00
1C00
1C00
FFE0
1C00
1C00
1C00
1C00
1C00
1C00
1C00
7FC0
7FC0
1C00
1C00
1C00
1C00
1C00
1C00
0E00
07E0
ENDCHAR
STARTCHAR Utilde
ENCODING 360
SWIDTH 719 0
DWIDTH 24 0
BBX 24 29 0 0
BITMAP
00F080
01FF00
021E00
000000
FF80FF
3E003C
1C0018
1C0018
1C0018
1C0018
1C0018
1C0018
1C0018
1C0018
1C0018
1C0018
1C0018
1C0018
1C0018
1C0018
1C0018
1C0018
1C0018
1C0010
0E0030
0E0030
070060
0381C0
00FF00
ENDCHAR
STARTCHAR utilde
ENCODING 361
SWIDTH 633 0
DWIDTH 21 0
BBX 21 22 0 0
BITMAP
03C200
07FC00
087800
000000
FC0FC0
3C03C0
1C01C0
1C01C0
1C01C0
1C01C0
1C01C0
1C01C0
1C01C0
1C01C0
1C01C0
1C01C0
1C01C0
1C01C0
1C07C0
0E0DC0
0FF9E0
03E1F8
ENDCHAR
STARTCHAR Umacron
ENCODING 362
SWIDTH 719 0
DWIDTH 24 0
BBX 24 28 0 0
BITMAP
01FF00
01FF00
000000
FF80FF
3E003C
1C0018
1C0018
1C0018
1C0018
1C0018
1C0018
1C0018
1C0018
1C0018
1C0018
1C0018
1C0018
1C0018
1C0018
1C0018
1C0018
1C0018
1C0010
0E0030
0E0030
070060
0381C0
00FF00
ENDCHAR
STARTCHAR umacron
ENCODING 363
SWIDTH 633 0
DWIDTH 21 0
BBX 21 21 0 0
BITMAP
03FE00
03FE00
000000
FC0FC0
3C03C0
1C01C0
1C01C0
1C01C0
1C01C0
1C01C0
1C01C0
1C01C0
1C01C0
1C01C0
1C01C0
1C01C0
1C01C0
1C07C0
0E0DC0
0FF9E0
03E1F8
ENDCHAR
STARTCHAR Ubreve
ENCODING 364
SWIDTH 719 0
DWIDTH 24 0
BBX 24 31 0 0
BITMAP
020080
030180
01FF00
00FE00
007C00
000000
FF80FF
3E003C
1C0018
1C0018
1C0018
1C0018
1C0018
1C0018
1C0018
1C0018
1C0018
1C0018
1C0018
1C0018
1C0018
1C0018
1C0018
1C0018
1C0018
1C0010
0E0030
0E0030
070060
0381C0
00FF00
ENDCHAR
STARTCHAR ubreve
ENCODING 365
SWIDTH 633 0
DWIDTH 21 0
BBX 21 24 0 0
BITMAP
040100
060300
03FE00
01FC00
00F800
000000
FC0FC0
3C03C0
1C01C0
1C01C0
1C01C0
1C01C0
1C01C0
1C01C0
1C01C0
1C01C0
1C01C0
1C01C0
1C01C0
1C01C0
1C07C0
0E0DC0
0FF9E0
03E1F8
ENDCHAR
STARTCHAR Uring
ENCODING 366
SWIDTH 719 0
DWIDTH 24 0
BBX 24 31 0 0
BITMAP
003800
004400
004400
004400
003800
000000
FF80FF
3E003C
1C0018
1C0018
1C0018
1C0018
1C0018
1C0018
1C0018
1C0018
1C0018
1C0018
1C0018
1C0018
1C0018
1C0018
1C0018
1C0018
1C0018
1C0010
0E0030
0E0030
070060
0381C0
00FF00
ENDCHAR
STARTCHAR uring
ENCODING 367
SWIDTH 633 0
DWIDTH 21 0
BBX 21 24 0 0
BITMAP
007000
008800
008800
008800
007000
000000
FC0FC0
3C03C0
1C01C0
1C01C0
1C01C0
1C01C0
1C01C0
1C01C0
1C01C0
1C01C0
1C01C0
1C01C0
1C01C0
1C01C0
1C07C0
0E0DC0
0FF9E0
03E1F8
ENDCHAR
STARTCHAR Uhungarumlaut
ENCODING 368
SWIDTH 719 0
DWIDTH 24 0
BBX 24 31 0 0
BITMAP
001DC0
001B00
003200
006400
00C800
000000
FF80FF
3E003C
1C0018
1C0018
1C0018
1C0018
1C0018
1C0018
1C0018
1C0018
1C0018
1C0018
1C0018
1C0018
1C0018
1C0018
1C0018
1C0018
1C0018
1C0010
0E0030
0E0030
070060
0381C0
00FF00
ENDCHAR
STARTCHAR uhungarumlaut
ENCODING 369
SWIDTH 633 0
DWIDTH 21 0
BBX 21 24 0 0
BITMAP
003B80
003600
006400
00C800
019000
000000
FC0FC0
3C03C0
1C01C0
1C01C0
1C01C0
1C01C0
1C01C0
1C01C0
1C01C0
1C01C0
1C01C0
1C01C0
1C01C0
1C01C0
1C07C0
0E0DC0
0FF9E0
03E1F8
ENDCHAR
STARTCHAR Uogonek
ENCODING 370
SWIDTH 719 0
DWIDTH 24 0
BBX 24 31 0 -6
BITMAP
FF80FF
3E003C
1C0018
1C0018
1C0018
1C0018
1C0018
1C0018
1C0018
1C0018
1C0018
1C0018
1C0018
1C0018
1C0018
1C0018
1C0018
1C0018
1C0018
1C0010
0E0030
0E0030
070060
0381C0
00FF00
000000
003800
006000
00E000
00E000
007C00
ENDCHAR
STARTCHAR uogonek
ENCODING 371
SWIDTH 633 0
DWIDTH 21 0
BBX 21 24 0 -6
BITMAP
FC0FC0
3C03C0
1C01C0
1C01C0
1C01C0
1C01C0
1C01C0
1C01C0
1C01C0
1C01C0
1C01C0
1C01C0
1C01C0
1C01C0
1C07C0
0E0DC0
0FF9E0
03E1F8
000000
003800
006000
00E000
00E000
007C00
ENDCHAR
STARTCHAR Wcircumflex
ENCODING 372
SWIDTH 925 0
DWIDTH 31 0
BBX 31 31 0 0
BITMAP
001F0000
001F0000
003B8000
0060C000
00C06000
00000000
FF8180FE
3C018018
3C018010
1C01C010
1C03C010
1E03C020
0E03C020
0E04E020
0E04E040
0F04E040
070CF040
07087040
07087080
03887080
03903880
03903900
03903900
01E01D00
01E01D00
01E01E00
01E00E00
00C00E00
00C00C00
00C00C00
00800400
ENDCHAR
STARTCHAR wcircumflex
ENCODING 373
SWIDTH 795 0
DWIDTH 27 0
BBX 27 24 0 0
BITMAP
003E0000
003E0000
00770000
00C18000
0180C000
00000000
FF0207E0
780600C0
38070080
380F0080
3C0F8100
1C0B8100
1C138100
1E13C200
0E31C200
0E21C600
0F20E400
0740E400
0740F800
07C07800
03807800
03803000
03003000
01003000
ENDCHAR
STARTCHAR Ycircumflex
ENCODING 374
SWIDTH 678 0
DWIDTH 23 0
BBX 23 31 0 0
BITMAP
00F800
00F800
01DC00
030600
060300
000000
FFC0FE
3E0018
1E0010
0F0020
070020
078040
0380C0
03C080
01C100
00E100
00F200
007400
007C00
003800
003800
003800
003800
003800
003800
003800
003800
003800
003800
007C00
01FF00
ENDCHAR
STARTCHAR ycircumflex
ENCODING 375
SWIDTH 551 0
DWIDTH 19 0
BBX 19 31 0 -7
BITMAP
03E000
03E000
077000
0C1800
180C00
000000
FF03E0
3C00C0
3C0080
1C0180
1C0100
0E0100
0E0200
0F0200
070400
078400
038C00
038800
01C800
01D000
01F000
00E000
00E000
004000
004000
00C000
018000
038000
070000
0F0000
1E0000
ENDCHAR
STARTCHAR Ydieresis
ENCODING 376
SWIDTH 678 0
DWIDTH 23 0
BBX 23 30 0 0
BITMAP
01C700
01C700
01C700
000000
000000
FFC0FE
3E0018
1E0010
0F0020
070020
078040
0380C0
03C080
01C100
00E100
00F200
007400
007C00
003800
003800
003800
003800
003800
003800
003800
003800
003800
003800
007C00
01FF00
ENDCHAR
STARTCHAR Zacute
ENCODING 377
SWIDTH 633 0
DWIDTH 21 0
BBX 18 31 1 0
BITMAP
003C00
007000
006000
00C000
018000
000000
7FFFC0
700380
600780
600700
600E00
000E00
001C00
003C00
003800
007800
00F000
00E000
01E000
01C000
03C000
078000
070000
0F0000
0E0000
1E0000
3C0000
3C00C0
7800C0
7001C0
FFFFC0
ENDCHAR
STARTCHAR zacute
ENCODING 378
SWIDTH 595 0
DWIDTH 20 0
BBX 15 24 3 0
BITMAP
0078
00E0
00C0
0180
0300
0000
FFFE
E03C
C038
C078
00F0
00E0
01E0
03C0
0380
0780
0F00
0E00
1E00
3C00
3806
7806
F00E
FFFE
ENDCHAR
STARTCHAR Zdotaccent
ENCODING 379
SWIDTH 633 0
DWIDTH 21 0
BBX 18 29 1 0
BITMAP
00E000
00E000
00E000
000000
7FFFC0
700380
600780
600700
600E00
000E00
001C00
003C00
003800
007800
00F000
00E000
01E000
01C000
03C000
078000
070000
0F0000
0E0000
1E0000
3C0000
3C00C0
7800C0
7001C0
FFFFC0
ENDCHAR
STARTCHAR zdotaccent
ENCODING 380
SWIDTH 595 0
DWIDTH 20 0
BBX 15 22 3 0
BITMAP
0380
0380
0380
0000
FFFE
E03C
C038
C078
00F0
00E0
01E0
03C0
0380
0780
0F00
0E00
1E00
3C00
3806
7806
F00E
FFFE
ENDCHAR
STARTCHAR Zcaron
ENCODING 381
SWIDTH 633 0
DWIDTH 21 0
BBX 18 32 1 0
BITMAP
0C0600
060C00
031800
01F000
01F000
000000
000000
7FFFC0
700380
600780
600700
600E00
000E00
001C00
003C00
003800
007800
00F000
00E000
01E000
01C000
03C000
078000
070000
0F0000
0E0000
1E0000
3C0000
3C00C0
7800C0
7001C0
FFFFC0
ENDCHAR
STARTCHAR zcaron
ENCODING 382
SWIDTH 595 0
DWIDTH 20 0
BBX 15 25 3 0
BITMAP
3018
1830
0C60
07C0
07C0
0000
0000
FFFE
E03C
C038
C078
00F0
00E0
01E0
03C0
0380
0780
0F00
0E00
1E00
3C00
3806
7806
F00E
FFFE
ENDCHAR
STARTCHAR uni0186
ENCODING 390
SWIDTH 695 0
DWIDTH 24 0
BBX 20 25 2 0
BITMAP
0FF000
7FFC00
E01F00
800780
0003C0
0001C0
0000E0
0000E0
0000E0
000070
000070
000070
000070
000070
000070
000070
000070
0000E0
0000E0
C000C0
C001C0
C00380
E00700
F81C00
1FF000
ENDCHAR
STARTCHAR uni0189
ENCODING 393
SWIDTH 768 0
DWIDTH 26 0
BBX 23 25 1 0
BITMAP
FFFF00
3C07C0
1C00E0
1C0070
1C0038
1C001C
1C001C
1C001C
1C000E
1C000E
1C000E
1C000E
FFF00E
1C000E
1C000E
1C000E
1C000C
1C001C
1C001C
1C0018
1C0038
1C0070
1C00E0
3E03C0
FFFE00
ENDCHAR
STARTCHAR uni018E
ENCODING 398
SWIDTH 566 0
DWIDTH 19 0
BBX 17 25 1 0
BITMAP
FFFF80
E03E00
C01C00
C01C00
001C00
001C00
001C00
001C00
001C00
001C00
101C00
101C00
1FFC00
101C00
101C00
001C00
001C00
001C00
001C00
001C00
001C00
601C00
601C00
701C00
7FFF80
ENDCHAR
STARTCHAR florin
ENCODING 402
SWIDTH 608 0
DWIDTH 21 0
BBX 16 31 4 -6
BITMAP
003F
0047
0083
0183
0303
0300
0700
0700
0700
0E00
0E00
0E00
FFC0
1C00
1C00
1C00
1C00
1C00
3C00
3800
3800
3800
3800
7800
7000
7000
7000
7000
F000
F000
E000
ENDCHAR
STARTCHAR uni0197
ENCODING 407
SWIDTH 325 0
DWIDTH 11 0
BBX 9 25 1 0
BITMAP
FF80
3E00
1C00
1C00
1C00
1C00
1C00
1C00
1C00
1C00
1C00
FF80
FF80
1C00
1C00
1C00
1C00
1C00
1C00
1C00
1C00
1C00
1C00
3E00
FF80
ENDCHAR
STARTCHAR uni019A
ENCODING 410
SWIDTH 313 0
DWIDTH 11 0
BBX 9 26 1 0
BITMAP
FC00
3C00
1C00
1C00
1C00
1C00
1C00
1C00
1C00
1C00
1C00
1C00
FF80
FF80
1C00
1C00
1C00
1C00
1C00
1C00
1C00
1C00
1C00
1C00
3E00
FF80
ENDCHAR
STARTCHAR uni019D
ENCODING 413
SWIDTH 751 0
DWIDTH 26 0
BBX 28 32 -3 -7
BITMAP
0FC007F0
03E001C0
01E00080
01F00080
01F80080
01BC0080
019C0080
019E0080
018F0080
01870080
01838080
0183C080
0181E080
0180E080
0180F080
01807880
01803C80
01C01C80
01C01E80
01C00F80
01C00780
01C00780
01C00380
01C00180
01C00080
01C00000
01C00000
C1C00000
C1C00000
C1800000
E3000000
FE000000
ENDCHAR
STARTCHAR uni019F
ENCODING 415
SWIDTH 777 0
DWIDTH 26 0
BBX 23 25 2 0
BITMAP
00FE00
0783C0
0E00E0
1C0070
380038
300018
70001C
70001C
E0000E
E0000E
E0000E
FFFFFE
FFFFFE
E0000E
E0000E
E0000E
E0000E
70001C
70001C
300018
380038
1C0070
0E00E0
0783C0
00FE00
ENDCHAR
STARTCHAR Ohorn
ENCODING 416
SWIDTH 777 0
DWIDTH 26 0
BBX 25 25 2 0
BITMAP
00FE0780
0783C780
0E00E780
1C007780
38003980
30001980
70001D80
70001F00
E0000F00
E0000E00
E0000E00
E0000E00
E0000E00
E0000E00
E0000E00
E0000E00
E0000E00
70001C00
70001C00
30001800
38003800
1C007000
0E00E000
0783C000
00FE0000
ENDCHAR
STARTCHAR ohorn
ENCODING 417
SWIDTH 602 0
DWIDTH 20 0
BBX 19 18 2 0
BITMAP
07F1E0
1C1DE0
380FE0
7007E0
700760
E003E0
E003E0
E003C0
E003C0
E00380
E00380
E00380
E00380
700700
700700
380E00
1C1C00
07F000
ENDCHAR
STARTCHAR uni01A7
ENCODING 423
SWIDTH 542 0
DWIDTH 18 0
BBX 15 25 2 0
BITMAP
1FE0
7030
601C
600C
600E
000E
000E
000E
001E
007C
01F8
03F0
0FC0
3F00
7C00
7800
F000
E000
E000
E006
6006
6006
300E
1C3E
07F8
ENDCHAR
STARTCHAR uni01A8
ENCODING 424
SWIDTH 504 0
DWIDTH 17 0
BBX 13 18 2 0
BITMAP
1FC0
7060
6030
6038
6038
0038
00F8
03F0
0FE0
3F80
7E00
F000
E018
E018
E018
7038
3878
0FE0
ENDCHAR
STARTCHAR uni01AE
ENCODING 430
SWIDTH 663 0
DWIDTH 23 0
BBX 21 32 1 -7
BITMAP
FFFFF8
E07038
C07018
C07018
007000
007000
007000
007000
007000
007000
007000
007000
007000
007000
007000
007000
007000
007000
007000
007000
007000
007000
007000
007000
007000
007000
007000
007060
007060
003060
0018E0
000FE0
ENDCHAR
STARTCHAR Uhorn
ENCODING 431
SWIDTH 719 0
DWIDTH 24 0
BBX 26 25 0 0
BITMAP
FF80FFC0
3E003FC0
1C001BC0
1C001BC0
1C0018C0
1C0018C0
1C0018C0
1C001980
1C001B80
1C001A00
1C001800
1C001800
1C001800
1C001800
1C001800
1C001800
1C001800
1C001800
1C001800
1C001000
0E003000
0E003000
07006000
0381C000
00FF0000
ENDCHAR
STARTCHAR uhorn
ENCODING 432
SWIDTH 633 0
DWIDTH 21 0
BBX 23 18 0 0
BITMAP
FC0FDE
3C03DE
1C01DE
1C01DE
1C01C6
1C01C6
1C01C6
1C01CC
1C01DC
1C01D0
1C01C0
1C01C0
1C01C0
1C01C0
1C07C0
0E0DC0
0FF9E0
03E1F8
ENDCHAR
STARTCHAR uni01B5
ENCODING 437
SWIDTH 633 0
DWIDTH 21 0
BBX 18 25 1 0
BITMAP
7FFFC0
700380
600780
600700
600E00
000E00
001C00
003C00
003800
007800
00F000
07FC00
07FC00
01C000
03C000
078000
070000
0F0000
0E0000
1E0000
3C0000
3C00C0
7800C0
7001C0
FFFFC0
ENDCHAR
STARTCHAR uni01B6
ENCODING 438
SWIDTH 595 0
DWIDTH 20 0
BBX 15 18 3 0
BITMAP
FFFE
E03C
C038
C078
00F0
00E0
01E0
03C0
1FF0
1FF0
0F00
0E00
1E00
3C00
3806
7806
F00E
FFFE
ENDCHAR
STARTCHAR uni01BB
ENCODING 443
SWIDTH 608 0
DWIDTH 21 0
BBX 15 25 3 0
BITMAP
0FE0
7838
701C
601C
600E
600E
000E
000E
000E
000C
001C
FFFE
FFFE
00C0
0180
0300
0400
0800
1800
3000
7000
7000
FFFE
FFFE
FFFE
ENDCHAR
STARTCHAR uni01BC
ENCODING 444
SWIDTH 608 0
DWIDTH 21 0
BBX 13 25 4 0
BITMAP
FFF8
FFF8
FFF8
8000
8000
8000
8000
8000
8000
8000
FE00
0780
00E0
0070
0030
0038
0038
0038
0038
0038
C030
C070
C0E0
E1C0
FF00
ENDCHAR
STARTCHAR uni01C0
ENCODING 448
SWIDTH 241 0
DWIDTH 8 0
BBX 2 32 3 -6
BITMAP
C0
C0
C0
C0
C0
C0
C0
C0
C0
C0
C0
C0
C0
C0
C0
C0
C0
C0
C0
C0
C0
C0
C0
C0
C0
C0
C0
C0
C0
C0
C0
C0
ENDCHAR
STARTCHAR uni01C2
ENCODING 450
SWIDTH 608 0
DWIDTH 21 0
BBX 20 32 0 -6
BITMAP
006000
006000
006000
006000
006000
006000
006000
006000
006000
006000
006000
006000
FFFFF0
FFFFF0
006000
006000
006000
006000
006000
FFFFF0
FFFFF0
006000
006000
006000
006000
006000
006000
006000
006000
006000
006000
006000
ENDCHAR
STARTCHAR uni01C3
ENCODING 451
SWIDTH 265 0
DWIDTH 9 0
BBX 3 25 3 0
BITMAP
E0
E0
E0
E0
E0
E0
E0
E0
E0
E0
E0
E0
40
40
40
40
40
40
00
00
00
00
E0
E0
E0
ENDCHAR
STARTCHAR uni01CD
ENCODING 461
SWIDTH 744 0
DWIDTH 25 0
BBX 25 31 0 0
BITMAP
0180C000
00C18000
00630000
003E0000
003E0000
00000000
00080000
00080000
001C0000
001C0000
003E0000
002E0000
006F0000
00470000
00470000
00838000
00838000
0103C000
0101C000
0101C000
0200E000
0200E000
07FFF000
04007000
04007000
08003800
08003800
10003C00
10001C00
30001E00
FC00FF80
ENDCHAR
STARTCHAR uni01CE
ENCODING 462
SWIDTH 543 0
DWIDTH 18 0
BBX 17 24 1 0
BITMAP
180C00
0C1800
063000
03E000
03E000
000000
0FE000
707800
603800
601C00
001C00
001C00
001C00
03FC00
1C1C00
701C00
701C00
E01C00
E01C00
E01C00
F01C00
786C00
7FCE80
1F0780
ENDCHAR
STARTCHAR uni01CF
ENCODING 463
SWIDTH 325 0
DWIDTH 11 0
BBX 11 31 0 0
BITMAP
C060
60C0
3180
1F00
1F00
0000
7FC0
1F00
0E00
0E00
0E00
0E00
0E00
0E00
0E00
0E00
0E00
0E00
0E00
0E00
0E00
0E00
0E00
0E00
0E00
0E00
0E00
0E00
0E00
1F00
7FC0
ENDCHAR
STARTCHAR uni01D0
ENCODING 464
SWIDTH 307 0
DWIDTH 10 0
BBX 11 24 0 0
BITMAP
C060
60C0
3180
1F00
1F00
0000
7E00
1E00
0E00
0E00
0E00
0E00
0E00
0E00
0E00
0E00
0E00
0E00
0E00
0E00
0E00
0E00
1F00
7FC0
ENDCHAR
STARTCHAR uni01D1
ENCODING 465
SWIDTH 777 0
DWIDTH 26 0
BBX 23 31 2 0
BITMAP
030180
018300
00C600
007C00
007C00
000000
00FE00
0783C0
0E00E0
1C0070
380038
300018
70001C
70001C
E0000E
E0000E
E0000E
E0000E
E0000E
E0000E
E0000E
E0000E
E0000E
70001C
70001C
300018
380038
1C0070
0E00E0
0783C0
00FE00
ENDCHAR
STARTCHAR uni01D2
ENCODING 466
SWIDTH 602 0
DWIDTH 20 0
BBX 17 24 2 0
BITMAP
180C00
0C1800
063000
03E000
03E000
000000
07F000
1C1C00
380E00
700700
700700
E00380
E00380
E00380
E00380
E00380
E00380
E00380
E00380
700700
700700
380E00
1C1C00
07F000
ENDCHAR
STARTCHAR uni01D3
ENCODING 467
SWIDTH 719 0
DWIDTH 24 0
BBX 24 31 0 0
BITMAP
030180
018300
00C600
007C00
007C00
000000
FF80FF
3E003C
1C0018
1C0018
1C0018
1C0018
1C0018
1C0018
1C0018
1C0018
1C0018
1C0018
1C0018
1C0018
1C0018
1C0018
1C0018
1C0018
1C0018
1C0010
0E0030
0E0030
070060
0381C0
00FF00
ENDCHAR
STARTCHAR uni01D4
ENCODING 468
SWIDTH 633 0
DWIDTH 21 0
BBX 21 24 0 0
BITMAP
060300
030600
018C00
00F800
00F800
000000
FC0FC0
3C03C0
1C01C0
1C01C0
1C01C0
1C01C0
1C01C0
1C01C0
1C01C0
1C01C0
1C01C0
1C01C0
1C01C0
1C01C0
1C07C0
0E0DC0
0FF9E0
03E1F8
ENDCHAR
STARTCHAR uni01D5
ENCODING 469
SWIDTH 719 0
DWIDTH 24 0
BBX 24 33 0 0
BITMAP
01FF00
01FF00
000000
00E380
00E380
00E380
000000
000000
FF80FF
3E003C
1C0018
1C0018
1C0018
1C0018
1C0018
1C0018
1C0018
1C0018
1C0018
1C0018
1C0018
1C0018
1C0018
1C0018
1C0018
1C0018
1C0018
1C0010
0E0030
0E0030
070060
0381C0
00FF00
ENDCHAR
STARTCHAR uni01D6
ENCODING 470
SWIDTH 633 0
DWIDTH 21 0
BBX 21 26 0 0
BITMAP
03FE00
03FE00
000000
038E00
038E00
038E00
000000
000000
FC0FC0
3C03C0
1C01C0
1C01C0
1C01C0
1C01C0
1C01C0
1C01C0
1C01C0
1C01C0
1C01C0
1C01C0
1C01C0
1C01C0
1C07C0
0E0DC0
0FF9E0
03E1F8
ENDCHAR
STARTCHAR uni01D7
ENCODING 471
SWIDTH 719 0
DWIDTH 24 0
BBX 24 36 0 0
BITMAP
000780
000E00
000C00
001800
003000
000000
00E380
00E380
00E380
000000
000000
FF80FF
3E003C
1C0018
1C0018
1C0018
1C0018
1C0018
1C0018
1C0018
1C0018
1C0018
1C0018
1C0018
1C0018
1C0018
1C0018
1C0018
1C0018
1C0018
1C0010
0E0030
0E0030
070060
0381C0
00FF00
ENDCHAR
STARTCHAR uni01D8
ENCODING 472
SWIDTH 633 0
DWIDTH 21 0
BBX 21 29 0 0
BITMAP
001E00
003800
003000
006000
00C000
000000
038E00
038E00
038E00
000000
000000
FC0FC0
3C03C0
1C01C0
1C01C0
1C01C0
1C01C0
1C01C0
1C01C0
1C01C0
1C01C0
1C01C0
1C01C0
1C01C0
1C01C0
1C07C0
0E0DC0
0FF9E0
03E1F8
ENDCHAR
STARTCHAR uni01D9
ENCODING 473
SWIDTH 719 0
DWIDTH 24 0
BBX 24 36 0 0
BITMAP
030180
018300
00C600
007C00
007C00
000000
00E380
00E380
00E380
000000
000000
FF80FF
3E003C
1C0018
1C0018
1C0018
1C0018
1C0018
1C0018
1C0018
1C0018
1C0018
1C0018
1C0018
1C0018
1C0018
1C0018
1C0018
1C0018
1C0018
1C0010
0E0030
0E0030
070060
0381C0
00FF00
ENDCHAR
STARTCHAR uni01DA
ENCODING 474
SWIDTH 633 0
DWIDTH 21 0
BBX 21 29 0 0
BITMAP
060300
030600
018C00
00F800
00F800
000000
038E00
038E00
038E00
000000
000000
FC0FC0
3C03C0
1C01C0
1C01C0
1C01C0
1C01C0
1C01C0
1C01C0
1C01C0
1C01C0
1C01C0
1C01C0
1C01C0
1C01C0
1C07C0
0E0DC0
0FF9E0
03E1F8
ENDCHAR
STARTCHAR uni01DB
ENCODING 475
SWIDTH 719 0
DWIDTH 24 0
BBX 24 36 0 0
BITMAP
01E000
007000
003000
001800
000C00
000000
00E380
00E380
00E380
000000
000000
FF80FF
3E003C
1C0018
1C0018
1C0018
1C0018
1C0018
1C0018
1C0018
1C0018
1C0018
1C0018
1C0018
1C0018
1C0018
1C0018
1C0018
1C0018
1C0018
1C0010
0E0030
0E0030
070060
0381C0
00FF00
ENDCHAR
STARTCHAR uni01DC
ENCODING 476
SWIDTH 633 0
DWIDTH 21 0
BBX 21 29 0 0
BITMAP
078000
01C000
00C000
006000
003000
000000
038E00
038E00
038E00
000000
000000
FC0FC0
3C03C0
1C01C0
1C01C0
1C01C0
1C01C0
1C01C0
1C01C0
1C01C0
1C01C0
1C01C0
1C01C0
1C01C0
1C01C0
1C07C0
0E0DC0
0FF9E0
03E1F8
ENDCHAR
STARTCHAR uni01DD
ENCODING 477
SWIDTH 530 0
DWIDTH 18 0
BBX 15 18 1 0
BITMAP
3F80
FFE0
C0F0
0038
001C
001C
000E
000E
000E
000E
FFFE
E00E
E00C
E00C
601C
7018
3870
0FC0
ENDCHAR
STARTCHAR uni01DE
ENCODING 478
SWIDTH 744 0
DWIDTH 25 0
BBX 25 33 0 0
BITMAP
00FF8000
00FF8000
00000000
00E38000
00E38000
00E38000
00000000
00000000
00080000
00080000
001C0000
001C0000
003E0000
002E0000
006F0000
00470000
00470000
00838000
00838000
0103C000
0101C000
0101C000
0200E000
0200E000
07FFF000
04007000
04007000
08003800
08003800
10003C00
10001C00
30001E00
FC00FF80
ENDCHAR
STARTCHAR uni01DF
ENCODING 479
SWIDTH 543 0
DWIDTH 18 0
BBX 17 26 1 0
BITMAP
0FF800
0FF800
000000
0E3800
0E3800
0E3800
000000
000000
0FE000
707800
603800
601C00
001C00
001C00
001C00
03FC00
1C1C00
701C00
701C00
E01C00
E01C00
E01C00
F01C00
786C00
7FCE80
1F0780
ENDCHAR
STARTCHAR uni01E0
ENCODING 480
SWIDTH 744 0
DWIDTH 25 0
BBX 25 32 0 0
BITMAP
00FF8000
00FF8000
00000000
001C0000
001C0000
001C0000
00000000
00080000
00080000
001C0000
001C0000
003E0000
002E0000
006F0000
00470000
00470000
00838000
00838000
0103C000
0101C000
0101C000
0200E000
0200E000
07FFF000
04007000
04007000
08003800
08003800
10003C00
10001C00
30001E00
FC00FF80
ENDCHAR
STARTCHAR uni01E1
ENCODING 481
SWIDTH 543 0
DWIDTH 18 0
BBX 17 25 1 0
BITMAP
0FF800
0FF800
000000
01C000
01C000
01C000
000000
0FE000
707800
603800
601C00
001C00
001C00
001C00
03FC00
1C1C00
701C00
701C00
E01C00
E01C00
E01C00
F01C00
786C00
7FCE80
1F0780
ENDCHAR
STARTCHAR uni01E2
ENCODING 482
SWIDTH 919 0
DWIDTH 31 0
BBX 30 28 0 0
BITMAP
0003FE00
0003FE00
00000000
0001FFF8
0001C038
0003C018
0005C018
0005C000
0009C000
0009C000
0011C000
0011C000
0021C000
0061C000
0041C020
00C1C020
0081FFE0
0181C020
0301C020
0301C000
07FFC000
0401C000
0801C000
0801C000
1001C00C
3001C00C
2003E01C
FC0FFFFC
ENDCHAR
STARTCHAR uni01E3
ENCODING 483
SWIDTH 819 0
DWIDTH 28 0
BBX 25 21 1 0
BITMAP
00FF8000
00FF8000
00000000
0FE1F800
38730C00
703E0600
601E0300
601C0300
001C0380
001C0380
001C0380
07FFFF80
1C1C0000
701C0000
E01C0000
E01C0000
E01E0000
F01E0000
786F0000
7FC38080
1F01FF00
ENDCHAR
STARTCHAR uni01E4
ENCODING 484
SWIDTH 732 0
DWIDTH 25 0
BBX 25 25 2 0
BITMAP
00FF8000
0781F000
0E007000
1C003000
38003000
70003000
70000000
70000000
E0000000
E0000000
E0000000
E0000000
E0000000
E0000000
E003FE00
E000F800
60007000
70007000
7000FF80
3800FF80
38007000
1C007000
0E007000
03C07000
00FF8000
ENDCHAR
STARTCHAR uni01E5
ENCODING 485
SWIDTH 571 0
DWIDTH 19 0
BBX 18 25 1 -7
BITMAP
07FFC0
1C3C00
381C00
381E00
700E00
700E00
700E00
700E00
700E00
381C00
181800
0C3000
1FE000
380000
700000
700000
3FFE00
1FFF00
FFFFC0
FFFFC0
E00380
E00380
F00700
381E00
0FF000
ENDCHAR
STARTCHAR Gcaron
ENCODING 486
SWIDTH 732 0
DWIDTH 25 0
BBX 23 31 2 0
BITMAP
030180
018300
00C600
007C00
007C00
000000
00FF80
0781F0
0E0070
1C0030
380030
700030
700000
700000
E00000
E00000
E00000
E00000
E00000
E00000
E003FE
E000F8
600070
700070
700070
380070
380070
1C0070
0E0070
03C070
00FF80
ENDCHAR
STARTCHAR gcaron
ENCODING 487
SWIDTH 571 0
DWIDTH 19 0
BBX 18 31 1 -7
BITMAP
0C0600
060C00
031800
01F000
01F000
000000
07FFC0
1C3C00
381C00
381E00
700E00
700E00
700E00
700E00
700E00
381C00
181800
0C3000
1FE000
380000
700000
700000
3FFE00
1FFF00
700780
E00380
E00380
E00380
F00700
381E00
0FF000
ENDCHAR
STARTCHAR uni01E8
ENCODING 488
SWIDTH 708 0
DWIDTH 24 0
BBX 23 31 1 0
BITMAP
0C0600
060C00
031800
01F000
01F000
000000
FF87F8
3E00E0
1C0180
1C0300
1C0200
1C0400
1C0800
1C1000
1C2000
1C4000
1C8000
1D8000
1FC000
1DE000
1CF000
1C7800
1C3C00
1C1E00
1C1E00
1C0F00
1C0780
1C03C0
1C01E0
3E01F8
FF87FE
ENDCHAR
STARTCHAR uni01E9
ENCODING 489
SWIDTH 599 0
DWIDTH 20 0
BBX 20 32 0 0
BITMAP
603000
306000
18C000
0F8000
0F8000
000000
FC0000
3C0000
1C0000
1C0000
1C0000
1C0000
1C0000
1C0000
1C1FE0
1C0300
1C0600
1C0C00
1C1000
1C2000
1C4000
1D8000
1FC000
1DE000
1CF000
1C7800
1C3C00
1C1E00
1C0F00
1C0F80
3E07C0
FF83F0
ENDCHAR
STARTCHAR uni01EA
ENCODING 490
SWIDTH 777 0
DWIDTH 26 0
BBX 23 31 2 -6
BITMAP
00FE00
0783C0
0E00E0
1C0070
380038
300018
70001C
70001C
E0000E
E0000E
E0000E
E0000E
E0000E
E0000E
E0000E
E0000E
E0000E
70001C
70001C
300018
380038
1C0070
0E00E0
0783C0
00FE00
000000
001C00
003000
007000
007000
003E00
ENDCHAR
STARTCHAR uni01EB
ENCODING 491
SWIDTH 602 0
DWIDTH 20 0
BBX 17 24 2 -6
BITMAP
07F000
1C1C00
380E00
700700
700700
E00380
E00380
E00380
E00380
E00380
E00380
E00380
E00380
700700
700700
380E00
1C1C00
07F000
000000
00E000
018000
038000
038000
01F000
ENDCHAR
STARTCHAR uni01EC
ENCODING 492
SWIDTH 777 0
DWIDTH 26 0
BBX 23 34 2 -6
BITMAP
01FF00
01FF00
000000
00FE00
0783C0
0E00E0
1C0070
380038
300018
70001C
70001C
E0000E
E0000E
E0000E
E0000E
E0000E
E0000E
E0000E
E0000E
E0000E
70001C
70001C
300018
380038
1C0070
0E00E0
0783C0
00FE00
000000
001C00
003000
007000
007000
003E00
ENDCHAR
STARTCHAR uni01ED
ENCODING 493
SWIDTH 602 0
DWIDTH 20 0
BBX 17 27 2 -6
BITMAP
0FF800
0FF800
000000
07F000
1C1C00
380E00
700700
700700
E00380
E00380
E00380
E00380
E00380
E00380
E00380
E00380
700700
700700
380E00
1C1C00
07F000
000000
00E000
018000
038000
038000
01F000
ENDCHAR
STARTCHAR uni01F0
ENCODING 496
SWIDTH 346 0
DWIDTH 12 0
BBX 13 31 0 -7
BITMAP
3018
1830
0C60
07C0
07C0
0000
0FC0
03C0
01C0
01C0
01C0
01C0
01C0
01C0
01C0
01C0
01C0
01C0
01C0
01C0
01C0
01C0
01C0
01C0
01C0
01C0
C1C0
C1C0
C180
E300
FE00
ENDCHAR
STARTCHAR uni01F4
ENCODING 500
SWIDTH 732 0
DWIDTH 25 0
BBX 23 31 2 0
BITMAP
000F00
001C00
001800
003000
006000
000000
00FF80
0781F0
0E0070
1C0030
380030
700030
700000
700000
E00000
E00000
E00000
E00000
E00000
E00000
E003FE
E000F8
600070
700070
700070
380070
380070
1C0070
0E0070
03C070
00FF80
ENDCHAR
STARTCHAR uni01F5
ENCODING 501
SWIDTH 571 0
DWIDTH 19 0
BBX 18 31 1 -7
BITMAP
003C00
007000
006000
00C000
018000
000000
07FFC0
1C3C00
381C00
381E00
700E00
700E00
700E00
700E00
700E00
381C00
181800
0C3000
1FE000
380000
700000
700000
3FFE00
1FFF00
700780
E00380
E00380
E00380
F00700
381E00
0FF000
ENDCHAR
STARTCHAR uni01F8
ENCODING 504
SWIDTH 751 0
DWIDTH 26 0
BBX 24 31 1 0
BITMAP
03C000
00E000
006000
003000
001800
000000
FC007F
3E001C
1E0008
1F0008
1F8008
1BC008
19C008
19E008
18F008
187008
183808
183C08
181E08
180E08
180F08
180788
1803C8
1801C8
1801E8
1800F8
180078
180078
180038
3C0018
FF0008
ENDCHAR
STARTCHAR uni01F9
ENCODING 505
SWIDTH 633 0
DWIDTH 21 0
BBX 21 24 1 0
BITMAP
078000
01C000
00C000
006000
003000
000000
FC3E00
3CFF80
1DC380
1F01C0
1C01C0
1C01C0
1C01C0
1C01C0
1C01C0
1C01C0
1C01C0
1C01C0
1C01C0
1C01C0
1C01C0
1C01C0
3E03E0
FF8FF8
ENDCHAR
STARTCHAR Aringacute
ENCODING 506
SWIDTH 744 0
DWIDTH 25 0
BBX 25 38 0 0
BITMAP
00078000
000E0000
000C0000
00180000
00300000
00000000
001C0000
00220000
00220000
00220000
001C0000
00000000
00000000
00080000
00080000
001C0000
001C0000
003E0000
002E0000
006F0000
00470000
00470000
00838000
00838000
0103C000
0101C000
0101C000
0200E000
0200E000
07FFF000
04007000
04007000
08003800
08003800
10003C00
10001C00
30001E00
FC00FF80
ENDCHAR
STARTCHAR aringacute
ENCODING 507
SWIDTH 543 0
DWIDTH 18 0
BBX 17 31 1 0
BITMAP
007800
00E000
00C000
018000
030000
000000
01C000
022000
022000
022000
01C000
000000
000000
0FE000
707800
603800
601C00
001C00
001C00
001C00
03FC00
1C1C00
701C00
701C00
E01C00
E01C00
E01C00
F01C00
786C00
7FCE80
1F0780
ENDCHAR
STARTCHAR AEacute
ENCODING 508
SWIDTH 919 0
DWIDTH 31 0
BBX 30 31 0 0
BITMAP
00001E00
00003800
00003000
00006000
0000C000
00000000
0001FFF8
0001C038
0003C018
0005C018
0005C000
0009C000
0009C000
0011C000
0011C000
0021C000
0061C000
0041C020
00C1C020
0081FFE0
0181C020
0301C020
0301C000
07FFC000
0401C000
0801C000
0801C000
1001C00C
3001C00C
2003E01C
FC0FFFFC
ENDCHAR
STARTCHAR aeacute
ENCODING 509
SWIDTH 819 0
DWIDTH 28 0
BBX 25 24 1 0
BITMAP
00078000
000E0000
000C0000
00180000
00300000
00000000
0FE1F800
38730C00
703E0600
601E0300
601C0300
001C0380
001C0380
001C0380
07FFFF80
1C1C0000
701C0000
E01C0000
E01C0000
E01E0000
F01E0000
786F0000
7FC38080
1F01FF00
ENDCHAR
STARTCHAR Oslashacute
ENCODING 510
SWIDTH 777 0
DWIDTH 26 0
BBX 23 31 2 0
BITMAP
000780
000E00
000C00
001800
003000
000000
00FE06
0783C4
0E00E8
1C0078
380038
30003C
70005C
70009C
E0010E
E0020E
E0040E
E0080E
E0100E
E0200E
E0400E
E0C00E
E1800E
73001C
76001C
7C0018
380038
3C0070
3E00E0
6783C0
C0FE00
ENDCHAR
STARTCHAR oslashacute
ENCODING 511
SWIDTH 602 0
DWIDTH 20 0
BBX 17 24 2 0
BITMAP
003C00
007000
006000
00C000
018000
000000
07E180
1E1B00
380E00
780700
700F00
701780
E03380
E06380
E0C380
E18380
E30380
E20380
F40780
780700
700700
380E00
7E3C00
C7F000
ENDCHAR
STARTCHAR uni0200
ENCODING 512
SWIDTH 744 0
DWIDTH 25 0
BBX 25 31 0 0
BITMAP
03B80000
00D80000
004C0000
00260000
00130000
00000000
00080000
00080000
001C0000
001C0000
003E0000
002E0000
006F0000
00470000
00470000
00838000
00838000
0103C000
0101C000
0101C000
0200E000
0200E000
07FFF000
04007000
04007000
08003800
08003800
10003C00
10001C00
30001E00
FC00FF80
ENDCHAR
STARTCHAR uni0201
ENCODING 513
SWIDTH 543 0
DWIDTH 18 0
BBX 17 24 1 0
BITMAP
3B8000
0D8000
04C000
026000
013000
000000
0FE000
707800
603800
601C00
001C00
001C00
001C00
03FC00
1C1C00
701C00
701C00
E01C00
E01C00
E01C00
F01C00
786C00
7FCE80
1F0780
ENDCHAR
STARTCHAR uni0202
ENCODING 514
SWIDTH 744 0
DWIDTH 25 0
BBX 25 31 0 0
BITMAP
003E0000
007F0000
00FF8000
0180C000
01004000
00000000
00080000
00080000
001C0000
001C0000
003E0000
002E0000
006F0000
00470000
00470000
00838000
00838000
0103C000
0101C000
0101C000
0200E000
0200E000
07FFF000
04007000
04007000
08003800
08003800
10003C00
10001C00
30001E00
FC00FF80
ENDCHAR
STARTCHAR uni0203
ENCODING 515
SWIDTH 543 0
DWIDTH 18 0
BBX 17 24 1 0
BITMAP
03E000
07F000
0FF800
180C00
100400
000000
0FE000
707800
603800
601C00
001C00
001C00
001C00
03FC00
1C1C00
701C00
701C00
E01C00
E01C00
E01C00
F01C00
786C00
7FCE80
1F0780
ENDCHAR
STARTCHAR uni0204
ENCODING 516
SWIDTH 566 0
DWIDTH 19 0
BBX 17 31 1 0
BITMAP
770000
1B0000
098000
04C000
026000
000000
FFFF00
1C0700
1C0300
1C0300
1C0000
1C0000
1C0000
1C0000
1C0000
1C0000
1C0400
1C0400
1FFC00
1C0400
1C0400
1C0000
1C0000
1C0000
1C0000
1C0000
1C0000
1C0180
1C0180
3E0380
FFFF80
ENDCHAR
STARTCHAR uni0205
ENCODING 517
SWIDTH 530 0
DWIDTH 18 0
BBX 15 24 1 0
BITMAP
7700
1B00
0980
04C0
0260
0000
07E0
1C38
301C
700C
600E
600E
E00E
FFFE
E000
E000
E000
E000
7000
7000
3800
1E06
0FFE
03F8
ENDCHAR
STARTCHAR uni0206
ENCODING 518
SWIDTH 566 0
DWIDTH 19 0
BBX 17 31 1 0
BITMAP
07C000
0FE000
1FF000
301800
200800
000000
FFFF00
1C0700
1C0300
1C0300
1C0000
1C0000
1C0000
1C0000
1C0000
1C0000
1C0400
1C0400
1FFC00
1C0400
1C0400
1C0000
1C0000
1C0000
1C0000
1C0000
1C0000
1C0180
1C0180
3E0380
FFFF80
ENDCHAR
STARTCHAR uni0207
ENCODING 519
SWIDTH 530 0
DWIDTH 18 0
BBX 15 24 1 0
BITMAP
07C0
0FE0
1FF0
3018
2008
0000
07E0
1C38
301C
700C
600E
600E
E00E
FFFE
E000
E000
E000
E000
7000
7000
3800
1E06
0FFE
03F8
ENDCHAR
STARTCHAR uni0208
ENCODING 520
SWIDTH 325 0
DWIDTH 11 0
BBX 11 31 -1 0
BITMAP
EE00
3600
1300
0980
04C0
0000
3FE0
0F80
0700
0700
0700
0700
0700
0700
0700
0700
0700
0700
0700
0700
0700
0700
0700
0700
0700
0700
0700
0700
0700
0F80
3FE0
ENDCHAR
STARTCHAR uni0209
ENCODING 521
SWIDTH 307 0
DWIDTH 10 0
BBX 11 24 -1 0
BITMAP
EE00
3600
1300
0980
04C0
0000
3F00
0F00
0700
0700
0700
0700
0700
0700
0700
0700
0700
0700
0700
0700
0700
0700
0F80
3FE0
ENDCHAR
STARTCHAR uni020A
ENCODING 522
SWIDTH 325 0
DWIDTH 11 0
BBX 11 31 0 0
BITMAP
1F00
3F80
7FC0
C060
8020
0000
7FC0
1F00
0E00
0E00
0E00
0E00
0E00
0E00
0E00
0E00
0E00
0E00
0E00
0E00
0E00
0E00
0E00
0E00
0E00
0E00
0E00
0E00
0E00
1F00
7FC0
ENDCHAR
STARTCHAR uni020B
ENCODING 523
SWIDTH 307 0
DWIDTH 10 0
BBX 11 24 0 0
BITMAP
1F00
3F80
7FC0
C060
8020
0000
7E00
1E00
0E00
0E00
0E00
0E00
0E00
0E00
0E00
0E00
0E00
0E00
0E00
0E00
0E00
0E00
1F00
7FC0
ENDCHAR
STARTCHAR uni020C
ENCODING 524
SWIDTH 777 0
DWIDTH 26 0
BBX 23 31 2 0
BITMAP
077000
01B000
009800
004C00
002600
000000
00FE00
0783C0
0E00E0
1C0070
380038
300018
70001C
70001C
E0000E
E0000E
E0000E
E0000E
E0000E
E0000E
E0000E
E0000E
E0000E
70001C
70001C
300018
380038
1C0070
0E00E0
0783C0
00FE00
ENDCHAR
STARTCHAR uni020D
ENCODING 525
SWIDTH 602 0
DWIDTH 20 0
BBX 17 24 2 0
BITMAP
3B8000
0D8000
04C000
026000
013000
000000
07F000
1C1C00
380E00
700700
700700
E00380
E00380
E00380
E00380
E00380
E00380
E00380
E00380
700700
700700
380E00
1C1C00
07F000
ENDCHAR
STARTCHAR uni020E
ENCODING 526
SWIDTH 777 0
DWIDTH 26 0
BBX 23 31 2 0
BITMAP
007C00
00FE00
01FF00
030180
020080
000000
00FE00
0783C0
0E00E0
1C0070
380038
300018
70001C
70001C
E0000E
E0000E
E0000E
E0000E
E0000E
E0000E
E0000E
E0000E
E0000E
70001C
70001C
300018
380038
1C0070
0E00E0
0783C0
00FE00
ENDCHAR
STARTCHAR uni020F
ENCODING 527
SWIDTH 602 0
DWIDTH 20 0
BBX 17 24 2 0
BITMAP
03E000
07F000
0FF800
180C00
100400
000000
07F000
1C1C00
380E00
700700
700700
E00380
E00380
E00380
E00380
E00380
E00380
E00380
E00380
700700
700700
380E00
1C1C00
07F000
ENDCHAR
STARTCHAR uni0210
ENCODING 528
SWIDTH 679 0
DWIDTH 23 0
BBX 23 31 0 0
BITMAP
1DC000
06C000
026000
013000
009800
000000
FFFC00
3C0F00
1C0380
1C0180
1C01C0
1C01C0
1C01C0
1C01C0
1C01C0
1C0180
1C0380
1C0700
1C1E00
1FF800
1C3C00
1C1C00
1C1E00
1C0F00
1C0700
1C0780
1C0380
1C01C0
1C01E0
3E00F0
FF807E
ENDCHAR
STARTCHAR uni0211
ENCODING 529
SWIDTH 440 0
DWIDTH 15 0
BBX 13 24 1 0
BITMAP
EE00
3600
1300
0980
04C0
0000
FC78
3CF8
1D18
1E18
1C18
1C00
1C00
1C00
1C00
1C00
1C00
1C00
1C00
1C00
1C00
1C00
3E00
FF80
ENDCHAR
STARTCHAR uni0212
ENCODING 530
SWIDTH 679 0
DWIDTH 23 0
BBX 23 31 0 0
BITMAP
01F000
03F800
07FC00
0C0600
080200
000000
FFFC00
3C0F00
1C0380
1C0180
1C01C0
1C01C0
1C01C0
1C01C0
1C01C0
1C0180
1C0380
1C0700
1C1E00
1FF800
1C3C00
1C1C00
1C1E00
1C0F00
1C0700
1C0780
1C0380
1C01C0
1C01E0
3E00F0
FF807E
ENDCHAR
STARTCHAR uni0213
ENCODING 531
SWIDTH 440 0
DWIDTH 15 0
BBX 13 24 1 0
BITMAP
0F80
1FC0
3FE0
6030
4010
0000
FC78
3CF8
1D18
1E18
1C18
1C00
1C00
1C00
1C00
1C00
1C00
1C00
1C00
1C00
1C00
1C00
3E00
FF80
ENDCHAR
STARTCHAR uni0214
ENCODING 532
SWIDTH 719 0
DWIDTH 24 0
BBX 24 31 0 0
BITMAP
077000
01B000
009800
004C00
002600
000000
FF80FF
3E003C
1C0018
1C0018
1C0018
1C0018
1C0018
1C0018
1C0018
1C0018
1C0018
1C0018
1C0018
1C0018
1C0018
1C0018
1C0018
1C0018
1C0018
1C0010
0E0030
0E0030
070060
0381C0
00FF00
ENDCHAR
STARTCHAR uni0215
ENCODING 533
SWIDTH 633 0
DWIDTH 21 0
BBX 21 24 0 0
BITMAP
0EE000
036000
013000
009800
004C00
000000
FC0FC0
3C03C0
1C01C0
1C01C0
1C01C0
1C01C0
1C01C0
1C01C0
1C01C0
1C01C0
1C01C0
1C01C0
1C01C0
1C01C0
1C07C0
0E0DC0
0FF9E0
03E1F8
ENDCHAR
STARTCHAR uni0216
ENCODING 534
SWIDTH 719 0
DWIDTH 24 0
BBX 24 31 0 0
BITMAP
007C00
00FE00
01FF00
030180
020080
000000
FF80FF
3E003C
1C0018
1C0018
1C0018
1C0018
1C0018
1C0018
1C0018
1C0018
1C0018
1C0018
1C0018
1C0018
1C0018
1C0018
1C0018
1C0018
1C0018
1C0010
0E0030
0E0030
070060
0381C0
00FF00
ENDCHAR
STARTCHAR uni0217
ENCODING 535
SWIDTH 633 0
DWIDTH 21 0
BBX 21 24 0 0
BITMAP
00F800
01FC00
03FE00
060300
040100
000000
FC0FC0
3C03C0
1C01C0
1C01C0
1C01C0
1C01C0
1C01C0
1C01C0
1C01C0
1C01C0
1C01C0
1C01C0
1C01C0
1C01C0
1C07C0
0E0DC0
0FF9E0
03E1F8
ENDCHAR
STARTCHAR Scommaaccent
ENCODING 536
SWIDTH 542 0
DWIDTH 18 0
BBX 15 37 2 -12
BITMAP
0FF0
181C
700C
600C
E00C
E000
E000
E000
F000
7C00
3F00
1F80
07E0
01F8
007C
003C
001E
000E
000E
C00E
C00C
C00C
E018
F870
3FC0
0000
0780
0780
0780
0780
0780
0180
0180
0180
0100
0300
0600
ENDCHAR
STARTCHAR scommaaccent
ENCODING 537
SWIDTH 504 0
DWIDTH 17 0
BBX 13 30 2 -12
BITMAP
1FC0
3070
6030
E030
E030
E000
F800
7E00
3F80
0FE0
03F0
0078
C038
C038
C038
E070
F0E0
3F80
0000
0F00
0F00
0F00
0F00
0F00
0300
0300
0300
0200
0600
0C00
ENDCHAR
STARTCHAR Tcommaaccent
ENCODING 538
SWIDTH 663 0
DWIDTH 23 0
BBX 21 37 1 -12
BITMAP
FFFFF8
E07038
C07018
C07018
007000
007000
007000
007000
007000
007000
007000
007000
007000
007000
007000
007000
007000
007000
007000
007000
007000
007000
007000
00F800
03FE00
000000
007800
007800
007800
007800
007800
001800
001800
001800
001000
003000
006000
ENDCHAR
STARTCHAR tcommaaccent
ENCODING 539
SWIDTH 392 0
DWIDTH 13 0
BBX 11 35 1 -12
BITMAP
0C00
1C00
1C00
1C00
1C00
FFE0
1C00
1C00
1C00
1C00
1C00
1C00
1C00
1C00
1C00
1C00
1C00
1C00
1C00
1C00
1C00
0E00
07E0
0000
0F00
0F00
0F00
0F00
0F00
0300
0300
0300
0200
0600
0C00
ENDCHAR
STARTCHAR uni021E
ENCODING 542
SWIDTH 771 0
DWIDTH 26 0
BBX 25 31 1 0
BITMAP
0180C000
00C18000
00630000
003E0000
003E0000
00000000
FF80FF80
3E003E00
1C001C00
1C001C00
1C001C00
1C001C00
1C001C00
1C001C00
1C001C00
1C001C00
1C001C00
1FFFFC00
1C001C00
1C001C00
1C001C00
1C001C00
1C001C00
1C001C00
1C001C00
1C001C00
1C001C00
1C001C00
1C001C00
3E003E00
FF80FF80
ENDCHAR
STARTCHAR uni021F
ENCODING 543
SWIDTH 633 0
DWIDTH 21 0
BBX 21 32 1 0
BITMAP
603000
306000
18C000
0F8000
0F8000
000000
FC0000
3C0000
1C0000
1C0000
1C0000
1C0000
1C0000
1C0000
1C3E00
1CFF80
1DC380
1F01C0
1C01C0
1C01C0
1C01C0
1C01C0
1C01C0
1C01C0
1C01C0
1C01C0
1C01C0
1C01C0
1C01C0
1C01C0
3E03E0
FF8FF8
ENDCHAR
STARTCHAR uni0226
ENCODING 550
SWIDTH 744 0
DWIDTH 25 0
BBX 25 29 0 0
BITMAP
001C0000
001C0000
001C0000
00000000
00080000
00080000
001C0000
001C0000
003E0000
002E0000
006F0000
00470000
00470000
00838000
00838000
0103C000
0101C000
0101C000
0200E000
0200E000
07FFF000
04007000
04007000
08003800
08003800
10003C00
10001C00
30001E00
FC00FF80
ENDCHAR
STARTCHAR uni0227
ENCODING 551
SWIDTH 543 0
DWIDTH 18 0
BBX 17 22 1 0
BITMAP
01C000
01C000
01C000
000000
0FE000
707800
603800
601C00
001C00
001C00
001C00
03FC00
1C1C00
701C00
701C00
E01C00
E01C00
E01C00
F01C00
786C00
7FCE80
1F0780
ENDCHAR
STARTCHAR uni0228
ENCODING 552
SWIDTH 566 0
DWIDTH 19 0
BBX 17 32 1 -7
BITMAP
FFFF00
1C0700
1C0300
1C0300
1C0000
1C0000
1C0000
1C0000
1C0000
1C0000
1C0400
1C0400
1FFC00
1C0400
1C0400
1C0000
1C0000
1C0000
1C0000
1C0000
1C0000
1C0180
1C0180
3E0380
FFFF80
018000
018000
00C000
006000
006000
00E000
03C000
ENDCHAR
STARTCHAR uni0229
ENCODING 553
SWIDTH 530 0
DWIDTH 18 0
BBX 15 25 1 -7
BITMAP
07E0
1C38
301C
700C
600E
600E
E00E
FFFE
E000
E000
E000
E000
7000
7000
3800
1E06
0FFE
03F8
0180
0180
00C0
0060
0060
00E0
03C0
ENDCHAR
STARTCHAR uni022A
ENCODING 554
SWIDTH 777 0
DWIDTH 26 0
BBX 23 33 2 0
BITMAP
01FF00
01FF00
000000
01C700
01C700
01C700
000000
000000
00FE00
0783C0
0E00E0
1C0070
380038
300018
70001C
70001C
E0000E
E0000E
E0000E
E0000E
E0000E
E0000E
E0000E
E0000E
E0000E
70001C
70001C
300018
380038
1C0070
0E00E0
0783C0
00FE00
ENDCHAR
STARTCHAR uni022B
ENCODING 555
SWIDTH 602 0
DWIDTH 20 0
BBX 17 26 2 0
BITMAP
0FF800
0FF800
000000
0E3800
0E3800
0E3800
000000
000000
07F000
1C1C00
380E00
700700
700700
E00380
E00380
E00380
E00380
E00380
E00380
E00380
E00380
700700
700700
380E00
1C1C00
07F000
ENDCHAR
STARTCHAR uni022C
ENCODING 556
SWIDTH 777 0
DWIDTH 26 0
BBX 23 33 2 0
BITMAP
01FF00
01FF00
000000
00F080
01FF00
021E00
000000
000000
00FE00
0783C0
0E00E0
1C0070
380038
300018
70001C
70001C
E0000E
E0000E
E0000E
E0000E
E0000E
E0000E
E0000E
E0000E
E0000E
70001C
70001C
300018
380038
1C0070
0E00E0
0783C0
00FE00
ENDCHAR
STARTCHAR uni022D
ENCODING 557
SWIDTH 602 0
DWIDTH 20 0
BBX 17 26 2 0
BITMAP
0FF800
0FF800
000000
078400
0FF800
10F000
000000
000000
07F000
1C1C00
380E00
700700
700700
E00380
E00380
E00380
E00380
E00380
E00380
E00380
E00380
700700
700700
380E00
1C1C00
07F000
ENDCHAR
STARTCHAR uni022E
ENCODING 558
SWIDTH 777 0
DWIDTH 26 0
BBX 23 29 2 0
BITMAP
003800
003800
003800
000000
00FE00
0783C0
0E00E0
1C0070
380038
300018
70001C
70001C
E0000E
E0000E
E0000E
E0000E
E0000E
E0000E
E0000E
E0000E
E0000E
70001C
70001C
300018
380038
1C0070
0E00E0
0783C0
00FE00
ENDCHAR
STARTCHAR uni022F
ENCODING 559
SWIDTH 602 0
DWIDTH 20 0
BBX 17 22 2 0
BITMAP
01C000
01C000
01C000
000000
07F000
1C1C00
380E00
700700
700700
E00380
E00380
E00380
E00380
E00380
E00380
E00380
E00380
700700
700700
380E00
1C1C00
07F000
ENDCHAR
STARTCHAR uni0230
ENCODING 560
SWIDTH 777 0
DWIDTH 26 0
BBX 23 32 2 0
BITMAP
01FF00
01FF00
000000
003800
003800
003800
000000
00FE00
0783C0
0E00E0
1C0070
380038
300018
70001C
70001C
E0000E
E0000E
E0000E
E0000E
E0000E
E0000E
E0000E
E0000E
E0000E
70001C
70001C
300018
380038
1C0070
0E00E0
0783C0
00FE00
ENDCHAR
STARTCHAR uni0231
ENCODING 561
SWIDTH 602 0
DWIDTH 20 0
BBX 17 25 2 0
BITMAP
0FF800
0FF800
000000
01C000
01C000
01C000
000000
07F000
1C1C00
380E00
700700
700700
E00380
E00380
E00380
E00380
E00380
E00380
E00380
E00380
700700
700700
380E00
1C1C00
07F000
ENDCHAR
STARTCHAR uni0232
ENCODING 562
SWIDTH 678 0
DWIDTH 23 0
BBX 23 28 0 0
BITMAP
03FE00
03FE00
000000
FFC0FE
3E0018
1E0010
0F0020
070020
078040
0380C0
03C080
01C100
00E100
00F200
007400
007C00
003800
003800
003800
003800
003800
003800
003800
003800
003800
003800
007C00
01FF00
ENDCHAR
STARTCHAR uni0233
ENCODING 563
SWIDTH 551 0
DWIDTH 19 0
BBX 19 28 0 -7
BITMAP
0FF800
0FF800
000000
FF03E0
3C00C0
3C0080
1C0180
1C0100
0E0100
0E0200
0F0200
070400
078400
038C00
038800
01C800
01D000
01F000
00E000
00E000
004000
004000
00C000
018000
038000
070000
0F0000
1E0000
ENDCHAR
STARTCHAR uni0250
ENCODING 592
SWIDTH 543 0
DWIDTH 18 0
BBX 17 18 1 0
BITMAP
F07C00
B9FF00
1B0F00
1C0780
1C0380
1C0380
1C0380
1C0700
1C0700
1C1C00
1FE000
1C0000
1C0000
1C0000
1C0300
0E0300
0F0700
03F800
ENDCHAR
STARTCHAR uni0254
ENCODING 596
SWIDTH 509 0
DWIDTH 17 0
BBX 14 18 2 0
BITMAP
7F00
E0C0
C070
C030
C038
0018
001C
001C
001C
001C
001C
001C
0038
0038
0070
81F0
FFC0
3F00
ENDCHAR
STARTCHAR uni0258
ENCODING 600
SWIDTH 530 0
DWIDTH 18 0
BBX 15 18 1 0
BITMAP
0FC0
3870
7018
601C
E00C
E00C
E00E
FFFE
000E
000E
000E
000E
001C
001C
0038
C0F0
FFE0
3F80
ENDCHAR
STARTCHAR uni0259
ENCODING 601
SWIDTH 530 0
DWIDTH 18 0
BBX 15 18 1 0
BITMAP
3F80
FFE0
C0F0
0038
001C
001C
000E
000E
000E
000E
FFFE
E00E
E00C
E00C
601C
7018
3870
0FC0
ENDCHAR
STARTCHAR uni025F
ENCODING 607
SWIDTH 404 0
DWIDTH 14 0
BBX 13 27 1 -9
BITMAP
1FF8
03E0
01C0
01C0
01C0
01C0
01C0
01C0
01C0
01C0
01C0
01C0
01C0
01C0
01C0
01C0
01C0
3FF8
01C0
01C0
01C0
01C0
C1C0
C180
C180
E380
3E00
ENDCHAR
STARTCHAR uni0265
ENCODING 613
SWIDTH 633 0
DWIDTH 21 0
BBX 21 26 1 -8
BITMAP
FF8FF8
3E03E0
1C01C0
1C01C0
1C01C0
1C01C0
1C01C0
1C01C0
1C01C0
1C01C0
1C01C0
1C01C0
1C01C0
1C01C0
1C07C0
0E1DC0
0FF9C0
03E1C0
0001C0
0001C0
0001C0
0001C0
0001C0
0001C0
0001E0
0001F8
ENDCHAR
STARTCHAR uni0275
ENCODING 629
SWIDTH 602 0
DWIDTH 20 0
BBX 17 18 2 0
BITMAP
07F000
1C1C00
380E00
700700
700700
E00380
E00380
E00380
FFFF80
FFFF80
E00380
E00380
E00380
700700
700700
380E00
1C1C00
07F000
ENDCHAR
STARTCHAR uni0279
ENCODING 633
SWIDTH 440 0
DWIDTH 15 0
BBX 13 18 1 0
BITMAP
0FF8
03E0
01C0
01C0
01C0
01C0
01C0
01C0
01C0
01C0
01C0
01C0
01C0
C1C0
C3C0
C5C0
F9E0
F1F8
ENDCHAR
STARTCHAR uni0287
ENCODING 647
SWIDTH 392 0
DWIDTH 13 0
BBX 11 23 1 0
BITMAP
FC00
0E00
0700
0700
0700
0700
0700
0700
0700
0700
0700
0700
0700
0700
0700
0700
0700
FFE0
0700
0700
0700
0700
0600
ENDCHAR
STARTCHAR uni0288
ENCODING 648
SWIDTH 392 0
DWIDTH 13 0
BBX 13 30 1 -7
BITMAP
0C00
1C00
1C00
1C00
1C00
FFE0
1C00
1C00
1C00
1C00
1C00
1C00
1C00
1C00
1C00
1C00
1C00
1C00
1C00
1C00
1C00
1C00
1C00
1C00
1C00
1C18
1C18
0C18
0638
03F8
ENDCHAR
STARTCHAR uni0289
ENCODING 649
SWIDTH 633 0
DWIDTH 21 0
BBX 21 18 0 0
BITMAP
FC0FC0
3C03C0
1C01C0
1C01C0
1C01C0
1C01C0
1C01C0
1C01C0
FFFFF8
FFFFF8
1C01C0
1C01C0
1C01C0
1C01C0
1C07C0
0E0DC0
0FF9E0
03E1F8
ENDCHAR
STARTCHAR uni028C
ENCODING 652
SWIDTH 545 0
DWIDTH 19 0
BBX 19 18 0 0
BITMAP
004000
006000
00E000
00F000
017000
017000
023800
023800
043C00
041C00
081E00
080E00
180E00
100700
300700
200780
6003C0
F81FE0
ENDCHAR
STARTCHAR uni028D
ENCODING 653
SWIDTH 795 0
DWIDTH 27 0
BBX 27 18 0 0
BITMAP
01801000
01801800
01803800
03C03800
03C07C00
03E05C00
04E05C00
04E09E00
0C708E00
08718E00
08790F00
10390700
103A0700
103E0780
201E0380
201C0380
600C03C0
FC081FE0
ENDCHAR
STARTCHAR uni028E
ENCODING 654
SWIDTH 551 0
DWIDTH 19 0
BBX 19 25 0 0
BITMAP
000F00
001E00
001C00
003800
003000
006000
004000
004000
00E000
00E000
01F000
017000
027000
023800
063800
043C00
041C00
081E00
080E00
100E00
100700
300700
200780
600780
F81FE0
ENDCHAR
STARTCHAR uni029E
ENCODING 670
SWIDTH 599 0
DWIDTH 20 0
BBX 20 26 0 -8
BITMAP
FC1FF0
3E07C0
1F0380
0F0380
078380
03C380
01E380
00F380
007B80
003F80
001B80
002380
004380
008380
030380
060380
0C0380
7F8380
000380
000380
000380
000380
000380
000380
0003C0
0003F0
ENDCHAR
STARTCHAR uni02BB
ENCODING 699
SWIDTH 265 0
DWIDTH 9 0
BBX 4 10 3 16
BITMAP
30
60
C0
C0
C0
C0
F0
F0
F0
F0
ENDCHAR
STARTCHAR afii57929
ENCODING 700
SWIDTH 265 0
DWIDTH 9 0
BBX 4 10 3 16
BITMAP
F0
F0
F0
F0
30
30
30
60
E0
80
ENDCHAR
STARTCHAR afii64937
ENCODING 701
SWIDTH 265 0
DWIDTH 9 0
BBX 4 10 3 16
BITMAP
F0
F0
F0
F0
C0
C0
C0
60
70
10
ENDCHAR
STARTCHAR circumflex
ENCODING 710
SWIDTH 602 0
DWIDTH 20 0
BBX 11 5 5 21
BITMAP
1F00
1F00
3B80
60C0
C060
ENDCHAR
STARTCHAR caron
ENCODING 711
SWIDTH 602 0
DWIDTH 20 0
BBX 11 5 5 21
BITMAP
C060
60C0
3180
1F00
1F00
ENDCHAR
STARTCHAR uni02C8
ENCODING 712
SWIDTH 241 0
DWIDTH 8 0
BBX 5 9 2 17
BITMAP
F8
F8
70
70
70
70
70
20
20
ENDCHAR
STARTCHAR macron
ENCODING 713
SWIDTH 602 0
DWIDTH 20 0
BBX 9 2 6 22
BITMAP
FF80
FF80
ENDCHAR
STARTCHAR uni02CA
ENCODING 714
SWIDTH 602 0
DWIDTH 20 0
BBX 7 5 7 21
BITMAP
1E
38
30
60
C0
ENDCHAR
STARTCHAR uni02CB
ENCODING 715
SWIDTH 602 0
DWIDTH 20 0
BBX 7 5 6 21
BITMAP
F0
38
18
0C
06
ENDCHAR
STARTCHAR uni02CD
ENCODING 717
SWIDTH 602 0
DWIDTH 20 0
BBX 9 2 6 -3
BITMAP
FF80
FF80
ENDCHAR
STARTCHAR uni02CE
ENCODING 718
SWIDTH 602 0
DWIDTH 20 0
BBX 7 5 6 -6
BITMAP
F0
38
18
0C
06
ENDCHAR
STARTCHAR uni02CF
ENCODING 719
SWIDTH 602 0
DWIDTH 20 0
BBX 7 5 7 -6
BITMAP
1E
38
30
60
C0
ENDCHAR
STARTCHAR breve
ENCODING 728
SWIDTH 602 0
DWIDTH 20 0
BBX 11 5 5 21
BITMAP
8020
C060
7FC0
3F80
1F00
ENDCHAR
STARTCHAR dotaccent
ENCODING 729
SWIDTH 602 0
DWIDTH 20 0
BBX 3 3 9 22
BITMAP
E0
E0
E0
ENDCHAR
STARTCHAR ring
ENCODING 730
SWIDTH 602 0
DWIDTH 20 0
BBX 5 5 8 21
BITMAP
70
88
88
88
70
ENDCHAR
STARTCHAR ogonek
ENCODING 731
SWIDTH 602 0
DWIDTH 20 0
BBX 6 5 8 -6
BITMAP
38
60
E0
E0
7C
ENDCHAR
STARTCHAR tilde
ENCODING 732
SWIDTH 602 0
DWIDTH 20 0
BBX 11 3 5 22
BITMAP
3C20
7FC0
8780
ENDCHAR
STARTCHAR hungarumlaut
ENCODING 733
SWIDTH 602 0
DWIDTH 20 0
BBX 10 5 7 21
BITMAP
1DC0
1B00
3200
6400
C800
ENDCHAR
STARTCHAR uni02EE
ENCODING 750
SWIDTH 458 0
DWIDTH 16 0
BBX 10 10 3 16
BITMAP
E1C0
E1C0
E1C0
20C0
60C0
60C0
60C0
60C0
C180
8100
ENDCHAR
STARTCHAR uni037E
ENCODING 894
SWIDTH 265 0
DWIDTH 9 0
BBX 3 24 3 -6
BITMAP
E0
E0
E0
00
00
00
00
00
00
00
00
00
00
00
00
E0
E0
E0
60
60
60
60
40
C0
ENDCHAR
STARTCHAR tonos
ENCODING 900
SWIDTH 602 0
DWIDTH 20 0
BBX 7 5 7 21
BITMAP
1E
38
30
60
C0
ENDCHAR
STARTCHAR dieresistonos
ENCODING 901
SWIDTH 602 0
DWIDTH 20 0
BBX 9 9 6 22
BITMAP
0780
0E00
0C00
1800
3000
0000
E380
E380
E380
ENDCHAR
STARTCHAR anoteleia
ENCODING 903
SWIDTH 608 0
DWIDTH 21 0
BBX 3 3 9 9
BITMAP
E0
E0
E0
ENDCHAR
STARTCHAR mu
ENCODING 956
SWIDTH 626 0
DWIDTH 21 0
BBX 21 24 0 -6
BITMAP
FC0FC0
3C03C0
1C01C0
1C01C0
1C01C0
1C01C0
1C01C0
1C01C0
1C01C0
1C01C0
1C01C0
1C01C0
1C01C0
1C01C0
1C03C0
1E0DC0
1FF9E0
1FE1F8
1C0000
1C0000
1C0000
1C0000
1C0000
1C0000
ENDCHAR
STARTCHAR uni1E00
ENCODING 7680
SWIDTH 744 0
DWIDTH 25 0
BBX 25 31 0 -6
BITMAP
00080000
00080000
001C0000
001C0000
003E0000
002E0000
006F0000
00470000
00470000
00838000
00838000
0103C000
0101C000
0101C000
0200E000
0200E000
07FFF000
04007000
04007000
08003800
08003800
10003C00
10001C00
30001E00
FC00FF80
00000000
00070000
00088000
00088000
00088000
00070000
ENDCHAR
STARTCHAR uni1E01
ENCODING 7681
SWIDTH 543 0
DWIDTH 18 0
BBX 17 24 1 -6
BITMAP
0FE000
707800
603800
601C00
001C00
001C00
001C00
03FC00
1C1C00
701C00
701C00
E01C00
E01C00
E01C00
F01C00
786C00
7FCE80
1F0780
000000
01C000
022000
022000
022000
01C000
ENDCHAR
STARTCHAR uni1E02
ENCODING 7682
SWIDTH 609 0
DWIDTH 21 0
BBX 18 29 1 0
BITMAP
01C000
01C000
01C000
000000
FFF800
3C1E00
1C0700
1C0380
1C0380
1C0380
1C0380
1C0380
1C0300
1C0700
1C0E00
1C3800
1FFC00
1C3F00
1C0F80
1C0380
1C03C0
1C01C0
1C01C0
1C01C0
1C01C0
1C03C0
1C0780
3E0F00
FFFC00
ENDCHAR
STARTCHAR uni1E03
ENCODING 7683
SWIDTH 611 0
DWIDTH 21 0
BBX 19 30 0 0
BITMAP
0E0000
0E0000
0E0000
000000
FC0000
3C0000
1C0000
1C0000
1C0000
1C0000
1C0000
1C0000
1C3E00
1CFF80
1D8780
1E01C0
1C01C0
1C00E0
1C00E0
1C00E0
1C00E0
1C00E0
1C00E0
1C00E0
1C00C0
1C01C0
1C01C0
1F0380
19FF00
187C00
ENDCHAR
STARTCHAR uni1E04
ENCODING 7684
SWIDTH 609 0
DWIDTH 21 0
BBX 18 29 1 -4
BITMAP
FFF800
3C1E00
1C0700
1C0380
1C0380
1C0380
1C0380
1C0380
1C0300
1C0700
1C0E00
1C3800
1FFC00
1C3F00
1C0F80
1C0380
1C03C0
1C01C0
1C01C0
1C01C0
1C01C0
1C03C0
1C0780
3E0F00
FFFC00
000000
00E000
00E000
00E000
ENDCHAR
STARTCHAR uni1E05
ENCODING 7685
SWIDTH 611 0
DWIDTH 21 0
BBX 19 30 0 -4
BITMAP
FC0000
3C0000
1C0000
1C0000
1C0000
1C0000
1C0000
1C0000
1C3E00
1CFF80
1D8780
1E01C0
1C01C0
1C00E0
1C00E0
1C00E0
1C00E0
1C00E0
1C00E0
1C00E0
1C00C0
1C01C0
1C01C0
1F0380
19FF00
187C00
000000
00E000
00E000
00E000
ENDCHAR
STARTCHAR uni1E06
ENCODING 7686
SWIDTH 609 0
DWIDTH 21 0
BBX 18 28 1 -3
BITMAP
FFF800
3C1E00
1C0700
1C0380
1C0380
1C0380
1C0380
1C0380
1C0300
1C0700
1C0E00
1C3800
1FFC00
1C3F00
1C0F80
1C0380
1C03C0
1C01C0
1C01C0
1C01C0
1C01C0
1C03C0
1C0780
3E0F00
FFFC00
000000
07FC00
07FC00
ENDCHAR
STARTCHAR uni1E07
ENCODING 7687
SWIDTH 611 0
DWIDTH 21 0
BBX 19 29 0 -3
BITMAP
FC0000
3C0000
1C0000
1C0000
1C0000
1C0000
1C0000
1C0000
1C3E00
1CFF80
1D8780
1E01C0
1C01C0
1C00E0
1C00E0
1C00E0
1C00E0
1C00E0
1C00E0
1C00E0
1C00C0
1C01C0
1C01C0
1F0380
19FF00
187C00
000000
07FC00
07FC00
ENDCHAR
STARTCHAR uni1E08
ENCODING 7688
SWIDTH 695 0
DWIDTH 24 0
BBX 20 38 2 -7
BITMAP
001E00
003800
003000
006000
00C000
000000
00FF80
0381F0
0E0070
1C0030
380030
300030
700000
700000
E00000
E00000
E00000
E00000
E00000
E00000
E00000
E00000
700000
700000
700000
380000
3C0000
1E0010
0F8070
03FFE0
00FF00
006000
006000
003000
001800
001800
003800
00F000
ENDCHAR
STARTCHAR uni1E09
ENCODING 7689
SWIDTH 509 0
DWIDTH 17 0
BBX 14 31 2 -7
BITMAP
00F0
01C0
0180
0300
0600
0000
03F8
0C1C
380C
300C
700C
6000
E000
E000
E000
E000
E000
E000
7000
7000
3800
3E04
0FFC
03F0
0300
0300
0180
00C0
00C0
01C0
0780
ENDCHAR
STARTCHAR uni1E0A
ENCODING 7690
SWIDTH 768 0
DWIDTH 26 0
BBX 24 29 1 0
BITMAP
003800
003800
003800
000000
FFFF00
3C03E0
1C00F0
1C0038
1C001C
1C000E
1C000E
1C000E
1C0007
1C0007
1C0007
1C0007
1C0007
1C0007
1C0007
1C0007
1C0006
1C000E
1C000E
1C000C
1C001C
1C0038
1C0070
3E03C0
FFFF00
ENDCHAR
STARTCHAR uni1E0B
ENCODING 7691
SWIDTH 642 0
DWIDTH 22 0
BBX 19 30 2 0
BITMAP
001C00
001C00
001C00
000000
003F00
000F00
000700
000700
000700
000700
000700
000700
07C700
1FF700
381F00
700700
700700
600700
E00700
E00700
E00700
E00700
E00700
E00700
E00700
700700
700F00
3C3700
3FE780
0F87E0
ENDCHAR
STARTCHAR uni1E0C
ENCODING 7692
SWIDTH 768 0
DWIDTH 26 0
BBX 24 29 1 -4
BITMAP
FFFF00
3C03E0
1C00F0
1C0038
1C001C
1C000E
1C000E
1C000E
1C0007
1C0007
1C0007
1C0007
1C0007
1C0007
1C0007
1C0007
1C0006
1C000E
1C000E
1C000C
1C001C
1C0038
1C0070
3E03C0
FFFF00
000000
007000
007000
007000
ENDCHAR
STARTCHAR uni1E0D
ENCODING 7693
SWIDTH 642 0
DWIDTH 22 0
BBX 19 30 2 -4
BITMAP
003F00
000F00
000700
000700
000700
000700
000700
000700
07C700
1FF700
381F00
700700
700700
600700
E00700
E00700
E00700
E00700
E00700
E00700
E00700
700700
700F00
3C3700
3FE780
0F87E0
000000
00E000
00E000
00E000
ENDCHAR
STARTCHAR uni1E0E
ENCODING 7694
SWIDTH 768 0
DWIDTH 26 0
BBX 24 28 1 -3
BITMAP
FFFF00
3C03E0
1C00F0
1C0038
1C001C
1C000E
1C000E
1C000E
1C0007
1C0007
1C0007
1C0007
1C0007
1C0007
1C0007
1C0007
1C0006
1C000E
1C000E
1C000C
1C001C
1C0038
1C0070
3E03C0
FFFF00
000000
03FE00
03FE00
ENDCHAR
STARTCHAR uni1E0F
ENCODING 7695
SWIDTH 642 0
DWIDTH 22 0
BBX 19 29 2 -3
BITMAP
003F00
000F00
000700
000700
000700
000700
000700
000700
07C700
1FF700
381F00
700700
700700
600700
E00700
E00700
E00700
E00700
E00700
E00700
E00700
700700
700F00
3C3700
3FE780
0F87E0
000000
07FC00
07FC00
ENDCHAR
STARTCHAR uni1E10
ENCODING 7696
SWIDTH 768 0
DWIDTH 26 0
BBX 24 32 1 -7
BITMAP
FFFF00
3C03E0
1C00F0
1C0038
1C001C
1C000E
1C000E
1C000E
1C0007
1C0007
1C0007
1C0007
1C0007
1C0007
1C0007
1C0007
1C0006
1C000E
1C000E
1C000C
1C001C
1C0038
1C0070
3E03C0
FFFF00
003000
003000
001800
000C00
000C00
001C00
007800
ENDCHAR
STARTCHAR uni1E11
ENCODING 7697
SWIDTH 642 0
DWIDTH 22 0
BBX 19 33 2 -7
BITMAP
003F00
000F00
000700
000700
000700
000700
000700
000700
07C700
1FF700
381F00
700700
700700
600700
E00700
E00700
E00700
E00700
E00700
E00700
E00700
700700
700F00
3C3700
3FE780
0FC7E0
00C000
00C000
006000
003000
003000
007000
01E000
ENDCHAR
STARTCHAR uni1E12
ENCODING 7698
SWIDTH 768 0
DWIDTH 26 0
BBX 24 31 1 -6
BITMAP
FFFF00
3C03E0
1C00F0
1C0038
1C001C
1C000E
1C000E
1C000E
1C0007
1C0007
1C0007
1C0007
1C0007
1C0007
1C0007
1C0007
1C0006
1C000E
1C000E
1C000C
1C001C
1C0038
1C0070
3E03C0
FFFF00
000000
00F800
00F800
01DC00
030600
060300
ENDCHAR
STARTCHAR uni1E13
ENCODING 7699
SWIDTH 642 0
DWIDTH 22 0
BBX 19 32 2 -6
BITMAP
003F00
000F00
000700
000700
000700
000700
000700
000700
07C700
1FF700
381F00
700700
700700
600700
E00700
E00700
E00700
E00700
E00700
E00700
E00700
700700
700F00
3C3700
3FE780
0F87E0
000000
01F000
01F000
03B800
060C00
0C0600
ENDCHAR
STARTCHAR uni1E14
ENCODING 7700
SWIDTH 566 0
DWIDTH 19 0
BBX 17 34 1 0
BITMAP
1E0000
070000
030000
018000
00C000
000000
1FF000
1FF000
000000
FFFF00
1C0700
1C0300
1C0300
1C0000
1C0000
1C0000
1C0000
1C0000
1C0000
1C0400
1C0400
1FFC00
1C0400
1C0400
1C0000
1C0000
1C0000
1C0000
1C0000
1C0000
1C0180
1C0180
3E0380
FFFF80
ENDCHAR
STARTCHAR uni1E15
ENCODING 7701
SWIDTH 530 0
DWIDTH 18 0
BBX 15 27 1 0
BITMAP
1E00
0700
0300
0180
00C0
0000
1FF0
1FF0
0000
07E0
1C38
301C
700C
600E
600E
E00E
FFFE
E000
E000
E000
E000
7000
7000
3800
1E06
0FFE
03F8
ENDCHAR
STARTCHAR uni1E16
ENCODING 7702
SWIDTH 566 0
DWIDTH 19 0
BBX 17 34 1 0
BITMAP
007800
00E000
00C000
018000
030000
000000
1FF000
1FF000
000000
FFFF00
1C0700
1C0300
1C0300
1C0000
1C0000
1C0000
1C0000
1C0000
1C0000
1C0400
1C0400
1FFC00
1C0400
1C0400
1C0000
1C0000
1C0000
1C0000
1C0000
1C0000
1C0180
1C0180
3E0380
FFFF80
ENDCHAR
STARTCHAR uni1E17
ENCODING 7703
SWIDTH 530 0
DWIDTH 18 0
BBX 15 27 1 0
BITMAP
0078
00E0
00C0
0180
0300
0000
1FF0
1FF0
0000
07E0
1C38
301C
700C
600E
600E
E00E
FFFE
E000
E000
E000
E000
7000
7000
3800
1E06
0FFE
03F8
ENDCHAR
STARTCHAR uni1E18
ENCODING 7704
SWIDTH 566 0
DWIDTH 19 0
BBX 17 31 1 -6
BITMAP
FFFF00
1C0700
1C0300
1C0300
1C0000
1C0000
1C0000
1C0000
1C0000
1C0000
1C0400
1C0400
1FFC00
1C0400
1C0400
1C0000
1C0000
1C0000
1C0000
1C0000
1C0000
1C0180
1C0180
3E0380
FFFF80
000000
03E000
03E000
077000
0C1800
180C00
ENDCHAR
STARTCHAR uni1E19
ENCODING 7705
SWIDTH 530 0
DWIDTH 18 0
BBX 15 24 1 -6
BITMAP
07E0
1C38
301C
700C
600E
600E
E00E
FFFE
E000
E000
E000
E000
7000
7000
3800
1E06
0FFE
03F8
0000
07C0
07C0
0EE0
1830
3018
ENDCHAR
STARTCHAR uni1E1A
ENCODING 7706
SWIDTH 566 0
DWIDTH 19 0
BBX 17 29 1 -4
BITMAP
FFFF00
1C0700
1C0300
1C0300
1C0000
1C0000
1C0000
1C0000
1C0000
1C0000
1C0400
1C0400
1FFC00
1C0400
1C0400
1C0000
1C0000
1C0000
1C0000
1C0000
1C0000
1C0180
1C0180
3E0380
FFFF80
000000
078400
0FF800
10F000
ENDCHAR
STARTCHAR uni1E1B
ENCODING 7707
SWIDTH 530 0
DWIDTH 18 0
BBX 15 22 1 -4
BITMAP
07E0
1C38
301C
700C
600E
600E
E00E
FFFE
E000
E000
E000
E000
7000
7000
3800
1E06
0FFE
03F8
0000
0F08
1FF0
21E0
ENDCHAR
STARTCHAR uni1E1C
ENCODING 7708
SWIDTH 566 0
DWIDTH 19 0
BBX 17 38 1 -7
BITMAP
200800
301800
1FF000
0FE000
07C000
000000
FFFF00
1C0700
1C0300
1C0300
1C0000
1C0000
1C0000
1C0000
1C0000
1C0000
1C0400
1C0400
1FFC00
1C0400
1C0400
1C0000
1C0000
1C0000
1C0000
1C0000
1C0000
1C0180
1C0180
3E0380
FFFF80
018000
018000
00C000
006000
006000
00E000
03C000
ENDCHAR
STARTCHAR uni1E1D
ENCODING 7709
SWIDTH 530 0
DWIDTH 18 0
BBX 15 31 1 -7
BITMAP
2008
3018
1FF0
0FE0
07C0
0000
07E0
1C38
301C
700C
600E
600E
E00E
FFFE
E000
E000
E000
E000
7000
7000
3800
1E06
0FFE
03F8
0180
0180
00C0
0060
0060
00E0
03C0
ENDCHAR
STARTCHAR uni1E1E
ENCODING 7710
SWIDTH 548 0
DWIDTH 19 0
BBX 16 29 1 0
BITMAP
0380
0380
0380
0000
FFFF
1C07
1C03
1C03
1C00
1C00
1C00
1C00
1C00
1C00
1C04
1C04
1FFC
1C04
1C04
1C00
1C00
1C00
1C00
1C00
1C00
1C00
1C00
3E00
FFC0
ENDCHAR
STARTCHAR uni1E1F
ENCODING 7711
SWIDTH 404 0
DWIDTH 14 0
BBX 13 31 1 0
BITMAP
0380
0380
0380
0000
03E0
0E38
0C18
0C18
1C18
1C00
1C00
1C00
1C00
FFE0
1C00
1C00
1C00
1C00
1C00
1C00
1C00
1C00
1C00
1C00
1C00
1C00
1C00
1C00
1C00
3E00
FFC0
ENDCHAR
STARTCHAR uni1E20
ENCODING 7712
SWIDTH 732 0
DWIDTH 25 0
BBX 23 28 2 0
BITMAP
01FF00
01FF00
000000
00FF80
0781F0
0E0070
1C0030
380030
700030
700000
700000
E00000
E00000
E00000
E00000
E00000
E00000
E003FE
E000F8
600070
700070
700070
380070
380070
1C0070
0E0070
03C070
00FF80
ENDCHAR
STARTCHAR uni1E21
ENCODING 7713
SWIDTH 571 0
DWIDTH 19 0
BBX 18 28 1 -7
BITMAP
07FC00
07FC00
000000
07FFC0
1C3C00
381C00
381E00
700E00
700E00
700E00
700E00
700E00
381C00
181800
0C3000
1FE000
380000
700000
700000
3FFE00
1FFF00
700780
E00380
E00380
E00380
F00700
381E00
0FF000
ENDCHAR
STARTCHAR uni1E22
ENCODING 7714
SWIDTH 771 0
DWIDTH 26 0
BBX 25 29 1 0
BITMAP
001C0000
001C0000
001C0000
00000000
FF80FF80
3E003E00
1C001C00
1C001C00
1C001C00
1C001C00
1C001C00
1C001C00
1C001C00
1C001C00
1C001C00
1FFFFC00
1C001C00
1C001C00
1C001C00
1C001C00
1C001C00
1C001C00
1C001C00
1C001C00
1C001C00
1C001C00
1C001C00
3E003E00
FF80FF80
ENDCHAR
STARTCHAR uni1E23
ENCODING 7715
SWIDTH 633 0
DWIDTH 21 0
BBX 21 30 1 0
BITMAP
070000
070000
070000
000000
FC0000
3C0000
1C0000
1C0000
1C0000
1C0000
1C0000
1C0000
1C3E00
1CFF80
1DC380
1F01C0
1C01C0
1C01C0
1C01C0
1C01C0
1C01C0
1C01C0
1C01C0
1C01C0
1C01C0
1C01C0
1C01C0
1C01C0
3E03E0
FF8FF8
ENDCHAR
STARTCHAR uni1E24
ENCODING 7716
SWIDTH 771 0
DWIDTH 26 0
BBX 25 29 1 -4
BITMAP
FF80FF80
3E003E00
1C001C00
1C001C00
1C001C00
1C001C00
1C001C00
1C001C00
1C001C00
1C001C00
1C001C00
1FFFFC00
1C001C00
1C001C00
1C001C00
1C001C00
1C001C00
1C001C00
1C001C00
1C001C00
1C001C00
1C001C00
1C001C00
3E003E00
FF80FF80
00000000
001C0000
001C0000
001C0000
ENDCHAR
STARTCHAR uni1E25
ENCODING 7717
SWIDTH 633 0
DWIDTH 21 0
BBX 21 30 1 -4
BITMAP
FC0000
3C0000
1C0000
1C0000
1C0000
1C0000
1C0000
1C0000
1C3E00
1CFF80
1DC380
1F01C0
1C01C0
1C01C0
1C01C0
1C01C0
1C01C0
1C01C0
1C01C0
1C01C0
1C01C0
1C01C0
1C01C0
1C01C0
3E03E0
FF8FF8
000000
007000
007000
007000
ENDCHAR
STARTCHAR uni1E26
ENCODING 7718
SWIDTH 771 0
DWIDTH 26 0
BBX 25 29 1 0
BITMAP
00E38000
00E38000
00E38000
00000000
FF80FF80
3E003E00
1C001C00
1C001C00
1C001C00
1C001C00
1C001C00
1C001C00
1C001C00
1C001C00
1C001C00
1FFFFC00
1C001C00
1C001C00
1C001C00
1C001C00
1C001C00
1C001C00
1C001C00
1C001C00
1C001C00
1C001C00
1C001C00
3E003E00
FF80FF80
ENDCHAR
STARTCHAR uni1E27
ENCODING 7719
SWIDTH 633 0
DWIDTH 21 0
BBX 21 30 1 0
BITMAP
38E000
38E000
38E000
000000
FC0000
3C0000
1C0000
1C0000
1C0000
1C0000
1C0000
1C0000
1C3E00
1CFF80
1DC380
1F01C0
1C01C0
1C01C0
1C01C0
1C01C0
1C01C0
1C01C0
1C01C0
1C01C0
1C01C0
1C01C0
1C01C0
1C01C0
3E03E0
FF8FF8
ENDCHAR
STARTCHAR uni1E28
ENCODING 7720
SWIDTH 771 0
DWIDTH 26 0
BBX 25 32 1 -7
BITMAP
FF80FF80
3E003E00
1C001C00
1C001C00
1C001C00
1C001C00
1C001C00
1C001C00
1C001C00
1C001C00
1C001C00
1FFFFC00
1C001C00
1C001C00
1C001C00
1C001C00
1C001C00
1C001C00
1C001C00
1C001C00
1C001C00
1C001C00
1C001C00
3E003E00
FF88FF80
00180000
00180000
000C0000
00060000
00060000
000E0000
003C0000
ENDCHAR
STARTCHAR uni1E29
ENCODING 7721
SWIDTH 633 0
DWIDTH 21 0
BBX 21 33 1 -7
BITMAP
FC0000
3C0000
1C0000
1C0000
1C0000
1C0000
1C0000
1C0000
1C3E00
1CFF80
1DC380
1F01C0
1C01C0
1C01C0
1C01C0
1C01C0
1C01C0
1C01C0
1C01C0
1C01C0
1C01C0
1C01C0
1C01C0
1C01C0
3E03E0
FFAFF8
006000
006000
003000
001800
001800
003800
00F000
ENDCHAR
STARTCHAR uni1E2A
ENCODING 7722
SWIDTH 771 0
DWIDTH 26 0
BBX 25 31 1 -6
BITMAP
FF80FF80
3E003E00
1C001C00
1C001C00
1C001C00
1C001C00
1C001C00
1C001C00
1C001C00
1C001C00
1C001C00
1FFFFC00
1C001C00
1C001C00
1C001C00
1C001C00
1C001C00
1C001C00
1C001C00
1C001C00
1C001C00
1C001C00
1C001C00
3E003E00
FF80FF80
00000000
01004000
0180C000
00FF8000
007F0000
003E0000
ENDCHAR
STARTCHAR uni1E2B
ENCODING 7723
SWIDTH 633 0
DWIDTH 21 0
BBX 21 32 1 -6
BITMAP
FC0000
3C0000
1C0000
1C0000
1C0000
1C0000
1C0000
1C0000
1C3E00
1CFF80
1DC380
1F01C0
1C01C0
1C01C0
1C01C0
1C01C0
1C01C0
1C01C0
1C01C0
1C01C0
1C01C0
1C01C0
1C01C0
1C01C0
3E03E0
FF8FF8
000000
040100
060300
03FE00
01FC00
00F800
ENDCHAR
STARTCHAR uni1E2C
ENCODING 7724
SWIDTH 325 0
DWIDTH 11 0
BBX 11 29 0 -4
BITMAP
7FC0
1F00
0E00
0E00
0E00
0E00
0E00
0E00
0E00
0E00
0E00
0E00
0E00
0E00
0E00
0E00
0E00
0E00
0E00
0E00
0E00
0E00
0E00
1F00
7FC0
0000
3C20
7FC0
8780
ENDCHAR
STARTCHAR uni1E2D
ENCODING 7725
SWIDTH 307 0
DWIDTH 10 0
BBX 11 29 0 -4
BITMAP
0E00
0E00
0E00
0000
0000
0000
0000
7E00
1E00
0E00
0E00
0E00
0E00
0E00
0E00
0E00
0E00
0E00
0E00
0E00
0E00
0E00
0E00
1F00
7FC0
0000
3C20
7FC0
8780
ENDCHAR
STARTCHAR uni1E2E
ENCODING 7726
SWIDTH 325 0
DWIDTH 11 0
BBX 9 36 1 0
BITMAP
0780
0E00
0C00
1800
3000
0000
E380
E380
E380
0000
0000
FF80
3E00
1C00
1C00
1C00
1C00
1C00
1C00
1C00
1C00
1C00
1C00
1C00
1C00
1C00
1C00
1C00
1C00
1C00
1C00
1C00
1C00
1C00
3E00
FF80
ENDCHAR
STARTCHAR uni1E2F
ENCODING 7727
SWIDTH 307 0
DWIDTH 10 0
BBX 9 29 1 0
BITMAP
0780
0E00
0C00
1800
3000
0000
E380
E380
E380
0000
0000
FC00
3C00
1C00
1C00
1C00
1C00
1C00
1C00
1C00
1C00
1C00
1C00
1C00
1C00
1C00
1C00
3E00
FF80
ENDCHAR
STARTCHAR uni1E30
ENCODING 7728
SWIDTH 708 0
DWIDTH 24 0
BBX 23 31 1 0
BITMAP
001E00
003800
003000
006000
00C000
000000
FF87F8
3E00E0
1C0180
1C0300
1C0200
1C0400
1C0800
1C1000
1C2000
1C4000
1C8000
1D8000
1FC000
1DE000
1CF000
1C7800
1C3C00
1C1E00
1C1E00
1C0F00
1C0780
1C03C0
1C01E0
3E01F8
FF87FE
ENDCHAR
STARTCHAR uni1E31
ENCODING 7729
SWIDTH 599 0
DWIDTH 20 0
BBX 20 32 0 0
BITMAP
01E000
038000
030000
060000
0C0000
000000
FC0000
3C0000
1C0000
1C0000
1C0000
1C0000
1C0000
1C0000
1C1FE0
1C0300
1C0600
1C0C00
1C1000
1C2000
1C4000
1D8000
1FC000
1DE000
1CF000
1C7800
1C3C00
1C1E00
1C0F00
1C0F80
3E07C0
FF83F0
ENDCHAR
STARTCHAR uni1E32
ENCODING 7730
SWIDTH 708 0
DWIDTH 24 0
BBX 23 29 1 -4
BITMAP
FF87F8
3E00E0
1C0180
1C0300
1C0200
1C0400
1C0800
1C1000
1C2000
1C4000
1C8000
1D8000
1FC000
1DE000
1CF000
1C7800
1C3C00
1C1E00
1C1E00
1C0F00
1C0780
1C03C0
1C01E0
3E01F8
FF87FE
000000
003800
003800
003800
ENDCHAR
STARTCHAR uni1E33
ENCODING 7731
SWIDTH 599 0
DWIDTH 20 0
BBX 20 30 0 -4
BITMAP
FC0000
3C0000
1C0000
1C0000
1C0000
1C0000
1C0000
1C0000
1C1FE0
1C0300
1C0600
1C0C00
1C1000
1C2000
1C4000
1D8000
1FC000
1DE000
1CF000
1C7800
1C3C00
1C1E00
1C0F00
1C0F80
3E07C0
FF83F0
000000
00E000
00E000
00E000
ENDCHAR
STARTCHAR uni1E34
ENCODING 7732
SWIDTH 708 0
DWIDTH 24 0
BBX 23 28 1 -3
BITMAP
FF87F8
3E00E0
1C0180
1C0300
1C0200
1C0400
1C0800
1C1000
1C2000
1C4000
1C8000
1D8000
1FC000
1DE000
1CF000
1C7800
1C3C00
1C1E00
1C1E00
1C0F00
1C0780
1C03C0
1C01E0
3E01F8
FF87FE
000000
01FF00
01FF00
ENDCHAR
STARTCHAR uni1E35
ENCODING 7733
SWIDTH 599 0
DWIDTH 20 0
BBX 20 29 0 -3
BITMAP
FC0000
3C0000
1C0000
1C0000
1C0000
1C0000
1C0000
1C0000
1C1FE0
1C0300
1C0600
1C0C00
1C1000
1C2000
1C4000
1D8000
1FC000
1DE000
1CF000
1C7800
1C3C00
1C1E00
1C0F00
1C0F80
3E07C0
FF83F0
000000
07FC00
07FC00
ENDCHAR
STARTCHAR uni1E36
ENCODING 7734
SWIDTH 557 0
DWIDTH 19 0
BBX 18 29 1 -4
BITMAP
FF8000
3E0000
1C0000
1C0000
1C0000
1C0000
1C0000
1C0000
1C0000
1C0000
1C0000
1C0000
1C0000
1C0000
1C0000
1C0000
1C0000
1C0000
1C0000
1C0000
1C0000
1C00C0
1C00C0
3E01C0
FFFFC0
000000
01C000
01C000
01C000
ENDCHAR
STARTCHAR uni1E37
ENCODING 7735
SWIDTH 313 0
DWIDTH 11 0
BBX 9 30 1 -4
BITMAP
FC00
3C00
1C00
1C00
1C00
1C00
1C00
1C00
1C00
1C00
1C00
1C00
1C00
1C00
1C00
1C00
1C00
1C00
1C00
1C00
1C00
1C00
1C00
1C00
3E00
FF80
0000
1C00
1C00
1C00
ENDCHAR
STARTCHAR uni1E38
ENCODING 7736
SWIDTH 557 0
DWIDTH 19 0
BBX 18 32 1 -4
BITMAP
3FE000
3FE000
000000
FF8000
3E0000
1C0000
1C0000
1C0000
1C0000
1C0000
1C0000
1C0000
1C0000
1C0000
1C0000
1C0000
1C0000
1C0000
1C0000
1C0000
1C0000
1C0000
1C0000
1C0000
1C00C0
1C00C0
3E01C0
FFFFC0
000000
01C000
01C000
01C000
ENDCHAR
STARTCHAR uni1E39
ENCODING 7737
SWIDTH 313 0
DWIDTH 11 0
BBX 9 33 1 -4
BITMAP
FF80
FF80
0000
FC00
3C00
1C00
1C00
1C00
1C00
1C00
1C00
1C00
1C00
1C00
1C00
1C00
1C00
1C00
1C00
1C00
1C00
1C00
1C00
1C00
1C00
1C00
1C00
3E00
FF80
0000
1C00
1C00
1C00
ENDCHAR
STARTCHAR uni1E3A
ENCODING 7738
SWIDTH 557 0
DWIDTH 19 0
BBX 18 28 1 -3
BITMAP
FF8000
3E0000
1C0000
1C0000
1C0000
1C0000
1C0000
1C0000
1C0000
1C0000
1C0000
1C0000
1C0000
1C0000
1C0000
1C0000
1C0000
1C0000
1C0000
1C0000
1C0000
1C00C0
1C00C0
3E01C0
FFFFC0
000000
0FF800
0FF800
ENDCHAR
STARTCHAR uni1E3B
ENCODING 7739
SWIDTH 313 0
DWIDTH 11 0
BBX 9 29 1 -3
BITMAP
FC00
3C00
1C00
1C00
1C00
1C00
1C00
1C00
1C00
1C00
1C00
1C00
1C00
1C00
1C00
1C00
1C00
1C00
1C00
1C00
1C00
1C00
1C00
1C00
3E00
FF80
0000
FF80
FF80
ENDCHAR
STARTCHAR uni1E3C
ENCODING 7740
SWIDTH 557 0
DWIDTH 19 0
BBX 18 31 1 -6
BITMAP
FF8000
3E0000
1C0000
1C0000
1C0000
1C0000
1C0000
1C0000
1C0000
1C0000
1C0000
1C0000
1C0000
1C0000
1C0000
1C0000
1C0000
1C0000
1C0000
1C0000
1C0000
1C00C0
1C00C0
3E01C0
FFFFC0
000000
03E000
03E000
077000
0C1800
180C00
ENDCHAR
STARTCHAR uni1E3D
ENCODING 7741
SWIDTH 313 0
DWIDTH 11 0
BBX 11 32 0 -6
BITMAP
7E00
1E00
0E00
0E00
0E00
0E00
0E00
0E00
0E00
0E00
0E00
0E00
0E00
0E00
0E00
0E00
0E00
0E00
0E00
0E00
0E00
0E00
0E00
0E00
1F00
7FC0
0000
1F00
1F00
3B80
60C0
C060
ENDCHAR
STARTCHAR uni1E3E
ENCODING 7742
SWIDTH 860 0
DWIDTH 29 0
BBX 28 31 1 0
BITMAP
0001E000
00038000
00030000
00060000
000C0000
00000000
FE0003F0
3E0007C0
1F000780
1F000780
1B800B80
1B800B80
1BC01B80
19C01380
19C01380
18E02380
18E02380
18F06380
18704380
18704380
18388380
18388380
183D0380
181D0380
181F0380
180E0380
180E0380
180C0380
18040380
3C0007C0
FF001FF0
ENDCHAR
STARTCHAR uni1E3F
ENCODING 7743
SWIDTH 946 0
DWIDTH 32 0
BBX 31 24 1 0
BITMAP
0001E000
00038000
00030000
00060000
000C0000
00000000
FC3E0780
3CFF1FE0
1D8730E0
1E03C070
1C038070
1C038070
1C038070
1C038070
1C038070
1C038070
1C038070
1C038070
1C038070
1C038070
1C038070
1C038070
3E07C0F8
FF9FF3FE
ENDCHAR
STARTCHAR uni1E40
ENCODING 7744
SWIDTH 860 0
DWIDTH 29 0
BBX 28 29 1 0
BITMAP
000E0000
000E0000
000E0000
00000000
FE0003F0
3E0007C0
1F000780
1F000780
1B800B80
1B800B80
1BC01B80
19C01380
19C01380
18E02380
18E02380
18F06380
18704380
18704380
18388380
18388380
183D0380
181D0380
181F0380
180E0380
180E0380
180C0380
18040380
3C0007C0
FF001FF0
ENDCHAR
STARTCHAR uni1E41
ENCODING 7745
SWIDTH 946 0
DWIDTH 32 0
BBX 31 22 1 0
BITMAP
00070000
00070000
00070000
00000000
FC3E0780
3CFF1FE0
1D8730E0
1E03C070
1C038070
1C038070
1C038070
1C038070
1C038070
1C038070
1C038070
1C038070
1C038070
1C038070
1C038070
1C038070
3E07C0F8
FF9FF3FE
ENDCHAR
STARTCHAR uni1E42
ENCODING 7746
SWIDTH 860 0
DWIDTH 29 0
BBX 28 29 1 -4
BITMAP
FE0003F0
3E0007C0
1F000780
1F000780
1B800B80
1B800B80
1BC01B80
19C01380
19C01380
18E02380
18E02380
18F06380
18704380
18704380
18388380
18388380
183D0380
181D0380
181F0380
180E0380
180E0380
180C0380
18040380
3C0007C0
FF001FF0
00000000
00070000
00070000
00070000
ENDCHAR
STARTCHAR uni1E43
ENCODING 7747
SWIDTH 946 0
DWIDTH 32 0
BBX 31 22 1 -4
BITMAP
FC3E0780
3CFF1FE0
1D8730E0
1E03C070
1C038070
1C038070
1C038070
1C038070
1C038070
1C038070
1C038070
1C038070
1C038070
1C038070
1C038070
1C038070
3E07C0F8
FF9FF3FE
00000000
00038000
00038000
00038000
ENDCHAR
STARTCHAR uni1E44
ENCODING 7748
SWIDTH 751 0
DWIDTH 26 0
BBX 24 29 1 0
BITMAP
007000
007000
007000
000000
FC007F
3E001C
1E0008
1F0008
1F8008
1BC008
19C008
19E008
18F008
187008
183808
183C08
181E08
180E08
180F08
180788
1803C8
1801C8
1801E8
1800F8
180078
180078
180038
3C0018
FF0008
ENDCHAR
STARTCHAR uni1E45
ENCODING 7749
SWIDTH 633 0
DWIDTH 21 0
BBX 21 22 1 0
BITMAP
00E000
00E000
00E000
000000
FC3E00
3CFF80
1DC380
1F01C0
1C01C0
1C01C0
1C01C0
1C01C0
1C01C0
1C01C0
1C01C0
1C01C0
1C01C0
1C01C0
1C01C0
1C01C0
3E03E0
FF8FF8
ENDCHAR
STARTCHAR uni1E46
ENCODING 7750
SWIDTH 751 0
DWIDTH 26 0
BBX 24 29 1 -4
BITMAP
FC007F
3E001C
1E0008
1F0008
1F8008
1BC008
19C008
19E008
18F008
187008
183808
183C08
181E08
180E08
180F08
180788
1803C8
1801C8
1801E8
1800F8
180078
180078
180038
3C0018
FF0008
000000
003800
003800
003800
ENDCHAR
STARTCHAR uni1E47
ENCODING 7751
SWIDTH 633 0
DWIDTH 21 0
BBX 21 22 1 -4
BITMAP
FC3E00
3CFF80
1DC380
1F01C0
1C01C0
1C01C0
1C01C0
1C01C0
1C01C0
1C01C0
1C01C0
1C01C0
1C01C0
1C01C0
1C01C0
1C01C0
3E03E0
FF8FF8
000000
007000
007000
007000
ENDCHAR
STARTCHAR uni1E48
ENCODING 7752
SWIDTH 751 0
DWIDTH 26 0
BBX 24 28 1 -3
BITMAP
FC007F
3E001C
1E0008
1F0008
1F8008
1BC008
19C008
19E008
18F008
187008
183808
183C08
181E08
180E08
180F08
180788
1803C8
1801C8
1801E8
1800F8
180078
180078
180038
3C0018
FF0008
000000
01FF00
01FF00
ENDCHAR
STARTCHAR uni1E49
ENCODING 7753
SWIDTH 633 0
DWIDTH 21 0
BBX 21 21 1 -3
BITMAP
FC3E00
3CFF80
1DC380
1F01C0
1C01C0
1C01C0
1C01C0
1C01C0
1C01C0
1C01C0
1C01C0
1C01C0
1C01C0
1C01C0
1C01C0
1C01C0
3E03E0
FF8FF8
000000
03FE00
03FE00
ENDCHAR
STARTCHAR uni1E4A
ENCODING 7754
SWIDTH 751 0
DWIDTH 26 0
BBX 24 31 1 -6
BITMAP
FC007F
3E001C
1E0008
1F0008
1F8008
1BC008
19C008
19E008
18F008
187008
183808
183C08
181E08
180E08
180F08
180788
1803C8
1801C8
1801E8
1800F8
180078
180078
180038
3C0018
FF0008
000000
007C00
007C00
00EE00
018300
030180
ENDCHAR
STARTCHAR uni1E4B
ENCODING 7755
SWIDTH 633 0
DWIDTH 21 0
BBX 21 24 1 -6
BITMAP
FC3E00
3CFF80
1DC380
1F01C0
1C01C0
1C01C0
1C01C0
1C01C0
1C01C0
1C01C0
1C01C0
1C01C0
1C01C0
1C01C0
1C01C0
1C01C0
3E03E0
FF8FF8
000000
00F800
00F800
01DC00
030600
060300
ENDCHAR
STARTCHAR uni1E4C
ENCODING 7756
SWIDTH 777 0
DWIDTH 26 0
BBX 23 36 2 0
BITMAP
000F00
001C00
001800
003000
006000
000000
00F080
01FF00
021E00
000000
000000
00FE00
0783C0
0E00E0
1C0070
380038
300018
70001C
70001C
E0000E
E0000E
E0000E
E0000E
E0000E
E0000E
E0000E
E0000E
E0000E
70001C
70001C
300018
380038
1C0070
0E00E0
0783C0
00FE00
ENDCHAR
STARTCHAR uni1E4D
ENCODING 7757
SWIDTH 602 0
DWIDTH 20 0
BBX 17 29 2 0
BITMAP
007800
00E000
00C000
018000
030000
000000
078400
0FF800
10F000
000000
000000
07F000
1C1C00
380E00
700700
700700
E00380
E00380
E00380
E00380
E00380
E00380
E00380
E00380
700700
700700
380E00
1C1C00
07F000
ENDCHAR
STARTCHAR uni1E4E
ENCODING 7758
SWIDTH 777 0
DWIDTH 26 0
BBX 23 34 2 0
BITMAP
01C700
01C700
01C700
000000
00F080
01FF00
021E00
000000
000000
00FE00
0783C0
0E00E0
1C0070
380038
300018
70001C
70001C
E0000E
E0000E
E0000E
E0000E
E0000E
E0000E
E0000E
E0000E
E0000E
70001C
70001C
300018
380038
1C0070
0E00E0
0783C0
00FE00
ENDCHAR
STARTCHAR uni1E4F
ENCODING 7759
SWIDTH 602 0
DWIDTH 20 0
BBX 17 27 2 0
BITMAP
0E3800
0E3800
0E3800
000000
078400
0FF800
10F000
000000
000000
07F000
1C1C00
380E00
700700
700700
E00380
E00380
E00380
E00380
E00380
E00380
E00380
E00380
700700
700700
380E00
1C1C00
07F000
ENDCHAR
STARTCHAR uni1E50
ENCODING 7760
SWIDTH 777 0
DWIDTH 26 0
BBX 23 34 2 0
BITMAP
01E000
007000
003000
001800
000C00
000000
01FF00
01FF00
000000
00FE00
0783C0
0E00E0
1C0070
380038
300018
70001C
70001C
E0000E
E0000E
E0000E
E0000E
E0000E
E0000E
E0000E
E0000E
E0000E
70001C
70001C
300018
380038
1C0070
0E00E0
0783C0
00FE00
ENDCHAR
STARTCHAR uni1E51
ENCODING 7761
SWIDTH 602 0
DWIDTH 20 0
BBX 17 27 2 0
BITMAP
0F0000
038000
018000
00C000
006000
000000
0FF800
0FF800
000000
07F000
1C1C00
380E00
700700
700700
E00380
E00380
E00380
E00380
E00380
E00380
E00380
E00380
700700
700700
380E00
1C1C00
07F000
ENDCHAR
STARTCHAR uni1E52
ENCODING 7762
SWIDTH 777 0
DWIDTH 26 0
BBX 23 34 2 0
BITMAP
000F00
001C00
001800
003000
006000
000000
01FF00
01FF00
000000
00FE00
0783C0
0E00E0
1C0070
380038
300018
70001C
70001C
E0000E
E0000E
E0000E
E0000E
E0000E
E0000E
E0000E
E0000E
E0000E
70001C
70001C
300018
380038
1C0070
0E00E0
0783C0
00FE00
ENDCHAR
STARTCHAR uni1E53
ENCODING 7763
SWIDTH 602 0
DWIDTH 20 0
BBX 17 27 2 0
BITMAP
007800
00E000
00C000
018000
030000
000000
0FF800
0FF800
000000
07F000
1C1C00
380E00
700700
700700
E00380
E00380
E00380
E00380
E00380
E00380
E00380
E00380
700700
700700
380E00
1C1C00
07F000
ENDCHAR
STARTCHAR uni1E54
ENCODING 7764
SWIDTH 573 0
DWIDTH 19 0
BBX 18 31 1 0
BITMAP
003C00
007000
006000
00C000
018000
000000
FFFC00
3C0F00
1C0380
1C0180
1C01C0
1C01C0
1C01C0
1C01C0
1C01C0
1C0380
1C0380
1C0700
1C1E00
1FF000
1C0000
1C0000
1C0000
1C0000
1C0000
1C0000
1C0000
1C0000
1C0000
3E0000
FF8000
ENDCHAR
STARTCHAR uni1E55
ENCODING 7765
SWIDTH 642 0
DWIDTH 22 0
BBX 19 31 1 -7
BITMAP
003C00
007000
006000
00C000
018000
000000
FC3E00
3CFF80
1D8780
1E01C0
1C01C0
1C00E0
1C00E0
1C00E0
1C00E0
1C00E0
1C00E0
1C00E0
1C00C0
1C01C0
1C01C0
1F0380
1DFF00
1C7C00
1C0000
1C0000
1C0000
1C0000
1C0000
3E0000
FF8000
ENDCHAR
STARTCHAR uni1E56
ENCODING 7766
SWIDTH 573 0
DWIDTH 19 0
BBX 18 29 1 0
BITMAP
00E000
00E000
00E000
000000
FFFC00
3C0F00
1C0380
1C0180
1C01C0
1C01C0
1C01C0
1C01C0
1C01C0
1C0380
1C0380
1C0700
1C1E00
1FF000
1C0000
1C0000
1C0000
1C0000
1C0000
1C0000
1C0000
1C0000
1C0000
3E0000
FF8000
ENDCHAR
STARTCHAR uni1E57
ENCODING 7767
SWIDTH 642 0
DWIDTH 22 0
BBX 19 29 1 -7
BITMAP
00E000
00E000
00E000
000000
FC3E00
3CFF80
1D8780
1E01C0
1C01C0
1C00E0
1C00E0
1C00E0
1C00E0
1C00E0
1C00E0
1C00E0
1C00C0
1C01C0
1C01C0
1F0380
1DFF00
1C7C00
1C0000
1C0000
1C0000
1C0000
1C0000
3E0000
FF8000
ENDCHAR
STARTCHAR uni1E58
ENCODING 7768
SWIDTH 679 0
DWIDTH 23 0
BBX 23 29 0 0
BITMAP
00E000
00E000
00E000
000000
FFFC00
3C0F00
1C0380
1C0180
1C01C0
1C01C0
1C01C0
1C01C0
1C01C0
1C0180
1C0380
1C0700
1C1E00
1FF800
1C3C00
1C1C00
1C1E00
1C0F00
1C0700
1C0780
1C0380
1C01C0
1C01E0
3E00F0
FF807E
ENDCHAR
STARTCHAR uni1E59
ENCODING 7769
SWIDTH 440 0
DWIDTH 15 0
BBX 13 22 1 0
BITMAP
0700
0700
0700
0000
FC78
3CF8
1D18
1E18
1C18
1C00
1C00
1C00
1C00
1C00
1C00
1C00
1C00
1C00
1C00
1C00
3E00
FF80
ENDCHAR
STARTCHAR uni1E5A
ENCODING 7770
SWIDTH 679 0
DWIDTH 23 0
BBX 23 29 0 -4
BITMAP
FFFC00
3C0F00
1C0380
1C0180
1C01C0
1C01C0
1C01C0
1C01C0
1C01C0
1C0180
1C0380
1C0700
1C1E00
1FF800
1C3C00
1C1C00
1C1E00
1C0F00
1C0700
1C0780
1C0380
1C01C0
1C01E0
3E00F0
FF807E
000000
007000
007000
007000
ENDCHAR
STARTCHAR uni1E5B
ENCODING 7771
SWIDTH 440 0
DWIDTH 15 0
BBX 13 22 1 -4
BITMAP
FC78
3CF8
1D18
1E18
1C18
1C00
1C00
1C00
1C00
1C00
1C00
1C00
1C00
1C00
1C00
1C00
3E00
FF80
0000
0E00
0E00
0E00
ENDCHAR
STARTCHAR uni1E5C
ENCODING 7772
SWIDTH 679 0
DWIDTH 23 0
BBX 23 32 0 -4
BITMAP
03FE00
03FE00
000000
FFFC00
3C0F00
1C0380
1C0180
1C01C0
1C01C0
1C01C0
1C01C0
1C01C0
1C0180
1C0380
1C0700
1C1E00
1FF800
1C3C00
1C1C00
1C1E00
1C0F00
1C0700
1C0780
1C0380
1C01C0
1C01E0
3E00F0
FF807E
000000
007000
007000
007000
ENDCHAR
STARTCHAR uni1E5D
ENCODING 7773
SWIDTH 440 0
DWIDTH 15 0
BBX 13 25 1 -4
BITMAP
3FE0
3FE0
0000
FC78
3CF8
1D18
1E18
1C18
1C00
1C00
1C00
1C00
1C00
1C00
1C00
1C00
1C00
1C00
1C00
3E00
FF80
0000
0E00
0E00
0E00
ENDCHAR
STARTCHAR uni1E5E
ENCODING 7774
SWIDTH 679 0
DWIDTH 23 0
BBX 23 28 0 -3
BITMAP
FFFC00
3C0F00
1C0380
1C0180
1C01C0
1C01C0
1C01C0
1C01C0
1C01C0
1C0180
1C0380
1C0700
1C1E00
1FF800
1C3C00
1C1C00
1C1E00
1C0F00
1C0700
1C0780
1C0380
1C01C0
1C01E0
3E00F0
FF807E
000000
03FE00
03FE00
ENDCHAR
STARTCHAR uni1E5F
ENCODING 7775
SWIDTH 440 0
DWIDTH 15 0
BBX 13 21 1 -3
BITMAP
FC78
3CF8
1D18
1E18
1C18
1C00
1C00
1C00
1C00
1C00
1C00
1C00
1C00
1C00
1C00
1C00
3E00
FF80
0000
7FC0
7FC0
ENDCHAR
STARTCHAR uni1E60
ENCODING 7776
SWIDTH 542 0
DWIDTH 18 0
BBX 15 29 2 0
BITMAP
0700
0700
0700
0000
0FF0
181C
700C
600C
E00C
E000
E000
E000
F000
7C00
3F00
1F80
07E0
01F8
007C
003C
001E
000E
000E
C00E
C00C
C00C
E018
F870
3FC0
ENDCHAR
STARTCHAR uni1E61
ENCODING 7777
SWIDTH 504 0
DWIDTH 17 0
BBX 13 22 2 0
BITMAP
0700
0700
0700
0000
1FC0
3070
6030
E030
E030
E000
F800
7E00
3F80
0FE0
03F0
0078
C038
C038
C038
E070
F0E0
3F80
ENDCHAR
STARTCHAR uni1E62
ENCODING 7778
SWIDTH 542 0
DWIDTH 18 0
BBX 15 29 2 -4
BITMAP
0FF0
181C
700C
600C
E00C
E000
E000
E000
F000
7C00
3F00
1F80
07E0
01F8
007C
003C
001E
000E
000E
C00E
C00C
C00C
E018
F870
3FC0
0000
0380
0380
0380
ENDCHAR
STARTCHAR uni1E63
ENCODING 7779
SWIDTH 504 0
DWIDTH 17 0
BBX 13 22 2 -4
BITMAP
1FC0
3070
6030
E030
E030
E000
F800
7E00
3F80
0FE0
03F0
0078
C038
C038
C038
E070
F0E0
3F80
0000
0700
0700
0700
ENDCHAR
STARTCHAR uni1E64
ENCODING 7780
SWIDTH 542 0
DWIDTH 18 0
BBX 15 35 2 0
BITMAP
01C0
01C0
01C0
0000
00F0
01C0
0180
0300
0600
0000
0FF0
181C
700C
600C
E00C
E000
E000
E000
F000
7C00
3F00
1F80
07E0
01F8
007C
003C
001E
000E
000E
C00E
C00C
C00C
E018
F870
3FC0
ENDCHAR
STARTCHAR uni1E65
ENCODING 7781
SWIDTH 504 0
DWIDTH 17 0
BBX 13 28 2 0
BITMAP
0700
0700
0700
0000
01E0
0380
0300
0600
0C00
0000
1FC0
3070
6030
E030
E030
E000
F800
7E00
3F80
0FE0
03F0
0078
C038
C038
C038
E070
F0E0
3F80
ENDCHAR
STARTCHAR uni1E66
ENCODING 7782
SWIDTH 542 0
DWIDTH 18 0
BBX 15 36 2 0
BITMAP
0380
0380
0380
0000
3018
1830
0C60
07C0
07C0
0000
0000
0FF0
181C
700C
600C
E00C
E000
E000
E000
F000
7C00
3F00
1F80
07E0
01F8
007C
003C
001E
000E
000E
C00E
C00C
C00C
E018
F870
3FC0
ENDCHAR
STARTCHAR uni1E67
ENCODING 7783
SWIDTH 504 0
DWIDTH 17 0
BBX 13 29 2 0
BITMAP
0700
0700
0700
0000
6030
3060
18C0
0F80
0F80
0000
0000
1FC0
3070
6030
E030
E030
E000
F800
7E00
3F80
0FE0
03F0
0078
C038
C038
C038
E070
F0E0
3F80
ENDCHAR
STARTCHAR uni1E68
ENCODING 7784
SWIDTH 542 0
DWIDTH 18 0
BBX 15 33 2 -4
BITMAP
0700
0700
0700
0000
0FF0
181C
700C
600C
E00C
E000
E000
E000
F000
7C00
3F00
1F80
07E0
01F8
007C
003C
001E
000E
000E
C00E
C00C
C00C
E018
F870
3FC0
0000
0380
0380
0380
ENDCHAR
STARTCHAR uni1E69
ENCODING 7785
SWIDTH 504 0
DWIDTH 17 0
BBX 13 26 2 -4
BITMAP
0E00
0E00
0E00
0000
1FC0
3070
6030
E030
E030
E000
F800
7E00
3F80
0FE0
03F0
0078
C038
C038
C038
E070
F0E0
3F80
0000
0700
0700
0700
ENDCHAR
STARTCHAR uni1E6A
ENCODING 7786
SWIDTH 663 0
DWIDTH 23 0
BBX 21 29 1 0
BITMAP
007000
007000
007000
000000
FFFFF8
E07038
C07018
C07018
007000
007000
007000
007000
007000
007000
007000
007000
007000
007000
007000
007000
007000
007000
007000
007000
007000
007000
007000
00F800
03FE00
ENDCHAR
STARTCHAR uni1E6B
ENCODING 7787
SWIDTH 392 0
DWIDTH 13 0
BBX 11 27 1 0
BITMAP
0E00
0E00
0E00
0000
0C00
1C00
1C00
1C00
1C00
FFE0
1C00
1C00
1C00
1C00
1C00
1C00
1C00
1C00
1C00
1C00
1C00
1C00
1C00
1C00
1C00
0E00
07E0
ENDCHAR
STARTCHAR uni1E6C
ENCODING 7788
SWIDTH 663 0
DWIDTH 23 0
BBX 21 29 1 -4
BITMAP
FFFFF8
E07038
C07018
C07018
007000
007000
007000
007000
007000
007000
007000
007000
007000
007000
007000
007000
007000
007000
007000
007000
007000
007000
007000
00F800
03FE00
000000
007000
007000
007000
ENDCHAR
STARTCHAR uni1E6D
ENCODING 7789
SWIDTH 392 0
DWIDTH 13 0
BBX 11 27 1 -4
BITMAP
0C00
1C00
1C00
1C00
1C00
FFE0
1C00
1C00
1C00
1C00
1C00
1C00
1C00
1C00
1C00
1C00
1C00
1C00
1C00
1C00
1C00
0E00
07E0
0000
0E00
0E00
0E00
ENDCHAR
STARTCHAR uni1E6E
ENCODING 7790
SWIDTH 663 0
DWIDTH 23 0
BBX 21 28 1 -3
BITMAP
FFFFF8
E07038
C07018
C07018
007000
007000
007000
007000
007000
007000
007000
007000
007000
007000
007000
007000
007000
007000
007000
007000
007000
007000
007000
00F800
03FE00
000000
03FE00
03FE00
ENDCHAR
STARTCHAR uni1E6F
ENCODING 7791
SWIDTH 392 0
DWIDTH 13 0
BBX 11 26 1 -3
BITMAP
0C00
1C00
1C00
1C00
1C00
FFE0
1C00
1C00
1C00
1C00
1C00
1C00
1C00
1C00
1C00
1C00
1C00
1C00
1C00
1C00
1C00
0E00
07E0
0000
7FC0
7FC0
ENDCHAR
STARTCHAR uni1E70
ENCODING 7792
SWIDTH 663 0
DWIDTH 23 0
BBX 21 31 1 -6
BITMAP
FFFFF8
E07038
C07018
C07018
007000
007000
007000
007000
007000
007000
007000
007000
007000
007000
007000
007000
007000
007000
007000
007000
007000
007000
007000
00F800
03FE00
000000
00F800
00F800
01DC00
030600
060300
ENDCHAR
STARTCHAR uni1E71
ENCODING 7793
SWIDTH 392 0
DWIDTH 13 0
BBX 11 29 1 -6
BITMAP
0C00
1C00
1C00
1C00
1C00
FFE0
1C00
1C00
1C00
1C00
1C00
1C00
1C00
1C00
1C00
1C00
1C00
1C00
1C00
1C00
1C00
0E00
07E0
0000
1F00
1F00
3B80
60C0
C060
ENDCHAR
STARTCHAR uni1E72
ENCODING 7794
SWIDTH 719 0
DWIDTH 24 0
BBX 24 29 0 -4
BITMAP
FF80FF
3E003C
1C0018
1C0018
1C0018
1C0018
1C0018
1C0018
1C0018
1C0018
1C0018
1C0018
1C0018
1C0018
1C0018
1C0018
1C0018
1C0018
1C0018
1C0010
0E0030
0E0030
070060
0381C0
00FF00
000000
01C700
01C700
01C700
ENDCHAR
STARTCHAR uni1E73
ENCODING 7795
SWIDTH 633 0
DWIDTH 21 0
BBX 21 22 0 -4
BITMAP
FC0FC0
3C03C0
1C01C0
1C01C0
1C01C0
1C01C0
1C01C0
1C01C0
1C01C0
1C01C0
1C01C0
1C01C0
1C01C0
1C01C0
1C07C0
0E0DC0
0FF9E0
03E1F8
000000
01C700
01C700
01C700
ENDCHAR
STARTCHAR uni1E74
ENCODING 7796
SWIDTH 719 0
DWIDTH 24 0
BBX 24 29 0 -4
BITMAP
FF80FF
3E003C
1C0018
1C0018
1C0018
1C0018
1C0018
1C0018
1C0018
1C0018
1C0018
1C0018
1C0018
1C0018
1C0018
1C0018
1C0018
1C0018
1C0018
1C0010
0E0030
0E0030
070060
0381C0
00FF00
000000
00F080
01FF00
021E00
ENDCHAR
STARTCHAR uni1E75
ENCODING 7797
SWIDTH 633 0
DWIDTH 21 0
BBX 21 22 0 -4
BITMAP
FC0FC0
3C03C0
1C01C0
1C01C0
1C01C0
1C01C0
1C01C0
1C01C0
1C01C0
1C01C0
1C01C0
1C01C0
1C01C0
1C01C0
1C07C0
0E0DC0
0FF9E0
03E1F8
000000
00F080
01FF00
021E00
ENDCHAR
STARTCHAR uni1E76
ENCODING 7798
SWIDTH 719 0
DWIDTH 24 0
BBX 24 31 0 -6
BITMAP
FF80FF
3E003C
1C0018
1C0018
1C0018
1C0018
1C0018
1C0018
1C0018
1C0018
1C0018
1C0018
1C0018
1C0018
1C0018
1C0018
1C0018
1C0018
1C0018
1C0010
0E0030
0E0030
070060
0381C0
00FF00
000000
007C00
007C00
00EE00
018300
030180
ENDCHAR
STARTCHAR uni1E77
ENCODING 7799
SWIDTH 633 0
DWIDTH 21 0
BBX 21 24 0 -6
BITMAP
FC0FC0
3C03C0
1C01C0
1C01C0
1C01C0
1C01C0
1C01C0
1C01C0
1C01C0
1C01C0
1C01C0
1C01C0
1C01C0
1C01C0
1C07C0
0E0DC0
0FF9E0
03E1F8
000000
007C00
007C00
00EE00
018300
030180
ENDCHAR
STARTCHAR uni1E78
ENCODING 7800
SWIDTH 719 0
DWIDTH 24 0
BBX 24 35 0 0
BITMAP
000F00
001C00
001800
003000
006000
000000
00F080
01FF00
021E00
000000
FF80FF
3E003C
1C0018
1C0018
1C0018
1C0018
1C0018
1C0018
1C0018
1C0018
1C0018
1C0018
1C0018
1C0018
1C0018
1C0018
1C0018
1C0018
1C0018
1C0010
0E0030
0E0030
070060
0381C0
00FF00
ENDCHAR
STARTCHAR uni1E79
ENCODING 7801
SWIDTH 633 0
DWIDTH 21 0
BBX 21 28 0 0
BITMAP
001E00
003800
003000
006000
00C000
000000
03C200
07FC00
087800
000000
FC0FC0
3C03C0
1C01C0
1C01C0
1C01C0
1C01C0
1C01C0
1C01C0
1C01C0
1C01C0
1C01C0
1C01C0
1C01C0
1C01C0
1C07C0
0E0DC0
0FF9E0
03E1F8
ENDCHAR
STARTCHAR uni1E7A
ENCODING 7802
SWIDTH 719 0
DWIDTH 24 0
BBX 24 32 0 0
BITMAP
01C700
01C700
01C700
000000
01FF00
01FF00
000000
FF80FF
3E003C
1C0018
1C0018
1C0018
1C0018
1C0018
1C0018
1C0018
1C0018
1C0018
1C0018
1C0018
1C0018
1C0018
1C0018
1C0018
1C0018
1C0018
1C0010
0E0030
0E0030
070060
0381C0
00FF00
ENDCHAR
STARTCHAR uni1E7B
ENCODING 7803
SWIDTH 633 0
DWIDTH 21 0
BBX 21 25 0 0
BITMAP
038E00
038E00
038E00
000000
03FE00
03FE00
000000
FC0FC0
3C03C0
1C01C0
1C01C0
1C01C0
1C01C0
1C01C0
1C01C0
1C01C0
1C01C0
1C01C0
1C01C0
1C01C0
1C01C0
1C07C0
0E0DC0
0FF9E0
03E1F8
ENDCHAR
STARTCHAR uni1E7C
ENCODING 7804
SWIDTH 699 0
DWIDTH 24 0
BBX 24 29 0 0
BITMAP
01E100
03FE00
043C00
000000
FF803F
3C000C
1C000C
1C0008
0E0008
0E0010
0F0010
070030
070020
038020
038040
03C040
01C040
01E080
00E080
00E100
007100
007100
007A00
003A00
003E00
001C00
001C00
001800
000800
ENDCHAR
STARTCHAR uni1E7D
ENCODING 7805
SWIDTH 545 0
DWIDTH 19 0
BBX 19 22 0 0
BITMAP
078400
0FF800
10F000
000000
FF03E0
7800C0
3C0080
1C0180
1C0100
0E0300
0E0200
0F0200
070400
078400
038800
038800
01D000
01D000
01E000
00E000
00C000
004000
ENDCHAR
STARTCHAR uni1E7E
ENCODING 7806
SWIDTH 699 0
DWIDTH 24 0
BBX 24 29 0 -4
BITMAP
FF803F
3C000C
1C000C
1C0008
0E0008
0E0010
0F0010
070030
070020
038020
038040
03C040
01C040
01E080
00E080
00E100
007100
007100
007A00
003A00
003E00
001C00
001C00
001800
000800
000000
001C00
001C00
001C00
ENDCHAR
STARTCHAR uni1E7F
ENCODING 7807
SWIDTH 545 0
DWIDTH 19 0
BBX 19 22 0 -4
BITMAP
FF03E0
7800C0
3C0080
1C0180
1C0100
0E0300
0E0200
0F0200
070400
078400
038800
038800
01D000
01D000
01E000
00E000
00C000
004000
000000
00E000
00E000
00E000
ENDCHAR
STARTCHAR Wgrave
ENCODING 7808
SWIDTH 925 0
DWIDTH 31 0
BBX 31 31 0 0
BITMAP
00780000
001C0000
000C0000
00060000
00030000
00000000
FF8180FE
3C018018
3C018010
1C01C010
1C03C010
1E03C020
0E03C020
0E04E020
0E04E040
0F04E040
070CF040
07087040
07087080
03887080
03903880
03903900
03903900
01E01D00
01E01D00
01E01E00
01E00E00
00C00E00
00C00C00
00C00C00
00800400
ENDCHAR
STARTCHAR wgrave
ENCODING 7809
SWIDTH 795 0
DWIDTH 27 0
BBX 27 24 0 0
BITMAP
01E00000
00700000
00300000
00180000
000C0000
00000000
FF0207E0
780600C0
38070080
380F0080
3C0F8100
1C0B8100
1C138100
1E13C200
0E31C200
0E21C600
0F20E400
0740E400
0740F800
07C07800
03807800
03803000
03003000
01003000
ENDCHAR
STARTCHAR Wacute
ENCODING 7810
SWIDTH 925 0
DWIDTH 31 0
BBX 31 31 0 0
BITMAP
0001E000
00038000
00030000
00060000
000C0000
00000000
FF8180FE
3C018018
3C018010
1C01C010
1C03C010
1E03C020
0E03C020
0E04E020
0E04E040
0F04E040
070CF040
07087040
07087080
03887080
03903880
03903900
03903900
01E01D00
01E01D00
01E01E00
01E00E00
00C00E00
00C00C00
00C00C00
00800400
ENDCHAR
STARTCHAR wacute
ENCODING 7811
SWIDTH 795 0
DWIDTH 27 0
BBX 27 24 0 0
BITMAP
00078000
000E0000
000C0000
00180000
00300000
00000000
FF0207E0
780600C0
38070080
380F0080
3C0F8100
1C0B8100
1C138100
1E13C200
0E31C200
0E21C600
0F20E400
0740E400
0740F800
07C07800
03807800
03803000
03003000
01003000
ENDCHAR
STARTCHAR Wdieresis
ENCODING 7812
SWIDTH 925 0
DWIDTH 31 0
BBX 31 29 0 0
BITMAP
0071C000
0071C000
0071C000
00000000
FF8180FE
3C018018
3C018010
1C01C010
1C03C010
1E03C020
0E03C020
0E04E020
0E04E040
0F04E040
070CF040
07087040
07087080
03887080
03903880
03903900
03903900
01E01D00
01E01D00
01E01E00
01E00E00
00C00E00
00C00C00
00C00C00
00800400
ENDCHAR
STARTCHAR wdieresis
ENCODING 7813
SWIDTH 795 0
DWIDTH 27 0
BBX 27 22 0 0
BITMAP
00E38000
00E38000
00E38000
00000000
FF0207E0
780600C0
38070080
380F0080
3C0F8100
1C0B8100
1C138100
1E13C200
0E31C200
0E21C600
0F20E400
0740E400
0740F800
07C07800
03807800
03803000
03003000
01003000
ENDCHAR
STARTCHAR uni1E86
ENCODING 7814
SWIDTH 925 0
DWIDTH 31 0
BBX 31 29 0 0
BITMAP
000E0000
000E0000
000E0000
00000000
FF8180FE
3C018018
3C018010
1C01C010
1C03C010
1E03C020
0E03C020
0E04E020
0E04E040
0F04E040
070CF040
07087040
07087080
03887080
03903880
03903900
03903900
01E01D00
01E01D00
01E01E00
01E00E00
00C00E00
00C00C00
00C00C00
00800400
ENDCHAR
STARTCHAR uni1E87
ENCODING 7815
SWIDTH 795 0
DWIDTH 27 0
BBX 27 22 0 0
BITMAP
001C0000
001C0000
001C0000
00000000
FF0207E0
780600C0
38070080
380F0080
3C0F8100
1C0B8100
1C138100
1E13C200
0E31C200
0E21C600
0F20E400
0740E400
0740F800
07C07800
03807800
03803000
03003000
01003000
ENDCHAR
STARTCHAR uni1E88
ENCODING 7816
SWIDTH 925 0
DWIDTH 31 0
BBX 31 29 0 -4
BITMAP
FF8180FE
3C018018
3C018010
1C01C010
1C03C010
1E03C020
0E03C020
0E04E020
0E04E040
0F04E040
070CF040
07087040
07087080
03887080
03903880
03903900
03903900
01E01D00
01E01D00
01E01E00
01E00E00
00C00E00
00C00C00
00C00C00
00800400
00000000
00038000
00038000
00038000
ENDCHAR
STARTCHAR uni1E89
ENCODING 7817
SWIDTH 795 0
DWIDTH 27 0
BBX 27 22 0 -4
BITMAP
FF0207E0
780600C0
38070080
380F0080
3C0F8100
1C0B8100
1C138100
1E13C200
0E31C200
0E21C600
0F20E400
0740E400
0740F800
07C07800
03807800
03803000
03003000
01003000
00000000
000E0000
000E0000
000E0000
ENDCHAR
STARTCHAR uni1E8A
ENCODING 7818
SWIDTH 657 0
DWIDTH 22 0
BBX 22 29 0 0
BITMAP
007000
007000
007000
000000
FFC0FC
3E0030
0E0060
0F0040
070080
078180
038100
01C200
01E600
00E400
00F800
007800
007800
007C00
00DC00
008E00
010F00
030700
020780
040380
0C03C0
0801C0
1001E0
3000F0
FE07FC
ENDCHAR
STARTCHAR uni1E8B
ENCODING 7819
SWIDTH 557 0
DWIDTH 19 0
BBX 19 22 0 0
BITMAP
01C000
01C000
01C000
000000
FF07C0
7C0180
1E0300
1E0200
0F0400
078800
039800
01D000
01E000
00F000
017800
027800
043C00
0C1E00
080F00
100F00
700780
FC1FE0
ENDCHAR
STARTCHAR uni1E8C
ENCODING 7820
SWIDTH 657 0
DWIDTH 22 0
BBX 22 29 0 0
BITMAP
038E00
038E00
038E00
000000
FFC0FC
3E0030
0E0060
0F0040
070080
078180
038100
01C200
01E600
00E400
00F800
007800
007800
007C00
00DC00
008E00
010F00
030700
020780
040380
0C03C0
0801C0
1001E0
3000F0
FE07FC
ENDCHAR
STARTCHAR uni1E8D
ENCODING 7821
SWIDTH 557 0
DWIDTH 19 0
BBX 19 22 0 0
BITMAP
0E3800
0E3800
0E3800
000000
FF07C0
7C0180
1E0300
1E0200
0F0400
078800
039800
01D000
01E000
00F000
017800
027800
043C00
0C1E00
080F00
100F00
700780
FC1FE0
ENDCHAR
STARTCHAR uni1E8E
ENCODING 7822
SWIDTH 678 0
DWIDTH 23 0
BBX 23 29 0 0
BITMAP
007000
007000
007000
000000
FFC0FE
3E0018
1E0010
0F0020
070020
078040
0380C0
03C080
01C100
00E100
00F200
007400
007C00
003800
003800
003800
003800
003800
003800
003800
003800
003800
003800
007C00
01FF00
ENDCHAR
STARTCHAR uni1E8F
ENCODING 7823
SWIDTH 551 0
DWIDTH 19 0
BBX 19 29 0 -7
BITMAP
01C000
01C000
01C000
000000
FF03E0
3C00C0
3C0080
1C0180
1C0100
0E0100
0E0200
0F0200
070400
078400
038C00
038800
01C800
01D000
01F000
00E000
00E000
004000
004000
00C000
018000
038000
070000
0F0000
1E0000
ENDCHAR
STARTCHAR uni1E90
ENCODING 7824
SWIDTH 633 0
DWIDTH 21 0
BBX 18 31 1 0
BITMAP
01F000
01F000
03B800
060C00
0C0600
000000
7FFFC0
700380
600780
600700
600E00
000E00
001C00
003C00
003800
007800
00F000
00E000
01E000
01C000
03C000
078000
070000
0F0000
0E0000
1E0000
3C0000
3C00C0
7800C0
7001C0
FFFFC0
ENDCHAR
STARTCHAR uni1E91
ENCODING 7825
SWIDTH 595 0
DWIDTH 20 0
BBX 15 24 3 0
BITMAP
07C0
07C0
0EE0
1830
3018
0000
FFFE
E03C
C038
C078
00F0
00E0
01E0
03C0
0380
0780
0F00
0E00
1E00
3C00
3806
7806
F00E
FFFE
ENDCHAR
STARTCHAR uni1E92
ENCODING 7826
SWIDTH 633 0
DWIDTH 21 0
BBX 18 29 1 -4
BITMAP
7FFFC0
700380
600780
600700
600E00
000E00
001C00
003C00
003800
007800
00F000
00E000
01E000
01C000
03C000
078000
070000
0F0000
0E0000
1E0000
3C0000
3C00C0
7800C0
7001C0
FFFFC0
000000
01C000
01C000
01C000
ENDCHAR
STARTCHAR uni1E93
ENCODING 7827
SWIDTH 595 0
DWIDTH 20 0
BBX 15 22 3 -4
BITMAP
FFFE
E03C
C038
C078
00F0
00E0
01E0
03C0
0380
0780
0F00
0E00
1E00
3C00
3806
7806
F00E
FFFE
0000
0380
0380
0380
ENDCHAR
STARTCHAR uni1E94
ENCODING 7828
SWIDTH 633 0
DWIDTH 21 0
BBX 18 28 1 -3
BITMAP
7FFFC0
700380
600780
600700
600E00
000E00
001C00
003C00
003800
007800
00F000
00E000
01E000
01C000
03C000
078000
070000
0F0000
0E0000
1E0000
3C0000
3C00C0
7800C0
7001C0
FFFFC0
000000
0FF800
0FF800
ENDCHAR
STARTCHAR uni1E95
ENCODING 7829
SWIDTH 595 0
DWIDTH 20 0
BBX 15 21 3 -3
BITMAP
FFFE
E03C
C038
C078
00F0
00E0
01E0
03C0
0380
0780
0F00
0E00
1E00
3C00
3806
7806
F00E
FFFE
0000
1FF0
1FF0
ENDCHAR
STARTCHAR uni1E96
ENCODING 7830
SWIDTH 633 0
DWIDTH 21 0
BBX 21 29 1 -3
BITMAP
FC0000
3C0000
1C0000
1C0000
1C0000
1C0000
1C0000
1C0000
1C3E00
1CFF80
1DC380
1F01C0
1C01C0
1C01C0
1C01C0
1C01C0
1C01C0
1C01C0
1C01C0
1C01C0
1C01C0
1C01C0
1C01C0
1C01C0
3E03E0
FF8FF8
000000
03FE00
03FE00
ENDCHAR
STARTCHAR uni1E97
ENCODING 7831
SWIDTH 392 0
DWIDTH 13 0
BBX 11 27 1 0
BITMAP
71C0
71C0
71C0
0000
0C00
1C00
1C00
1C00
1C00
FFE0
1C00
1C00
1C00
1C00
1C00
1C00
1C00
1C00
1C00
1C00
1C00
1C00
1C00
1C00
1C00
0E00
07E0
ENDCHAR
STARTCHAR uni1E98
ENCODING 7832
SWIDTH 795 0
DWIDTH 27 0
BBX 27 24 0 0
BITMAP
001C0000
00220000
00220000
00220000
001C0000
00000000
FF0207E0
780600C0
38070080
380F0080
3C0F8100
1C0B8100
1C138100
1E13C200
0E31C200
0E21C600
0F20E400
0740E400
0740F800
07C07800
03807800
03803000
03003000
01003000
ENDCHAR
STARTCHAR uni1E99
ENCODING 7833
SWIDTH 551 0
DWIDTH 19 0
BBX 19 31 0 -7
BITMAP
01C000
022000
022000
022000
01C000
000000
FF03E0
3C00C0
3C0080
1C0180
1C0100
0E0100
0E0200
0F0200
070400
078400
038C00
038800
01C800
01D000
01F000
00E000
00E000
004000
004000
00C000
018000
038000
070000
0F0000
1E0000
ENDCHAR
STARTCHAR uni1EA0
ENCODING 7840
SWIDTH 744 0
DWIDTH 25 0
BBX 25 29 0 -4
BITMAP
00080000
00080000
001C0000
001C0000
003E0000
002E0000
006F0000
00470000
00470000
00838000
00838000
0103C000
0101C000
0101C000
0200E000
0200E000
07FFF000
04007000
04007000
08003800
08003800
10003C00
10001C00
30001E00
FC00FF80
00000000
00070000
00070000
00070000
ENDCHAR
STARTCHAR uni1EA1
ENCODING 7841
SWIDTH 543 0
DWIDTH 18 0
BBX 17 22 1 -4
BITMAP
0FE000
707800
603800
601C00
001C00
001C00
001C00
03FC00
1C1C00
701C00
701C00
E01C00
E01C00
E01C00
F01C00
786C00
7FCE80
1F0780
000000
01C000
01C000
01C000
ENDCHAR
STARTCHAR uni1EA4
ENCODING 7844
SWIDTH 744 0
DWIDTH 25 0
BBX 25 38 0 0
BITMAP
00078000
000E0000
000C0000
00180000
00300000
00000000
003E0000
003E0000
00770000
00C18000
0180C000
00000000
00000000
00080000
00080000
001C0000
001C0000
003E0000
002E0000
006F0000
00470000
00470000
00838000
00838000
0103C000
0101C000
0101C000
0200E000
0200E000
07FFF000
04007000
04007000
08003800
08003800
10003C00
10001C00
30001E00
FC00FF80
ENDCHAR
STARTCHAR uni1EA5
ENCODING 7845
SWIDTH 543 0
DWIDTH 18 0
BBX 17 31 1 0
BITMAP
007800
00E000
00C000
018000
030000
000000
03E000
03E000
077000
0C1800
180C00
000000
000000
0FE000
707800
603800
601C00
001C00
001C00
001C00
03FC00
1C1C00
701C00
701C00
E01C00
E01C00
E01C00
F01C00
786C00
7FCE80
1F0780
ENDCHAR
STARTCHAR uni1EA6
ENCODING 7846
SWIDTH 744 0
DWIDTH 25 0
BBX 25 38 0 0
BITMAP
00F00000
00380000
00180000
000C0000
00060000
00000000
003E0000
003E0000
00770000
00C18000
0180C000
00000000
00000000
00080000
00080000
001C0000
001C0000
003E0000
002E0000
006F0000
00470000
00470000
00838000
00838000
0103C000
0101C000
0101C000
0200E000
0200E000
07FFF000
04007000
04007000
08003800
08003800
10003C00
10001C00
30001E00
FC00FF80
ENDCHAR
STARTCHAR uni1EA7
ENCODING 7847
SWIDTH 543 0
DWIDTH 18 0
BBX 17 31 1 0
BITMAP
0F0000
038000
018000
00C000
006000
000000
03E000
03E000
077000
0C1800
180C00
000000
000000
0FE000
707800
603800
601C00
001C00
001C00
001C00
03FC00
1C1C00
701C00
701C00
E01C00
E01C00
E01C00
F01C00
786C00
7FCE80
1F0780
ENDCHAR
STARTCHAR uni1EAA
ENCODING 7850
SWIDTH 744 0
DWIDTH 25 0
BBX 25 36 0 0
BITMAP
00784000
00FF8000
010F0000
00000000
003E0000
003E0000
00770000
00C18000
0180C000
00000000
00000000
00080000
00080000
001C0000
001C0000
003E0000
002E0000
006F0000
00470000
00470000
00838000
00838000
0103C000
0101C000
0101C000
0200E000
0200E000
07FFF000
04007000
04007000
08003800
08003800
10003C00
10001C00
30001E00
FC00FF80
ENDCHAR
STARTCHAR uni1EAB
ENCODING 7851
SWIDTH 543 0
DWIDTH 18 0
BBX 17 29 1 0
BITMAP
078400
0FF800
10F000
000000
03E000
03E000
077000
0C1800
180C00
000000
000000
0FE000
707800
603800
601C00
001C00
001C00
001C00
03FC00
1C1C00
701C00
701C00
E01C00
E01C00
E01C00
F01C00
786C00
7FCE80
1F0780
ENDCHAR
STARTCHAR uni1EAC
ENCODING 7852
SWIDTH 744 0
DWIDTH 25 0
BBX 25 35 0 -4
BITMAP
003E0000
003E0000
00770000
00C18000
0180C000
00000000
00080000
00080000
001C0000
001C0000
003E0000
002E0000
006F0000
00470000
00470000
00838000
00838000
0103C000
0101C000
0101C000
0200E000
0200E000
07FFF000
04007000
04007000
08003800
08003800
10003C00
10001C00
30001E00
FC00FF80
00000000
00070000
00070000
00070000
ENDCHAR
STARTCHAR uni1EAD
ENCODING 7853
SWIDTH 543 0
DWIDTH 18 0
BBX 17 28 1 -4
BITMAP
03E000
03E000
077000
0C1800
180C00
000000
0FE000
707800
603800
601C00
001C00
001C00
001C00
03FC00
1C1C00
701C00
701C00
E01C00
E01C00
E01C00
F01C00
786C00
7FCE80
1F0780
000000
01C000
01C000
01C000
ENDCHAR
STARTCHAR uni1EAE
ENCODING 7854
SWIDTH 744 0
DWIDTH 25 0
BBX 25 37 0 0
BITMAP
00078000
000E0000
000C0000
00180000
00300000
00000000
01004000
0180C000
00FF8000
007F0000
003E0000
00000000
00080000
00080000
001C0000
001C0000
003E0000
002E0000
006F0000
00470000
00470000
00838000
00838000
0103C000
0101C000
0101C000
0200E000
0200E000
07FFF000
04007000
04007000
08003800
08003800
10003C00
10001C00
30001E00
FC00FF80
ENDCHAR
STARTCHAR uni1EAF
ENCODING 7855
SWIDTH 543 0
DWIDTH 18 0
BBX 17 30 1 0
BITMAP
007800
00E000
00C000
018000
030000
000000
100400
180C00
0FF800
07F000
03E000
000000
0FE000
707800
603800
601C00
001C00
001C00
001C00
03FC00
1C1C00
701C00
701C00
E01C00
E01C00
E01C00
F01C00
786C00
7FCE80
1F0780
ENDCHAR
STARTCHAR uni1EB0
ENCODING 7856
SWIDTH 744 0
DWIDTH 25 0
BBX 25 37 0 0
BITMAP
00F00000
00380000
00180000
000C0000
00060000
00000000
01004000
0180C000
00FF8000
007F0000
003E0000
00000000
00080000
00080000
001C0000
001C0000
003E0000
002E0000
006F0000
00470000
00470000
00838000
00838000
0103C000
0101C000
0101C000
0200E000
0200E000
07FFF000
04007000
04007000
08003800
08003800
10003C00
10001C00
30001E00
FC00FF80
ENDCHAR
STARTCHAR uni1EB1
ENCODING 7857
SWIDTH 543 0
DWIDTH 18 0
BBX 17 30 1 0
BITMAP
0F0000
038000
018000
00C000
006000
000000
100400
180C00
0FF800
07F000
03E000
000000
0FE000
707800
603800
601C00
001C00
001C00
001C00
03FC00
1C1C00
701C00
701C00
E01C00
E01C00
E01C00
F01C00
786C00
7FCE80
1F0780
ENDCHAR
STARTCHAR uni1EB4
ENCODING 7860
SWIDTH 744 0
DWIDTH 25 0
BBX 25 35 0 0
BITMAP
00784000
00FF8000
010F0000
00000000
01004000
0180C000
00FF8000
007F0000
003E0000
00000000
00080000
00080000
001C0000
001C0000
003E0000
002E0000
006F0000
00470000
00470000
00838000
00838000
0103C000
0101C000
0101C000
0200E000
0200E000
07FFF000
04007000
04007000
08003800
08003800
10003C00
10001C00
30001E00
FC00FF80
ENDCHAR
STARTCHAR uni1EB5
ENCODING 7861
SWIDTH 543 0
DWIDTH 18 0
BBX 17 28 1 0
BITMAP
078400
0FF800
10F000
000000
100400
180C00
0FF800
07F000
03E000
000000
0FE000
707800
603800
601C00
001C00
001C00
001C00
03FC00
1C1C00
701C00
701C00
E01C00
E01C00
E01C00
F01C00
786C00
7FCE80
1F0780
ENDCHAR
STARTCHAR uni1EB6
ENCODING 7862
SWIDTH 744 0
DWIDTH 25 0
BBX 25 35 0 -4
BITMAP
01004000
0180C000
00FF8000
007F0000
003E0000
00000000
00080000
00080000
001C0000
001C0000
003E0000
002E0000
006F0000
00470000
00470000
00838000
00838000
0103C000
0101C000
0101C000
0200E000
0200E000
07FFF000
04007000
04007000
08003800
08003800
10003C00
10001C00
30001E00
FC00FF80
00000000
00070000
00070000
00070000
ENDCHAR
STARTCHAR uni1EB7
ENCODING 7863
SWIDTH 543 0
DWIDTH 18 0
BBX 17 28 1 -4
BITMAP
100400
180C00
0FF800
07F000
03E000
000000
0FE000
707800
603800
601C00
001C00
001C00
001C00
03FC00
1C1C00
701C00
701C00
E01C00
E01C00
E01C00
F01C00
786C00
7FCE80
1F0780
000000
01C000
01C000
01C000
ENDCHAR
STARTCHAR uni1EB8
ENCODING 7864
SWIDTH 566 0
DWIDTH 19 0
BBX 17 29 1 -4
BITMAP
FFFF00
1C0700
1C0300
1C0300
1C0000
1C0000
1C0000
1C0000
1C0000
1C0000
1C0400
1C0400
1FFC00
1C0400
1C0400
1C0000
1C0000
1C0000
1C0000
1C0000
1C0000
1C0180
1C0180
3E0380
FFFF80
000000
01C000
01C000
01C000
ENDCHAR
STARTCHAR uni1EB9
ENCODING 7865
SWIDTH 530 0
DWIDTH 18 0
BBX 15 22 1 -4
BITMAP
07E0
1C38
301C
700C
600E
600E
E00E
FFFE
E000
E000
E000
E000
7000
7000
3800
1E06
0FFE
03F8
0000
0380
0380
0380
ENDCHAR
STARTCHAR uni1EBC
ENCODING 7868
SWIDTH 566 0
DWIDTH 19 0
BBX 17 29 1 0
BITMAP
0F0800
1FF000
21E000
000000
FFFF00
1C0700
1C0300
1C0300
1C0000
1C0000
1C0000
1C0000
1C0000
1C0000
1C0400
1C0400
1FFC00
1C0400
1C0400
1C0000
1C0000
1C0000
1C0000
1C0000
1C0000
1C0180
1C0180
3E0380
FFFF80
ENDCHAR
STARTCHAR uni1EBD
ENCODING 7869
SWIDTH 530 0
DWIDTH 18 0
BBX 15 22 1 0
BITMAP
0F08
1FF0
21E0
0000
07E0
1C38
301C
700C
600E
600E
E00E
FFFE
E000
E000
E000
E000
7000
7000
3800
1E06
0FFE
03F8
ENDCHAR
STARTCHAR uni1EBE
ENCODING 7870
SWIDTH 566 0
DWIDTH 19 0
BBX 17 38 1 0
BITMAP
007800
00E000
00C000
018000
030000
000000
03E000
03E000
077000
0C1800
180C00
000000
000000
FFFF00
1C0700
1C0300
1C0300
1C0000
1C0000
1C0000
1C0000
1C0000
1C0000
1C0400
1C0400
1FFC00
1C0400
1C0400
1C0000
1C0000
1C0000
1C0000
1C0000
1C0000
1C0180
1C0180
3E0380
FFFF80
ENDCHAR
STARTCHAR uni1EBF
ENCODING 7871
SWIDTH 530 0
DWIDTH 18 0
BBX 15 31 1 0
BITMAP
00F0
01C0
0180
0300
0600
0000
07C0
07C0
0EE0
1830
3018
0000
0000
07E0
1C38
301C
700C
600E
600E
E00E
FFFE
E000
E000
E000
E000
7000
7000
3800
1E06
0FFE
03F8
ENDCHAR
STARTCHAR uni1EC0
ENCODING 7872
SWIDTH 566 0
DWIDTH 19 0
BBX 17 38 1 0
BITMAP
0F0000
038000
018000
00C000
006000
000000
03E000
03E000
077000
0C1800
180C00
000000
000000
FFFF00
1C0700
1C0300
1C0300
1C0000
1C0000
1C0000
1C0000
1C0000
1C0000
1C0400
1C0400
1FFC00
1C0400
1C0400
1C0000
1C0000
1C0000
1C0000
1C0000
1C0000
1C0180
1C0180
3E0380
FFFF80
ENDCHAR
STARTCHAR uni1EC1
ENCODING 7873
SWIDTH 530 0
DWIDTH 18 0
BBX 15 31 1 0
BITMAP
1E00
0700
0300
0180
00C0
0000
07C0
07C0
0EE0
1830
3018
0000
0000
07E0
1C38
301C
700C
600E
600E
E00E
FFFE
E000
E000
E000
E000
7000
7000
3800
1E06
0FFE
03F8
ENDCHAR
STARTCHAR uni1EC4
ENCODING 7876
SWIDTH 566 0
DWIDTH 19 0
BBX 17 36 1 0
BITMAP
078400
0FF800
10F000
000000
03E000
03E000
077000
0C1800
180C00
000000
000000
FFFF00
1C0700
1C0300
1C0300
1C0000
1C0000
1C0000
1C0000
1C0000
1C0000
1C0400
1C0400
1FFC00
1C0400
1C0400
1C0000
1C0000
1C0000
1C0000
1C0000
1C0000
1C0180
1C0180
3E0380
FFFF80
ENDCHAR
STARTCHAR uni1EC5
ENCODING 7877
SWIDTH 530 0
DWIDTH 18 0
BBX 15 29 1 0
BITMAP
0F08
1FF0
21E0
0000
07C0
07C0
0EE0
1830
3018
0000
0000
07E0
1C38
301C
700C
600E
600E
E00E
FFFE
E000
E000
E000
E000
7000
7000
3800
1E06
0FFE
03F8
ENDCHAR
STARTCHAR uni1EC6
ENCODING 7878
SWIDTH 566 0
DWIDTH 19 0
BBX 17 35 1 -4
BITMAP
07C000
07C000
0EE000
183000
301800
000000
FFFF00
1C0700
1C0300
1C0300
1C0000
1C0000
1C0000
1C0000
1C0000
1C0000
1C0400
1C0400
1FFC00
1C0400
1C0400
1C0000
1C0000
1C0000
1C0000
1C0000
1C0000
1C0180
1C0180
3E0380
FFFF80
000000
01C000
01C000
01C000
ENDCHAR
STARTCHAR uni1EC7
ENCODING 7879
SWIDTH 530 0
DWIDTH 18 0
BBX 15 28 1 -4
BITMAP
07C0
07C0
0EE0
1830
3018
0000
07E0
1C38
301C
700C
600E
600E
E00E
FFFE
E000
E000
E000
E000
7000
7000
3800
1E06
0FFE
03F8
0000
0380
0380
0380
ENDCHAR
STARTCHAR uni1ECA
ENCODING 7882
SWIDTH 325 0
DWIDTH 11 0
BBX 9 29 1 -4
BITMAP
FF80
3E00
1C00
1C00
1C00
1C00
1C00
1C00
1C00
1C00
1C00
1C00
1C00
1C00
1C00
1C00
1C00
1C00
1C00
1C00
1C00
1C00
1C00
3E00
FF80
0000
1C00
1C00
1C00
ENDCHAR
STARTCHAR uni1ECB
ENCODING 7883
SWIDTH 307 0
DWIDTH 10 0
BBX 9 29 1 -4
BITMAP
1C00
1C00
1C00
0000
0000
0000
0000
FC00
3C00
1C00
1C00
1C00
1C00
1C00
1C00
1C00
1C00
1C00
1C00
1C00
1C00
1C00
1C00
3E00
FF80
0000
1C00
1C00
1C00
ENDCHAR
STARTCHAR uni1ECC
ENCODING 7884
SWIDTH 777 0
DWIDTH 26 0
BBX 23 29 2 -4
BITMAP
00FE00
0783C0
0E00E0
1C0070
380038
300018
70001C
70001C
E0000E
E0000E
E0000E
E0000E
E0000E
E0000E
E0000E
E0000E
E0000E
70001C
70001C
300018
380038
1C0070
0E00E0
0783C0
00FE00
000000
003800
003800
003800
ENDCHAR
STARTCHAR uni1ECD
ENCODING 7885
SWIDTH 602 0
DWIDTH 20 0
BBX 17 22 2 -4
BITMAP
07F000
1C1C00
380E00
700700
700700
E00380
E00380
E00380
E00380
E00380
E00380
E00380
E00380
700700
700700
380E00
1C1C00
07F000
000000
01C000
01C000
01C000
ENDCHAR
STARTCHAR uni1ED0
ENCODING 7888
SWIDTH 777 0
DWIDTH 26 0
BBX 23 38 2 0
BITMAP
000F00
001C00
001800
003000
006000
000000
007C00
007C00
00EE00
018300
030180
000000
000000
00FE00
0783C0
0E00E0
1C0070
380038
300018
70001C
70001C
E0000E
E0000E
E0000E
E0000E
E0000E
E0000E
E0000E
E0000E
E0000E
70001C
70001C
300018
380038
1C0070
0E00E0
0783C0
00FE00
ENDCHAR
STARTCHAR uni1ED1
ENCODING 7889
SWIDTH 602 0
DWIDTH 20 0
BBX 17 31 2 0
BITMAP
007800
00E000
00C000
018000
030000
000000
03E000
03E000
077000
0C1800
180C00
000000
000000
07F000
1C1C00
380E00
700700
700700
E00380
E00380
E00380
E00380
E00380
E00380
E00380
E00380
700700
700700
380E00
1C1C00
07F000
ENDCHAR
STARTCHAR uni1ED2
ENCODING 7890
SWIDTH 777 0
DWIDTH 26 0
BBX 23 38 2 0
BITMAP
01E000
007000
003000
001800
000C00
000000
007C00
007C00
00EE00
018300
030180
000000
000000
00FE00
0783C0
0E00E0
1C0070
380038
300018
70001C
70001C
E0000E
E0000E
E0000E
E0000E
E0000E
E0000E
E0000E
E0000E
E0000E
70001C
70001C
300018
380038
1C0070
0E00E0
0783C0
00FE00
ENDCHAR
STARTCHAR uni1ED3
ENCODING 7891
SWIDTH 602 0
DWIDTH 20 0
BBX 17 31 2 0
BITMAP
0F0000
038000
018000
00C000
006000
000000
03E000
03E000
077000
0C1800
180C00
000000
000000
07F000
1C1C00
380E00
700700
700700
E00380
E00380
E00380
E00380
E00380
E00380
E00380
E00380
700700
700700
380E00
1C1C00
07F000
ENDCHAR
STARTCHAR uni1ED6
ENCODING 7894
SWIDTH 777 0
DWIDTH 26 0
BBX 23 36 2 0
BITMAP
00F080
01FF00
021E00
000000
007C00
007C00
00EE00
018300
030180
000000
000000
00FE00
0783C0
0E00E0
1C0070
380038
300018
70001C
70001C
E0000E
E0000E
E0000E
E0000E
E0000E
E0000E
E0000E
E0000E
E0000E
70001C
70001C
300018
380038
1C0070
0E00E0
0783C0
00FE00
ENDCHAR
STARTCHAR uni1ED7
ENCODING 7895
SWIDTH 602 0
DWIDTH 20 0
BBX 17 29 2 0
BITMAP
078400
0FF800
10F000
000000
03E000
03E000
077000
0C1800
180C00
000000
000000
07F000
1C1C00
380E00
700700
700700
E00380
E00380
E00380
E00380
E00380
E00380
E00380
E00380
700700
700700
380E00
1C1C00
07F000
ENDCHAR
STARTCHAR uni1ED8
ENCODING 7896
SWIDTH 777 0
DWIDTH 26 0
BBX 23 35 2 -4
BITMAP
007C00
007C00
00EE00
018300
030180
000000
00FE00
0783C0
0E00E0
1C0070
380038
300018
70001C
70001C
E0000E
E0000E
E0000E
E0000E
E0000E
E0000E
E0000E
E0000E
E0000E
70001C
70001C
300018
380038
1C0070
0E00E0
0783C0
00FE00
000000
003800
003800
003800
ENDCHAR
STARTCHAR uni1ED9
ENCODING 7897
SWIDTH 602 0
DWIDTH 20 0
BBX 17 28 2 -4
BITMAP
03E000
03E000
077000
0C1800
180C00
000000
07F000
1C1C00
380E00
700700
700700
E00380
E00380
E00380
E00380
E00380
E00380
E00380
E00380
700700
700700
380E00
1C1C00
07F000
000000
01C000
01C000
01C000
ENDCHAR
STARTCHAR uni1EDA
ENCODING 7898
SWIDTH 777 0
DWIDTH 26 0
BBX 25 31 2 0
BITMAP
0001E000
00038000
00030000
00060000
000C0000
00000000
00FE0780
0783C780
0E00E780
1C007780
38003980
30001980
70001D80
70001F00
E0000F00
E0000E00
E0000E00
E0000E00
E0000E00
E0000E00
E0000E00
E0000E00
E0000E00
70001C00
70001C00
30001800
38003800
1C007000
0E00E000
0783C000
00FE0000
ENDCHAR
STARTCHAR uni1EDB
ENCODING 7899
SWIDTH 602 0
DWIDTH 20 0
BBX 19 24 2 0
BITMAP
000F00
001C00
001800
003000
006000
000000
07F1E0
1C1DE0
380FE0
7007E0
700760
E003E0
E003E0
E003C0
E003C0
E00380
E00380
E00380
E00380
700700
700700
380E00
1C1C00
07F000
ENDCHAR
STARTCHAR uni1EDC
ENCODING 7900
SWIDTH 777 0
DWIDTH 26 0
BBX 25 31 2 0
BITMAP
003C0000
000E0000
00060000
00030000
00018000
00000000
00FE0780
0783C780
0E00E780
1C007780
38003980
30001980
70001D80
70001F00
E0000F00
E0000E00
E0000E00
E0000E00
E0000E00
E0000E00
E0000E00
E0000E00
E0000E00
70001C00
70001C00
30001800
38003800
1C007000
0E00E000
0783C000
00FE0000
ENDCHAR
STARTCHAR uni1EDD
ENCODING 7901
SWIDTH 602 0
DWIDTH 20 0
BBX 19 24 2 0
BITMAP
03C000
00E000
006000
003000
001800
000000
07F1E0
1C1DE0
380FE0
7007E0
700760
E003E0
E003E0
E003C0
E003C0
E00380
E00380
E00380
E00380
700700
700700
380E00
1C1C00
07F000
ENDCHAR
STARTCHAR uni1EE0
ENCODING 7904
SWIDTH 777 0
DWIDTH 26 0
BBX 25 29 2 0
BITMAP
001E1000
003FE000
0043C000
00000000
00FE0780
0783C780
0E00E780
1C007780
38003980
30001980
70001D80
70001F00
E0000F00
E0000E00
E0000E00
E0000E00
E0000E00
E0000E00
E0000E00
E0000E00
E0000E00
70001C00
70001C00
30001800
38003800
1C007000
0E00E000
0783C000
00FE0000
ENDCHAR
STARTCHAR uni1EE1
ENCODING 7905
SWIDTH 602 0
DWIDTH 20 0
BBX 19 22 2 0
BITMAP
01E100
03FE00
043C00
000000
07F1E0
1C1DE0
380FE0
7007E0
700760
E003E0
E003E0
E003C0
E003C0
E00380
E00380
E00380
E00380
700700
700700
380E00
1C1C00
07F000
ENDCHAR
STARTCHAR uni1EE2
ENCODING 7906
SWIDTH 777 0
DWIDTH 26 0
BBX 25 29 2 -4
BITMAP
00FE0780
0783C780
0E00E780
1C007780
38003980
30001980
70001D80
70001F00
E0000F00
E0000E00
E0000E00
E0000E00
E0000E00
E0000E00
E0000E00
E0000E00
E0000E00
70001C00
70001C00
30001800
38003800
1C007000
0E00E000
0783C000
00FE0000
00000000
00380000
00380000
00380000
ENDCHAR
STARTCHAR uni1EE3
ENCODING 7907
SWIDTH 602 0
DWIDTH 20 0
BBX 19 22 2 -4
BITMAP
07F1E0
1C1DE0
380FE0
7007E0
700760
E003E0
E003E0
E003C0
E003C0
E00380
E00380
E00380
E00380
700700
700700
380E00
1C1C00
07F000
000000
01C000
01C000
01C000
ENDCHAR
STARTCHAR uni1EE4
ENCODING 7908
SWIDTH 719 0
DWIDTH 24 0
BBX 24 29 0 -4
BITMAP
FF80FF
3E003C
1C0018
1C0018
1C0018
1C0018
1C0018
1C0018
1C0018
1C0018
1C0018
1C0018
1C0018
1C0018
1C0018
1C0018
1C0018
1C0018
1C0018
1C0010
0E0030
0E0030
070060
0381C0
00FF00
000000
003800
003800
003800
ENDCHAR
STARTCHAR uni1EE5
ENCODING 7909
SWIDTH 633 0
DWIDTH 21 0
BBX 21 22 0 -4
BITMAP
FC0FC0
3C03C0
1C01C0
1C01C0
1C01C0
1C01C0
1C01C0
1C01C0
1C01C0
1C01C0
1C01C0
1C01C0
1C01C0
1C01C0
1C07C0
0E0DC0
0FF9E0
03E1F8
000000
003800
003800
003800
ENDCHAR
STARTCHAR uni1EE8
ENCODING 7912
SWIDTH 719 0
DWIDTH 24 0
BBX 26 31 0 0
BITMAP
0001E000
00038000
00030000
00060000
000C0000
00000000
FF80FFC0
3E003FC0
1C001BC0
1C001BC0
1C0018C0
1C0018C0
1C0018C0
1C001980
1C001B80
1C001A00
1C001800
1C001800
1C001800
1C001800
1C001800
1C001800
1C001800
1C001800
1C001800
1C001000
0E003000
0E003000
07006000
0381C000
00FF0000
ENDCHAR
STARTCHAR uni1EE9
ENCODING 7913
SWIDTH 633 0
DWIDTH 21 0
BBX 23 24 0 0
BITMAP
0003C0
000700
000600
000C00
001800
000000
FC0FDE
3C03DE
1C01DE
1C01DE
1C01C6
1C01C6
1C01C6
1C01CC
1C01DC
1C01D0
1C01C0
1C01C0
1C01C0
1C01C0
1C07C0
0E0DC0
0FF9E0
03E1F8
ENDCHAR
STARTCHAR uni1EEA
ENCODING 7914
SWIDTH 719 0
DWIDTH 24 0
BBX 26 31 0 0
BITMAP
00780000
001C0000
000C0000
00060000
00030000
00000000
FF80FFC0
3E003FC0
1C001BC0
1C001BC0
1C0018C0
1C0018C0
1C0018C0
1C001980
1C001B80
1C001A00
1C001800
1C001800
1C001800
1C001800
1C001800
1C001800
1C001800
1C001800
1C001800
1C001000
0E003000
0E003000
07006000
0381C000
00FF0000
ENDCHAR
STARTCHAR uni1EEB
ENCODING 7915
SWIDTH 633 0
DWIDTH 21 0
BBX 23 24 0 0
BITMAP
00F000
003800
001800
000C00
000600
000000
FC0FDE
3C03DE
1C01DE
1C01DE
1C01C6
1C01C6
1C01C6
1C01CC
1C01DC
1C01D0
1C01C0
1C01C0
1C01C0
1C01C0
1C07C0
0E0DC0
0FF9E0
03E1F8
ENDCHAR
STARTCHAR uni1EEE
ENCODING 7918
SWIDTH 719 0
DWIDTH 24 0
BBX 26 29 0 0
BITMAP
001E1000
003FE000
0043C000
00000000
FF80FFC0
3E003FC0
1C001BC0
1C001BC0
1C0018C0
1C0018C0
1C0018C0
1C001980
1C001B80
1C001A00
1C001800
1C001800
1C001800
1C001800
1C001800
1C001800
1C001800
1C001800
1C001800
1C001000
0E003000
0E003000
07006000
0381C000
00FF0000
ENDCHAR
STARTCHAR uni1EEF
ENCODING 7919
SWIDTH 633 0
DWIDTH 21 0
BBX 23 22 0 0
BITMAP
007840
00FF80
010F00
000000
FC0FDE
3C03DE
1C01DE
1C01DE
1C01C6
1C01C6
1C01C6
1C01CC
1C01DC
1C01D0
1C01C0
1C01C0
1C01C0
1C01C0
1C07C0
0E0DC0
0FF9E0
03E1F8
ENDCHAR
STARTCHAR uni1EF0
ENCODING 7920
SWIDTH 719 0
DWIDTH 24 0
BBX 26 29 0 -4
BITMAP
FF80FFC0
3E003FC0
1C001BC0
1C001BC0
1C0018C0
1C0018C0
1C0018C0
1C001980
1C001B80
1C001A00
1C001800
1C001800
1C001800
1C001800
1C001800
1C001800
1C001800
1C001800
1C001800
1C001000
0E003000
0E003000
07006000
0381C000
00FF0000
00000000
00380000
00380000
00380000
ENDCHAR
STARTCHAR uni1EF1
ENCODING 7921
SWIDTH 633 0
DWIDTH 21 0
BBX 23 22 0 -4
BITMAP
FC0FDE
3C03DE
1C01DE
1C01DE
1C01C6
1C01C6
1C01C6
1C01CC
1C01DC
1C01D0
1C01C0
1C01C0
1C01C0
1C01C0
1C07C0
0E0DC0
0FF9E0
03E1F8
000000
003800
003800
003800
ENDCHAR
STARTCHAR Ygrave
ENCODING 7922
SWIDTH 678 0
DWIDTH 23 0
BBX 23 31 0 0
BITMAP
03C000
00E000
006000
003000
001800
000000
FFC0FE
3E0018
1E0010
0F0020
070020
078040
0380C0
03C080
01C100
00E100
00F200
007400
007C00
003800
003800
003800
003800
003800
003800
003800
003800
003800
003800
007C00
01FF00
ENDCHAR
STARTCHAR ygrave
ENCODING 7923
SWIDTH 551 0
DWIDTH 19 0
BBX 19 31 0 -7
BITMAP
0F0000
038000
018000
00C000
006000
000000
FF03E0
3C00C0
3C0080
1C0180
1C0100
0E0100
0E0200
0F0200
070400
078400
038C00
038800
01C800
01D000
01F000
00E000
00E000
004000
004000
00C000
018000
038000
070000
0F0000
1E0000
ENDCHAR
STARTCHAR uni1EF4
ENCODING 7924
SWIDTH 678 0
DWIDTH 23 0
BBX 23 29 0 -4
BITMAP
FFC0FE
3E0018
1E0010
0F0020
070020
078040
0380C0
03C080
01C100
00E100
00F200
007400
007C00
003800
003800
003800
003800
003800
003800
003800
003800
003800
003800
007C00
01FF00
000000
003800
003800
003800
ENDCHAR
STARTCHAR uni1EF5
ENCODING 7925
SWIDTH 551 0
DWIDTH 19 0
BBX 19 29 0 -11
BITMAP
FF03E0
3C00C0
3C0080
1C0180
1C0100
0E0100
0E0200
0F0200
070400
078400
038C00
038800
01C800
01D000
01F000
00E000
00E000
004000
004000
00C000
018000
038000
070000
0F0000
1E0000
000000
038000
038000
038000
ENDCHAR
STARTCHAR uni1EF8
ENCODING 7928
SWIDTH 678 0
DWIDTH 23 0
BBX 23 29 0 0
BITMAP
01E100
03FE00
043C00
000000
FFC0FE
3E0018
1E0010
0F0020
070020
078040
0380C0
03C080
01C100
00E100
00F200
007400
007C00
003800
003800
003800
003800
003800
003800
003800
003800
003800
003800
007C00
01FF00
ENDCHAR
STARTCHAR uni1EF9
ENCODING 7929
SWIDTH 551 0
DWIDTH 19 0
BBX 19 29 0 -7
BITMAP
078400
0FF800
10F000
000000
FF03E0
3C00C0
3C0080
1C0180
1C0100
0E0100
0E0200
0F0200
070400
078400
038C00
038800
01C800
01D000
01F000
00E000
00E000
004000
004000
00C000
018000
038000
070000
0F0000
1E0000
ENDCHAR
STARTCHAR uni2000
ENCODING 8192
SWIDTH 500 0
DWIDTH 17 0
BBX 1 1 0 0
BITMAP
00
ENDCHAR
STARTCHAR uni2001
ENCODING 8193
SWIDTH 1000 0
DWIDTH 33 0
BBX 1 1 0 0
BITMAP
00
ENDCHAR
STARTCHAR uni2002
ENCODING 8194
SWIDTH 500 0
DWIDTH 17 0
BBX 1 1 0 0
BITMAP
00
ENDCHAR
STARTCHAR uni2003
ENCODING 8195
SWIDTH 1000 0
DWIDTH 33 0
BBX 1 1 0 0
BITMAP
00
ENDCHAR
STARTCHAR uni2004
ENCODING 8196
SWIDTH 333 0
DWIDTH 11 0
BBX 1 1 0 0
BITMAP
00
ENDCHAR
STARTCHAR uni2005
ENCODING 8197
SWIDTH 250 0
DWIDTH 8 0
BBX 1 1 0 0
BITMAP
00
ENDCHAR
STARTCHAR uni2006
ENCODING 8198
SWIDTH 167 0
DWIDTH 6 0
BBX 1 1 0 0
BITMAP
00
ENDCHAR
STARTCHAR uni2007
ENCODING 8199
SWIDTH 608 0
DWIDTH 21 0
BBX 1 1 0 0
BITMAP
00
ENDCHAR
STARTCHAR uni2008
ENCODING 8200
SWIDTH 265 0
DWIDTH 9 0
BBX 1 1 0 0
BITMAP
00
ENDCHAR
STARTCHAR uni2009
ENCODING 8201
SWIDTH 200 0
DWIDTH 7 0
BBX 1 1 0 0
BITMAP
00
ENDCHAR
STARTCHAR uni200A
ENCODING 8202
SWIDTH 100 0
DWIDTH 3 0
BBX 1 1 0 0
BITMAP
00
ENDCHAR
STARTCHAR uni200B
ENCODING 8203
SWIDTH 0 0
DWIDTH 0 0
BBX 1 1 0 0
BITMAP
00
ENDCHAR
STARTCHAR uni2010
ENCODING 8208
SWIDTH 325 0
DWIDTH 11 0
BBX 8 2 2 10
BITMAP
FF
FF
ENDCHAR
STARTCHAR uni2011
ENCODING 8209
SWIDTH 325 0
DWIDTH 11 0
BBX 8 2 2 10
BITMAP
FF
FF
ENDCHAR
STARTCHAR figuredash
ENCODING 8210
SWIDTH 500 0
DWIDTH 17 0
BBX 14 2 2 10
BITMAP
FFFC
FFFC
ENDCHAR
STARTCHAR endash
ENCODING 8211
SWIDTH 500 0
DWIDTH 17 0
BBX 14 2 2 10
BITMAP
FFFC
FFFC
ENDCHAR
STARTCHAR emdash
ENCODING 8212
SWIDTH 1000 0
DWIDTH 34 0
BBX 30 2 2 9
BITMAP
FFFFFFFC
FFFFFFFC
ENDCHAR
STARTCHAR afii00208
ENCODING 8213
SWIDTH 1000 0
DWIDTH 34 0
BBX 30 2 2 9
BITMAP
FFFFFFFC
FFFFFFFC
ENDCHAR
STARTCHAR quoteleft
ENCODING 8216
SWIDTH 265 0
DWIDTH 9 0
BBX 4 10 3 16
BITMAP
30
60
C0
C0
C0
C0
F0
F0
F0
F0
ENDCHAR
STARTCHAR quoteright
ENCODING 8217
SWIDTH 265 0
DWIDTH 9 0
BBX 4 10 3 16
BITMAP
F0
F0
F0
F0
30
30
30
60
E0
80
ENDCHAR
STARTCHAR quotesinglbase
ENCODING 8218
SWIDTH 265 0
DWIDTH 9 0
BBX 4 11 3 -6
BITMAP
F0
F0
F0
F0
F0
30
30
30
20
60
C0
ENDCHAR
STARTCHAR quotereversed
ENCODING 8219
SWIDTH 265 0
DWIDTH 9 0
BBX 4 10 3 16
BITMAP
F0
F0
F0
F0
C0
C0
C0
60
70
10
ENDCHAR
STARTCHAR quotedblleft
ENCODING 8220
SWIDTH 458 0
DWIDTH 16 0
BBX 10 10 3 16
BITMAP
60C0
4180
C300
C300
C300
C300
C300
E3C0
E3C0
E3C0
ENDCHAR
STARTCHAR quotedblright
ENCODING 8221
SWIDTH 458 0
DWIDTH 16 0
BBX 10 10 3 16
BITMAP
E1C0
E1C0
E1C0
20C0
60C0
60C0
60C0
60C0
C180
8100
ENDCHAR
STARTCHAR quotedblbase
ENCODING 8222
SWIDTH 458 0
DWIDTH 16 0
BBX 10 11 3 -6
BITMAP
E1C0
E1C0
E1C0
20C0
20C0
60C0
60C0
60C0
60C0
C180
C180
ENDCHAR
STARTCHAR uni201F
ENCODING 8223
SWIDTH 458 0
DWIDTH 16 0
BBX 10 10 3 16
BITMAP
E1C0
E1C0
E1C0
C100
C180
C180
C180
C180
60C0
2040
ENDCHAR
STARTCHAR dagger
ENCODING 8224
SWIDTH 608 0
DWIDTH 21 0
BBX 14 31 3 -6
BITMAP
0700
0700
0700
0700
0700
0300
0300
0300
0300
E31C
FFFC
0300
0300
0300
0300
0300
0300
0300
0300
0300
0300
0700
0700
0700
0700
0700
0700
0700
0700
0700
0700
ENDCHAR
STARTCHAR daggerdbl
ENCODING 8225
SWIDTH 608 0
DWIDTH 21 0
BBX 14 31 3 -6
BITMAP
0700
0700
0700
0700
0700
0300
0300
0300
0300
E31C
FFFC
0300
0300
0300
0300
0300
0300
0300
0300
0300
FFFC
E31C
0300
0300
0300
0300
0700
0700
0700
0700
0700
ENDCHAR
STARTCHAR bullet
ENCODING 8226
SWIDTH 608 0
DWIDTH 21 0
BBX 11 10 5 5
BITMAP
1F00
3F80
7FC0
FFE0
FFE0
FFE0
FFE0
7FC0
3F80
1F00
ENDCHAR
STARTCHAR ellipsis
ENCODING 8230
SWIDTH 1000 0
DWIDTH 34 0
BBX 22 3 6 0
BITMAP
E0381C
E0381C
E0381C
ENDCHAR
STARTCHAR perthousand
ENCODING 8240
SWIDTH 1024 0
DWIDTH 35 0
BBX 34 25 0 0
BITMAP
1E001C0000
3100380000
6180300000
4080600000
C0C0E00000
C0C1C00000
C0C3800000
C0C3000000
C0C6000000
408E000000
619C000000
2118000000
1E30000000
0061E01E00
00E3103100
01C6086080
018C0CC0C0
030C0CC0C0
070C0CC0C0
0E0C0CC0C0
1C0C0CC0C0
180C0CC0C0
3004084080
7002102100
E001E01E00
ENDCHAR
STARTCHAR guilsinglleft
ENCODING 8249
SWIDTH 339 0
DWIDTH 12 0
BBX 8 16 2 1
BITMAP
01
02
06
0C
1C
38
70
F0
70
70
38
1C
0C
06
03
01
ENDCHAR
STARTCHAR guilsinglright
ENCODING 8250
SWIDTH 339 0
DWIDTH 12 0
BBX 8 16 2 1
BITMAP
80
C0
60
30
38
1C
0E
0E
0F
0E
1C
38
30
60
40
80
ENDCHAR
STARTCHAR fraction
ENCODING 8260
SWIDTH 36 0
DWIDTH 1 0
BBX 21 25 -9 0
BITMAP
000038
000070
000060
0000C0
0001C0
000380
000300
000600
000E00
001C00
001800
003000
007000
00E000
00C000
018000
038000
070000
060000
0C0000
1C0000
380000
300000
600000
E00000
ENDCHAR
STARTCHAR oneinferior
ENCODING 8321
SWIDTH 365 0
DWIDTH 12 0
BBX 8 15 -21 -8
BITMAP
F8
18
18
18
18
18
18
18
18
18
18
18
18
18
FF
ENDCHAR
STARTCHAR twoinferior
ENCODING 8322
SWIDTH 365 0
DWIDTH 12 0
BBX 9 15 -20 -8
BITMAP
7E00
C300
8180
8180
0180
0180
0300
0600
0C00
1000
2000
4000
4000
FF80
FF80
ENDCHAR
STARTCHAR threeinferior
ENCODING 8323
SWIDTH 365 0
DWIDTH 12 0
BBX 9 15 -20 -8
BITMAP
FE00
C300
8180
0180
0180
0100
0200
7E00
0700
0180
0180
0180
8180
C300
FC00
ENDCHAR
STARTCHAR uni20A5
ENCODING 8357
SWIDTH 946 0
DWIDTH 32 0
BBX 31 32 1 -7
BITMAP
00000300
00000600
00000600
00000C00
00000C00
00001800
00001800
FC3E3F80
3CFF3FE0
1D8770E0
1E03E070
1C03E070
1C03C070
1C03C070
1C038070
1C038070
1C038070
1C038070
1C078070
1C078070
1C0F8070
1C0F8070
1C1F8070
3E1FC0F8
FFBFF3FE
00300000
00300000
00600000
00600000
00C00000
00C00000
01800000
ENDCHAR
STARTCHAR uni20A6
ENCODING 8358
SWIDTH 751 0
DWIDTH 26 0
BBX 24 25 1 0
BITMAP
FC007F
3E001C
1E0008
1F0008
1F8008
1BC008
19C008
19E008
3FFFFC
3FFFFC
183808
183C08
181E08
180E08
180F08
3FFFFC
3FFFFC
1801C8
1801E8
1800F8
180078
180078
180038
3C0018
FF0008
ENDCHAR
STARTCHAR uni20A9
ENCODING 8361
SWIDTH 925 0
DWIDTH 31 0
BBX 31 25 0 0
BITMAP
FF8180FE
3C018018
3C018010
1C01C010
1C03C010
1E03C020
0E03C020
0E04E020
0FFFFFC0
0FFFFFC0
070CF040
07087040
07087080
03887080
03903880
03FFFFC0
03FFFFC0
01E01D00
01E01D00
01E01E00
01E00E00
00C00E00
00C00C00
00C00C00
00800400
ENDCHAR
STARTCHAR Euro
ENCODING 8364
SWIDTH 695 0
DWIDTH 24 0
BBX 26 25 -4 0
BITMAP
0003FE00
000E07C0
003801C0
007000C0
00E000C0
00C000C0
01C00000
01C00000
FFFFF000
FFFFF000
03800000
03800000
03800000
03800000
03800000
FFFFF000
FFFFF000
01C00000
01C00000
00E00000
00F00000
00780040
003E01C0
000FFF80
0003FC00
ENDCHAR
STARTCHAR uni20AD
ENCODING 8365
SWIDTH 708 0
DWIDTH 24 0
BBX 23 25 1 0
BITMAP
FF87F8
3E00E0
1C0180
1C0300
1C0200
1C0400
1C0800
1C1000
1C2000
1C4000
1C8000
FFFFFE
FFFFFE
1DE000
1CF000
1C7800
1C3C00
1C1E00
1C1E00
1C0F00
1C0780
1C03C0
1C01E0
3E01F8
FF87FE
ENDCHAR
STARTCHAR uni2103
ENCODING 8451
SWIDTH 941 0
DWIDTH 33 0
BBX 30 25 1 0
BITMAP
78003FE0
CC00E07C
8403801C
8407000C
CC0E000C
780C000C
001C0000
001C0000
00380000
00380000
00380000
00380000
00380000
00380000
00380000
00380000
001C0000
001C0000
001C0000
000E0000
000F0000
00078004
0003E01C
0000FFF8
00003FC0
ENDCHAR
STARTCHAR uni2109
ENCODING 8457
SWIDTH 794 0
DWIDTH 28 0
BBX 25 25 1 0
BITMAP
787FFF80
CC0E0380
840E0180
840E0180
CC0E0000
780E0000
000E0000
000E0000
000E0000
000E0000
000E0200
000E0200
000FFE00
000E0200
000E0200
000E0000
000E0000
000E0000
000E0000
000E0000
000E0000
000E0000
000E0000
001F0000
007FE000
ENDCHAR
STARTCHAR trademark
ENCODING 8482
SWIDTH 904 0
DWIDTH 31 0
BBX 27 14 2 11
BITMAP
FFDF83E0
8C47C380
8C47C780
0C07C580
0C07C580
0C06ED80
0C06E980
0C06E980
0C067980
0C067180
0C067180
0C063180
0C062180
3F1E01E0
ENDCHAR
STARTCHAR uni212A
ENCODING 8490
SWIDTH 708 0
DWIDTH 24 0
BBX 23 25 1 0
BITMAP
FF87F8
3E00E0
1C0180
1C0300
1C0200
1C0400
1C0800
1C1000
1C2000
1C4000
1C8000
1D8000
1FC000
1DE000
1CF000
1C7800
1C3C00
1C1E00
1C1E00
1C0F00
1C0780
1C03C0
1C01E0
3E01F8
FF87FE
ENDCHAR
STARTCHAR uni212B
ENCODING 8491
SWIDTH 744 0
DWIDTH 25 0
BBX 25 32 0 0
BITMAP
001C0000
00220000
00220000
00220000
001C0000
00000000
00000000
00080000
00080000
001C0000
001C0000
003E0000
002E0000
006F0000
00470000
00470000
00838000
00838000
0103C000
0101C000
0101C000
0200E000
0200E000
07FFF000
04007000
04007000
08003800
08003800
10003C00
10001C00
30001E00
FC00FF80
ENDCHAR
STARTCHAR uni2132
ENCODING 8498
SWIDTH 548 0
DWIDTH 19 0
BBX 16 25 1 0
BITMAP
03FF
007C
0038
0038
0038
0038
0038
0038
0038
0038
2038
2038
3FF8
2038
2038
0038
0038
0038
0038
0038
0038
C038
C038
E038
FFFF
ENDCHAR
STARTCHAR universal
ENCODING 8704
SWIDTH 744 0
DWIDTH 25 0
BBX 25 25 0 0
BITMAP
FC00FF80
30001E00
10001C00
10003C00
08003800
08003800
04007000
04007000
07FFF000
0200E000
0200E000
0101C000
0101C000
0103C000
00838000
00838000
00470000
00470000
006F0000
002E0000
003E0000
001C0000
001C0000
00080000
00080000
ENDCHAR
STARTCHAR existential
ENCODING 8707
SWIDTH 566 0
DWIDTH 19 0
BBX 17 25 1 0
BITMAP
7FFF80
701C00
601C00
601C00
001C00
001C00
001C00
001C00
001C00
001C00
101C00
101C00
1FFC00
101C00
101C00
001C00
001C00
001C00
001C00
001C00
001C00
C01C00
C01C00
E03E00
FFFF80
ENDCHAR
STARTCHAR uni2204
ENCODING 8708
SWIDTH 566 0
DWIDTH 19 0
BBX 17 32 1 -3
BITMAP
000180
000300
000300
000600
7FFF80
701C00
601C00
601C00
001C00
003C00
003C00
003C00
007C00
007C00
10DC00
10DC00
1FFC00
119C00
131C00
031C00
061C00
061C00
0E1C00
0C1C00
1C1C00
D81C00
D81C00
F03E00
FFFF80
600000
600000
C00000
ENDCHAR
STARTCHAR minus
ENCODING 8722
SWIDTH 608 0
DWIDTH 21 0
BBX 20 2 0 9
BITMAP
FFFFF0
FFFFF0
ENDCHAR
STARTCHAR fraction
ENCODING 8725
SWIDTH 36 0
DWIDTH 1 0
BBX 21 25 -9 0
BITMAP
000038
000070
000060
0000C0
0001C0
000380
000300
000600
000E00
001C00
001800
003000
007000
00E000
00C000
018000
038000
070000
060000
0C0000
1C0000
380000
300000
600000
E00000
ENDCHAR
STARTCHAR periodcentered
ENCODING 8729
SWIDTH 608 0
DWIDTH 21 0
BBX 3 3 9 9
BITMAP
E0
E0
E0
ENDCHAR
STARTCHAR uni2236
ENCODING 8758
SWIDTH 265 0
DWIDTH 9 0
BBX 3 18 3 0
BITMAP
E0
E0
E0
00
00
00
00
00
00
00
00
00
00
00
00
E0
E0
E0
ENDCHAR
STARTCHAR uni2259
ENCODING 8793
SWIDTH 608 0
DWIDTH 21 0
BBX 20 15 0 5
BITMAP
00F800
00F800
01DC00
030600
060300
000000
FFFFF0
FFFFF0
000000
000000
000000
000000
000000
FFFFF0
FFFFF0
ENDCHAR
STARTCHAR uni225A
ENCODING 8794
SWIDTH 608 0
DWIDTH 21 0
BBX 20 15 0 5
BITMAP
060300
030600
018C00
00F800
00F800
000000
FFFFF0
FFFFF0
000000
000000
000000
000000
000000
FFFFF0
FFFFF0
ENDCHAR
STARTCHAR notequal
ENCODING 8800
SWIDTH 608 0
DWIDTH 21 0
BBX 20 32 0 -6
BITMAP
000060
0000C0
0000C0
000180
000180
000300
000300
000700
000600
000E00
000C00
000C00
FFFFF0
FFFFF0
003000
003000
006000
006000
00C000
FFFFF0
FFFFF0
018000
038000
030000
070000
060000
060000
0C0000
0C0000
180000
180000
300000
ENDCHAR
STARTCHAR equivalence
ENCODING 8801
SWIDTH 608 0
DWIDTH 21 0
BBX 20 8 0 6
BITMAP
FFFFF0
FFFFF0
000000
FFFFF0
FFFFF0
000000
FFFFF0
FFFFF0
ENDCHAR
STARTCHAR uni2262
ENCODING 8802
SWIDTH 608 0
DWIDTH 21 0
BBX 20 32 0 -6
BITMAP
000060
0000C0
0000C0
000180
000180
000300
000300
000700
000600
000E00
000C00
000C00
FFFFF0
FFFFF0
003000
FFFFF0
FFFFF0
006000
FFFFF0
FFFFF0
018000
018000
038000
030000
070000
060000
060000
0C0000
0C0000
180000
180000
300000
ENDCHAR
STARTCHAR lessequal
ENCODING 8804
SWIDTH 608 0
DWIDTH 21 0
BBX 20 24 0 -3
BITMAP
000010
000070
0001E0
0007C0
001F00
007C00
01F000
03C000
0F0000
3C0000
F00000
3C0000
0F0000
03C000
01F000
007C00
001F00
0007C0
0001E0
000070
000010
000000
FFFFF0
FFFFF0
ENDCHAR
STARTCHAR greaterequal
ENCODING 8805
SWIDTH 608 0
DWIDTH 21 0
BBX 20 24 0 -3
BITMAP
800000
E00000
780000
3E0000
0F8000
03E000
00F800
003C00
000F00
0003C0
0000F0
0003C0
000F00
003C00
00F800
03E000
0F8000
3E0000
780000
E00000
800000
000000
FFFFF0
FFFFF0
ENDCHAR
STARTCHAR uni226E
ENCODING 8814
SWIDTH 608 0
DWIDTH 21 0
BBX 20 32 0 -5
BITMAP
000060
0000C0
0000C0
000180
000180
000300
000310
000770
0007E0
000FC0
001F00
007C00
01F800
03D800
0F3000
3C3000
F06000
3C6000
0FC000
03C000
01F000
01FC00
039F00
0307C0
0701E0
060070
060010
0C0000
0C0000
180000
180000
300000
ENDCHAR
STARTCHAR uni226F
ENCODING 8815
SWIDTH 608 0
DWIDTH 21 0
BBX 20 32 0 -5
BITMAP
000060
0000C0
0000C0
000180
000180
000300
800300
E00700
780600
3E0E00
0F8C00
03EC00
00F800
003C00
003F00
0033C0
0060F0
0063C0
00CF00
00FC00
01F800
03E000
0F8000
3F0000
7F0000
E60000
860000
0C0000
0C0000
180000
180000
300000
ENDCHAR
STARTCHAR uni2270
ENCODING 8816
SWIDTH 608 0
DWIDTH 21 0
BBX 20 32 0 -7
BITMAP
000060
0000C0
0000C0
000180
000190
000370
0003E0
0007C0
001F00
007E00
01FC00
03CC00
0F1800
3C1800
F03000
3C3000
0F6000
03E000
01F000
00FC00
019F00
0187C0
0381E0
030070
070010
060000
FFFFF0
FFFFF0
0C0000
180000
180000
300000
ENDCHAR
STARTCHAR uni2271
ENCODING 8817
SWIDTH 608 0
DWIDTH 21 0
BBX 20 32 0 -7
BITMAP
000060
0000C0
0000C0
000180
800180
E00300
780300
3E0700
0F8600
03EE00
00FC00
003C00
001F00
001BC0
0030F0
0033C0
006F00
007C00
00F800
03E000
0F8000
3F8000
7B8000
E30000
870000
060000
FFFFF0
FFFFF0
0C0000
180000
180000
300000
ENDCHAR
STARTCHAR fi
ENCODING -1
SWIDTH 657 0
DWIDTH 22 0
BBX 20 27 1 0
BITMAP
03E000
0E7000
0C3380
1C3380
1C3380
1C0000
1C0000
1C0000
1C0000
FFFF80
1C0380
1C0380
1C0380
1C0380
1C0380
1C0380
1C0380
1C0380
1C0380
1C0380
1C0380
1C0380
1C0380
1C0380
1C0380
3E07C0
FF9FF0
ENDCHAR
STARTCHAR fl
ENCODING -1
SWIDTH 663 0
DWIDTH 23 0
BBX 21 27 1 0
BITMAP
03FFC0
060FC0
0C01C0
1C01C0
1C01C0
1C01C0
1C01C0
1C01C0
1C01C0
FFE1C0
1C01C0
1C01C0
1C01C0
1C01C0
1C01C0
1C01C0
1C01C0
1C01C0
1C01C0
1C01C0
1C01C0
1C01C0
1C01C0
1C01C0
1C01C0
3E03E0
FF8FF8
ENDCHAR
ENDFONT
